<svg xmlns="http://www.w3.org/2000/svg" xmlns:xlink="http://www.w3.org/1999/xlink" width="110" height="110" viewBox="0 0 110 110">
  <defs>
    <linearGradient id="linear-gradient" x1="0.5" x2="0.5" y2="1" gradientUnits="objectBoundingBox">
      <stop offset="0" stop-color="#4f8ecb"/>
      <stop offset="1" stop-color="#624596"/>
    </linearGradient>
  </defs>
  <g id="Strategie" transform="translate(-0.106 0.017)">
    <g id="Kreis" transform="translate(0.106 -0.017)" stroke="#707070" stroke-width="1" fill="url(#linear-gradient)">
      <circle cx="55" cy="55" r="55" stroke="none"/>
      <circle cx="55" cy="55" r="54.5" fill="none"/>
    </g>
    <g id="Symbol" transform="translate(31.234 19.264)">
      <path id="Path_3" data-name="Path 3" d="M89.935,232.478c.042,1.939.032,3.91.026,5.817-.006,1.354-.013,2.756,0,4.133a1.436,1.436,0,0,1-.27,1.061,1.314,1.314,0,0,1-1.025.257,60.625,60.625,0,0,0-6.3.016c-.437.029-.9.042-1.423.042-.646,0-1.3-.022-1.933-.042s-1.291-.039-1.937-.039c-.167,0-.334,0-.5,0-.732.013-1.519.02-2.479.02-.6,0-1.2,0-1.8-.007-2.621-.009-5.248,0-7.872-.006q-1.941,0-3.883,0t-3.883,0c-2.723,0-4.827.007-6.815.026h-.058a1.338,1.338,0,0,1-1-.273,1.379,1.379,0,0,1-.26-1.029c.048-2.856.035-5.766.022-8.576l-.006-1.376a3.773,3.773,0,0,1,2.65-3.907,1.133,1.133,0,0,0,.883-1.193,3.219,3.219,0,0,1,1.265-2.733,1.261,1.261,0,0,0,.453-1.351,15.347,15.347,0,0,1,1.047-7.535,56.127,56.127,0,0,1,4.914-9.631c.427-.717.858-1.437,1.278-2.164.482-.836.906-1.592,1.3-2.309.161-.3.2-.524.1-.679a.446.446,0,0,0-.424-.187,1.387,1.387,0,0,0-.305.039,5.749,5.749,0,0,1-1.185.113,14.844,14.844,0,0,1-1.818-.151c-.366-.045-.745-.093-1.121-.122-.193-.016-.389-.023-.585-.023a16.178,16.178,0,0,0-4.827,1.016l-.434.138c-1.593.508-3.208,1.042-4.718,1.54A.813.813,0,0,1,45.97,203a21.136,21.136,0,0,1-3.167-8.371c-.1-.579.244-.82.739-1.1.662-.386,1.333-.785,1.982-1.171,1.214-.727,2.47-1.476,3.742-2.148a6.452,6.452,0,0,0,3.212-3.952,5.66,5.66,0,0,1,3.681-3.7c1.429-.556,2.852-1.2,4.23-1.817.8-.363,1.625-.736,2.444-1.087a1.221,1.221,0,0,0,.838-1.434,13.236,13.236,0,0,1,.549-4.666c.263-.933.485-1.232.912-1.232a2.7,2.7,0,0,1,.941.251c2.768,1.129,5.858,2.7,7.775,5.792a2.956,2.956,0,0,0,1.137.942c.183.106.369.212.536.331a26.37,26.37,0,0,1,9.725,13.538c2.007,5.9,2.624,12.271,1.937,20.047a42.553,42.553,0,0,1-2,10.364,1.143,1.143,0,0,0,.234,1.386,2.665,2.665,0,0,1,.864,2.225,1.258,1.258,0,0,0,1.021,1.434A3.838,3.838,0,0,1,89.935,232.478Z" transform="translate(-42.787 -172.321)" fill="#fff"/>
    </g>
  </g>
</svg>
