<svg xmlns="http://www.w3.org/2000/svg" xmlns:xlink="http://www.w3.org/1999/xlink" width="111" height="111" viewBox="0 0 111 111">

  <g id="Technologie" transform="translate(0.308 0.017)">
    <g id="Kreis" >
    <circle cx="55.5" cy="55.5" r="55" fill="grey"/>
    </g>
    <g id="Symbol" transform="translate(13.691 13.849)">
      <path id="Path_4" data-name="Path 4" d="M-683.692-190.187a6.033,6.033,0,0,1-1.875,4.072q-8.47,8.482-16.949,16.957-3.43,3.43-6.865,6.855c-1.966,1.965-3.938,3.925-5.89,5.9a6.341,6.341,0,0,1-9.129.1c-1.629-1.6-3.228-3.228-4.842-4.842q-9.108-9.108-18.217-18.214c-2.333-2.333-4.68-4.654-6.991-7.009a6.256,6.256,0,0,1,.1-8.613c4.759-4.811,9.559-9.581,14.343-14.367q4.409-4.41,8.824-8.813c1.383-1.374,2.8-2.711,4.186-4.086.9-.893,1.736-1.846,2.637-2.735a6.3,6.3,0,0,1,8.867-.067c1.047,1.005,2.007,2.1,3.037,3.124,2.108,2.094,4.251,4.153,6.354,6.251q10.2,10.178,20.389,20.373A6.683,6.683,0,0,1-683.692-190.187Zm-26.14,23.5c-.467-.408-.81-.681-1.122-.985-2.476-2.414-1.383-1.944-4.924-2.009a1,1,0,0,0-.991.537,3.49,3.49,0,0,1-5.04.907,3.509,3.509,0,0,1-.541-5.146,3.359,3.359,0,0,1,5.125-.082,2.584,2.584,0,0,0,2.582,1.015c.3-.015.6.006.9,0a4.428,4.428,0,0,1,3.526,1.47c.737.787,1.5,1.549,2.206,2.273l4.087-4.027c-1.029-1.038-2.044-2.11-3.123-3.113a1.782,1.782,0,0,0-1.086-.327c-1.224-.039-2.45-.048-3.674-.006a4.647,4.647,0,0,1-3.657-1.5c-1.418-1.457-2.875-2.876-4.3-4.326a.89.89,0,0,0-.962-.3,3.428,3.428,0,0,1-3.878-1.723,3.536,3.536,0,0,1,.578-4.163,3.535,3.535,0,0,1,4.218-.6,3.56,3.56,0,0,1,1.731,3.9,1.085,1.085,0,0,0,.222.836c1.478,1.527,2.971,3.042,4.513,4.5A2.347,2.347,0,0,0-712.1-179a18.608,18.608,0,0,0,3.117.01,5.332,5.332,0,0,1,4.758,2.032c.689.8,1.452,1.533,2.2,2.317.275-.262.444-.416.606-.577q3.334-3.332,6.666-6.666c2.217-2.217,4.449-4.419,6.643-6.659,1.181-1.206,1.311-2.158.7-3.242a18.457,18.457,0,0,0-2.432-2.822c-2.018,1.982-3.907,3.8-5.746,5.673-.341.346-.771.678-.617,1.4a3.448,3.448,0,0,1-3.188,4.225,3.459,3.459,0,0,1-3.682-3.508,3.424,3.424,0,0,1,4.215-3.441,1.144,1.144,0,0,0,1.169-.327q2.374-2.463,4.782-4.894c.322-.326.7-.6.94-.8l-4.108-4.229c-.48.508-.956,1.041-1.464,1.542-1.708,1.686-3.411,3.377-5.152,5.028a7.878,7.878,0,0,1-1.8,1.323c-1.381.7-2.942.654-4.435.873a1.041,1.041,0,0,0-.935.636,3.507,3.507,0,0,1-5.657.959,3.522,3.522,0,0,1,.075-5.036,3.444,3.444,0,0,1,5.01.194,1.237,1.237,0,0,0,1.3.49,18.588,18.588,0,0,1,2.2-.276,3.526,3.526,0,0,0,2.39-1.1c1.518-1.552,3.059-3.083,4.6-4.612.666-.661,1.358-1.3,2.223-2.121a6.853,6.853,0,0,1-.872-.609q-7.3-7.28-14.589-14.575c-1.564-1.564-3.115-3.14-4.693-4.689a2.8,2.8,0,0,0-3.992-.044c-.558.514-1.107,1.039-1.674,1.544-.29.258-.3.473-.02.746.841.818,1.666,1.653,2.5,2.475,1.656,1.628,3.242,3.338,4.994,4.854a7.255,7.255,0,0,1,2.856,6.075,1.427,1.427,0,0,0,.825,1.419,3.445,3.445,0,0,1,.929,5.022,3.519,3.519,0,0,1-5.094.6,3.356,3.356,0,0,1-.294-5.025,2.344,2.344,0,0,0,.8-2.5,6.481,6.481,0,0,0-.122-.959,3.535,3.535,0,0,0-.623-1.329c-2.394-2.456-4.828-4.873-7.258-7.294-.581-.579-1.2-1.124-1.628-1.526-1.286,1.188-2.61,2.4-3.9,3.635-.082.078,0,.467.119.594,1.211,1.238,2.446,2.454,3.679,3.671a4.169,4.169,0,0,1,1.285,2.4c.124.868.222,1.743.269,2.619a1.015,1.015,0,0,0,.593.964,3.49,3.49,0,0,1,1.586,4.348,3.531,3.531,0,0,1-3.5,2.233,3.524,3.524,0,0,1-3.141-2.432,3.454,3.454,0,0,1,1.245-3.886,1.068,1.068,0,0,0,.455-1.039,5.03,5.03,0,0,0-2.086-4.556,4.429,4.429,0,0,1-.635-.637c-.664-.7-1.325-1.4-2.01-2.124-.285.261-.458.407-.618.568q-7.551,7.549-15.1,15.1c-1.384,1.385-2.734,2.806-4.164,4.142-.887.829-1.426,2.555-.75,3.492a27.973,27.973,0,0,0,2.43,2.63c1.22-1.207,2.348-2.317,3.47-3.434,1.633-1.626,3.253-3.265,4.895-4.882a1.021,1.021,0,0,0,.332-1.084,3.5,3.5,0,0,1,4.362-4.111,3.563,3.563,0,0,1,2.52,4.136,3.638,3.638,0,0,1-3.941,2.712,1.405,1.405,0,0,0-1.541.525c-.926.988-1.9,1.934-2.86,2.888-1.32,1.31-2.654,2.607-3.972,3.919-.417.415-.8.863-1.163,1.253l3.988,4c.118-.1.263-.209.39-.335,1.163-1.157,2.333-2.308,3.469-3.491.125-.131.095-.463.059-.689a3.379,3.379,0,0,1,.96-3.3,3.643,3.643,0,0,1,3.919-.719,3.494,3.494,0,0,1,1.958,4.076,3.4,3.4,0,0,1-3.737,2.61,1.691,1.691,0,0,0-1.875.707,3.341,3.341,0,0,1-.344.342l-2.9,2.759c.2.236.263.329.342.409q6.709,6.764,13.423,13.524c2,2.008,4.044,3.972,6.04,5.984a2.935,2.935,0,0,0,4.328.061c1.156-1.243,2.393-2.413,3.605-3.6C-712.782-163.824-711.375-165.182-709.832-166.683Zm-2.342-25.829q-.008-.16-.015-.32c-.3-.178-.613-.515-.89-.487a.94.94,0,0,0-.612.712.937.937,0,0,0,.671.653C-712.74-191.949-712.456-192.31-712.174-192.511Zm-24.544,7.218.3.032c.234-.264.6-.5.67-.8a.634.634,0,0,0-.711-.787,1.139,1.139,0,0,0-.718.735C-737.229-185.893-736.884-185.57-736.718-185.294Zm23.273-17.024.007-.307c-.283-.2-.547-.517-.853-.564a.6.6,0,0,0-.693.717,1,1,0,0,0,.672.674C-714.033-201.782-713.734-202.128-713.445-202.317Zm13.809,16.21c.511.033.774-.3.706-.7a1.039,1.039,0,0,0-.629-.707.619.619,0,0,0-.781.694A.65.65,0,0,0-699.636-186.108Zm-26.512-15.54q0,.155,0,.309c.261.2.5.508.787.558.437.076.737-.223.746-.7a.628.628,0,0,0-.729-.715C-725.635-202.149-725.883-201.838-726.148-201.648Zm5.365,16.117c0-.1.008-.205.012-.308-.261-.2-.5-.518-.788-.578a.6.6,0,0,0-.744.674,1,1,0,0,0,.638.707C-721.388-185.011-721.079-185.35-720.784-185.531Zm.837,15.3.329-.009c.18-.27.474-.524.513-.813a.583.583,0,0,0-.716-.69,1.008,1.008,0,0,0-.665.675C-720.5-170.8-720.142-170.509-719.946-170.229Zm-18.006-25.785h.337c.182-.264.474-.51.52-.8a.576.576,0,0,0-.691-.709,1,1,0,0,0-.673.659C-738.479-196.592-738.136-196.3-737.952-196.013Z" transform="translate(761.659 232.403)" fill="#fff" fill-rule="evenodd"/>
      <path id="Path_5" data-name="Path 5" d="M-620.225-266.963l7.319,7.313-1.91,1.791-7.255-7.23Z" transform="translate(646.203 266.963)" fill="#fff" fill-rule="evenodd"/>
      <path id="Path_6" data-name="Path 6" d="M-658.483-213.273l-7.247-7.234,1.947-1.748,7.188,7.223Z" transform="translate(683.806 228.456)" fill="#fff" fill-rule="evenodd"/>
      <path id="Path_7" data-name="Path 7" d="M-388.453-213.74l-1.728-1.756,7.34-7.312,1.688,1.846Z" transform="translate(446.473 228.932)" fill="#fff" fill-rule="evenodd"/>
      <path id="Path_8" data-name="Path 8" d="M-301.634-126.693l-1.758-1.738,7.357-7.293,1.672,1.835Z" transform="translate(371.721 153.926)" fill="#fff" fill-rule="evenodd"/>
      <path id="Path_9" data-name="Path 9" d="M-250.7,102.88l-1.794,1.864-7.309-7.28,1.868-1.862Z" transform="translate(334.178 -45.318)" fill="#fff" fill-rule="evenodd"/>
      <path id="Path_10" data-name="Path 10" d="M-301.079,139.085l7.284,7.276-1.906,1.792-7.2-7.236Z" transform="translate(371.295 -82.77)" fill="#fff" fill-rule="evenodd"/>
      <path id="Path_11" data-name="Path 11" d="M-701.617,182.429l1.8,1.816-7.328,7.276-1.807-1.811Z" transform="translate(721.031 -120.103)" fill="#fff" fill-rule="evenodd"/>
      <path id="Path_12" data-name="Path 12" d="M-346.836-172.546l7.3-7.289,1.812,1.88-7.31,7.309Z" transform="translate(409.14 191.919)" fill="#fff" fill-rule="evenodd"/>
      <path id="Path_13" data-name="Path 13" d="M-750.422,148.208l-1.76-1.8,7.3-7.286,1.781,1.819Z" transform="translate(758.268 -82.799)" fill="#fff" fill-rule="evenodd"/>
      <path id="Path_14" data-name="Path 14" d="M-657.61,225.931l1.795,1.782-7.343,7.334-1.734-1.853Z" transform="translate(683.085 -157.572)" fill="#fff" fill-rule="evenodd"/>
      <path id="Path_15" data-name="Path 15" d="M-347.147,184.3l1.884-1.779L-338,189.8l-1.768,1.871Z" transform="translate(409.408 -120.184)" fill="#fff" fill-rule="evenodd"/>
      <path id="Path_16" data-name="Path 16" d="M-709.038-177.916l1.828-1.818,7.312,7.321-1.826,1.8Z" transform="translate(721.108 191.832)" fill="#fff" fill-rule="evenodd"/>
      <path id="Path_17" data-name="Path 17" d="M-250.842-91.062l-7.325,7.334-1.8-1.926,7.281-7.276Z" transform="translate(334.316 117.067)" fill="#fff" fill-rule="evenodd"/>
      <path id="Path_18" data-name="Path 18" d="M-613.5,271.53l-7.422,7.433-1.985-1.942c1.069-1.044,2.128-2.066,3.174-3.1q1.868-1.851,3.713-3.725c.364-.372.651-.4,1.03-.022C-614.519,270.644-614,271.072-613.5,271.53Z" transform="translate(646.92 -195.441)" fill="#fff" fill-rule="evenodd"/>
      <path id="Path_19" data-name="Path 19" d="M-390.3,227.641l1.765-1.732,7.292,7.317-1.82,1.7Z" transform="translate(446.579 -157.553)" fill="#fff" fill-rule="evenodd"/>
      <path id="Path_20" data-name="Path 20" d="M-744.886-126.827l-7.251-7.266,1.831-1.787,7.249,7.267Z" transform="translate(758.23 154.06)" fill="#fff" fill-rule="evenodd"/>
      <path id="Path_21" data-name="Path 21" d="M-433.756-259.355l7.335-7.35,1.8,1.873-7.282,7.294Z" transform="translate(484.005 266.741)" fill="#fff" fill-rule="evenodd"/>
      <path id="Path_22" data-name="Path 22" d="M-794.152,105.165l-1.915-1.789,7.249-7.234,1.846,1.811Z" transform="translate(796.067 -45.783)" fill="#fff" fill-rule="evenodd"/>
      <path id="Path_23" data-name="Path 23" d="M-786.629-84.8l-1.758,1.852-7.3-7.322,1.881-1.721Z" transform="translate(795.737 116.26)" fill="#fff" fill-rule="evenodd"/>
      <path id="Path_24" data-name="Path 24" d="M-433.89,271.313-432,269.57l7.313,7.272-1.915,1.786Z" transform="translate(484.12 -195.158)" fill="#fff" fill-rule="evenodd"/>
    </g>
  </g>
</svg>
