<svg xmlns="http://www.w3.org/2000/svg" xmlns:xlink="http://www.w3.org/1999/xlink" width="548.013" height="548.017" viewBox="0 0 548.013 548.017">
  <defs>
    <linearGradient id="linear-gradient" x1="0.5" y1="2.319" x2="0.5" y2="1.132" gradientUnits="objectBoundingBox">
      <stop offset="0.015" stop-color="#5f1df2"/>
      <stop offset="1" stop-color="#2393ff"/>

     
    </linearGradient>
    <linearGradient id="linear-gradient-3" x1="0.5" y1="2.319" x2="0.5" y2="1.132" xlink:href="#linear-gradient"/>
    <linearGradient id="linear-gradient-4" x1="0.5" y1="2.319" x2="0.5" y2="1.132" xlink:href="#linear-gradient"/>
    <linearGradient id="linear-gradient-6" x1="0.5" y1="0.609" x2="0.5" y2="-0.55" xlink:href="#linear-gradient"/>
    <linearGradient id="linear-gradient-7" x1="0.5" y1="0.61" x2="0.5" y2="-0.577" xlink:href="#linear-gradient"/>
    <linearGradient id="linear-gradient-11" x1="0.5" y1="0.61" x2="0.5" y2="-0.577" xlink:href="#linear-gradient"/>
    <linearGradient id="linear-gradient-12" x1="0.5" y1="0.61" x2="0.5" y2="-0.577" xlink:href="#linear-gradient"/>
    <linearGradient id="linear-gradient-13" x1="0" y1="0.5" x2="1" y2="0.5" xlink:href="#linear-gradient"/>
    <linearGradient id="linear-gradient-14" x1="0" y1="0.5" x2="1" y2="0.5" xlink:href="#linear-gradient"/>
    <linearGradient id="linear-gradient-15" x1="0" y1="0.5" x2="1" y2="0.5" xlink:href="#linear-gradient"/>
    <linearGradient id="linear-gradient-16" x1="0" y1="0.5" x2="1" y2="0.5" xlink:href="#linear-gradient"/>
    <linearGradient id="linear-gradient-17" x1="0" y1="0.5" x2="1" y2="0.5" xlink:href="#linear-gradient"/>
    <linearGradient id="linear-gradient-18" x1="0" y1="0.5" x2="1" y2="0.5" xlink:href="#linear-gradient"/>
    <linearGradient id="linear-gradient-19" x1="0" y1="0.5" x2="1" y2="0.5" xlink:href="#linear-gradient"/>
    <linearGradient id="linear-gradient-20" x1="0" y1="0.5" x2="1" y2="0.5" xlink:href="#linear-gradient"/>
    <linearGradient id="linear-gradient-21" x1="0" y1="0.5" x2="1" y2="0.5" xlink:href="#linear-gradient"/>
    <linearGradient id="linear-gradient-24" x1="0" y1="0.5" x2="1" y2="0.5" xlink:href="#linear-gradient"/>
    <linearGradient id="linear-gradient-25" x1="0" y1="0.5" x2="1" y2="0.5" xlink:href="#linear-gradient"/>
    <linearGradient id="linear-gradient-26" x1="0" y1="0.5" x2="1" y2="0.5" xlink:href="#linear-gradient"/>
    <linearGradient id="linear-gradient-28" x1="0" y1="0.5" x2="1" y2="0.5" xlink:href="#linear-gradient"/>
    <linearGradient id="linear-gradient-29" x1="0" y1="0.5" x2="1" y2="0.5" xlink:href="#linear-gradient"/>
  </defs>
  <g id="Ideen" transform="translate(-668.464 3.536)">
    <path id="Path_1" data-name="Path 1" d="M714.1,309.8v16.662h-4.059V309.8Z" transform="translate(187.973 -19.527)" fill="url(#linear-gradient)"/>
    <path id="Path_2" data-name="Path 2" d="M727.885,310.841a7.47,7.47,0,0,1,3.051,2.931,9.306,9.306,0,0,1,0,8.7,7.415,7.415,0,0,1-3.063,2.942,9.7,9.7,0,0,1-4.592,1.045h-6.242V309.8h6.242A9.7,9.7,0,0,1,727.885,310.841ZM726.6,321.688a4.767,4.767,0,0,0,1.281-3.561,4.447,4.447,0,0,0-4.865-4.865H721.1v9.683h1.923A4.907,4.907,0,0,0,726.6,321.688Z" transform="translate(187.973 -19.527)" fill="url(#linear-gradient)"/>
    <path id="Path_3" data-name="Path 3" d="M738.352,313.048v3.37h5.436v3.133h-5.436v3.655H744.5v3.252H734.293V309.8H744.5v3.252h-6.146Z" transform="translate(187.973 -19.527)" fill="url(#linear-gradient-3)"/>
    <path id="Path_4" data-name="Path 4" d="M751.193,313.048v3.37h5.434v3.133h-5.434v3.655h6.146v3.252H747.134V309.8h10.205v3.252h-6.146Z" transform="translate(187.973 -19.527)" fill="url(#linear-gradient-4)"/>
    <path id="Path_5" data-name="Path 5" d="M774.879,326.458H770.82l-6.788-10.276v10.276h-4.057V309.8h4.057l6.788,10.325V309.8h4.059Z" transform="translate(187.973 -19.527)" fill="url(#linear-gradient-4)"/>
    <path id="Path_6" data-name="Path 6" d="M687.846,354.512a5.331,5.331,0,0,1-2.315-1.756,4.805,4.805,0,0,1-.914-2.8h4.32a2.083,2.083,0,0,0,.642,1.412,2.054,2.054,0,0,0,1.424.487,2.22,2.22,0,0,0,1.423-.416,1.384,1.384,0,0,0,.522-1.15,1.358,1.358,0,0,0-.416-1.02,3.308,3.308,0,0,0-1.02-.666,16.732,16.732,0,0,0-1.721-.593,19.024,19.024,0,0,1-2.635-1,4.88,4.88,0,0,1-1.757-1.471,4.112,4.112,0,0,1-.735-2.54,4.371,4.371,0,0,1,1.686-3.644,6.925,6.925,0,0,1,4.391-1.317,7,7,0,0,1,4.438,1.317,4.719,4.719,0,0,1,1.8,3.667h-4.391a1.72,1.72,0,0,0-.594-1.27,2.091,2.091,0,0,0-1.4-.463,1.754,1.754,0,0,0-1.188.392,1.508,1.508,0,0,0,.309,2.386,12.584,12.584,0,0,0,2.373.974,22,22,0,0,1,2.623,1.043,5.007,5.007,0,0,1,1.745,1.447,3.886,3.886,0,0,1,.734,2.446,4.792,4.792,0,0,1-.723,2.586,5.06,5.06,0,0,1-2.1,1.852,7.171,7.171,0,0,1-3.251.688A8.543,8.543,0,0,1,687.846,354.512Z" transform="translate(187.973 -19.527)" fill="url(#linear-gradient-6)"/>
    <path id="Path_7" data-name="Path 7" d="M710.061,352h-6.219l-1,2.942H698.6l6.028-16.662h4.7l6.029,16.662h-4.3Zm-1.045-3.133-2.064-6.1-2.041,6.1Z" transform="translate(187.973 -19.527)" fill="url(#linear-gradient-7)"/>
    <path id="Path_8" data-name="Path 8" d="M736.05,338.276v16.662h-4.059v-9.99l-3.728,9.99h-3.274l-3.75-10.015v10.015H717.18V338.276h4.794l4.676,11.536,4.629-11.536Z" transform="translate(187.973 -19.527)" fill="url(#linear-gradient-7)"/>
    <path id="Path_9" data-name="Path 9" d="M757.839,338.276v16.662H753.78v-9.99l-3.728,9.99h-3.275l-3.749-10.015v10.015h-4.059V338.276h4.794l4.675,11.536,4.63-11.536Z" transform="translate(187.973 -19.527)" fill="url(#linear-gradient-7)"/>
    <path id="Path_10" data-name="Path 10" d="M764.815,341.529V344.9h5.436v3.132h-5.436v3.656h6.148v3.25H760.758V338.276h10.205v3.253Z" transform="translate(187.973 -19.527)" fill="url(#linear-gradient-7)"/>
    <path id="Path_11" data-name="Path 11" d="M777.656,351.808h5.316v3.131H773.6V338.277h4.059Z" transform="translate(187.973 -19.527)" fill="url(#linear-gradient-11)"/>
    <path id="Path_12" data-name="Path 12" d="M799.826,354.938h-4.061l-6.788-10.274v10.274h-4.059V338.276h4.059l6.788,10.325V338.276h4.061Z" transform="translate(187.973 -19.527)" fill="url(#linear-gradient-12)"/>
    <g id="Group_2" data-name="Group 2" transform="translate(187.973 -19.527)">
      <g id="Group_1" data-name="Group 1">
        <path id="Path_13" data-name="Path 13" d="M758.743,556.23l-4.243,4.243-4.243-4.243" fill="none" stroke="#999" stroke-miterlimit="10" stroke-width="5"/>
        <line id="Line_1" data-name="Line 1" x1="249.31" y1="249.311" transform="translate(492.496 298.468)" fill="none" stroke="#999" stroke-miterlimit="10" stroke-width="5" stroke-dasharray="11.952 11.952"/>
        <path id="Path_14" data-name="Path 14" d="M488.27,294.243,484.027,290l4.243-4.243" fill="none" stroke="#999" stroke-miterlimit="10" stroke-width="5"/>
        <line id="Line_2" data-name="Line 2" y1="249.31" x2="249.311" transform="translate(496.721 27.996)" fill="none" stroke="#999" stroke-miterlimit="10" stroke-width="5" stroke-dasharray="11.952 11.952"/>
        <path id="Path_15" data-name="Path 15" d="M750.257,23.77l4.243-4.243,4.243,4.243" fill="none" stroke="#999" stroke-miterlimit="10" stroke-width="5"/>
        <line id="Line_3" data-name="Line 3" x2="249.306" y2="249.311" transform="translate(767.194 32.221)" fill="none" stroke="#999" stroke-miterlimit="10" stroke-width="5" stroke-dasharray="11.952 11.952"/>
        <path id="Path_16" data-name="Path 16" d="M1020.73,285.757l4.24,4.243-4.24,4.243" fill="none" stroke="#999" stroke-miterlimit="10" stroke-width="5"/>
        <line id="Line_4" data-name="Line 4" x1="249.312" y2="249.31" transform="translate(762.968 302.694)" fill="none" stroke="#999" stroke-miterlimit="10" stroke-width="5" stroke-dasharray="11.952 11.952"/>
      </g>
    </g>
    <path id="Path_25" data-name="Path 25" d="M727.106,209.113a1.194,1.194,0,0,0,.865-.363,29.082,29.082,0,0,1,3.508-3.041,1.21,1.21,0,0,0,.261-1.69,1.236,1.236,0,0,0-1.691-.261,31.2,31.2,0,0,0-3.81,3.295,1.227,1.227,0,0,0,.867,2.06Z" transform="translate(187.973 -19.527)" fill="url(#linear-gradient-13)"/>
    <path id="Path_26" data-name="Path 26" d="M734.884,203.408a1.238,1.238,0,0,0,.546-.129h.006a28.465,28.465,0,0,1,4.295-1.756,1.217,1.217,0,0,0,.794-1.521,1.236,1.236,0,0,0-1.521-.794,30.815,30.815,0,0,0-4.665,1.908,1.192,1.192,0,0,0-.665,1.078,1.15,1.15,0,0,0,.133.551A1.2,1.2,0,0,0,734.884,203.408Z" transform="translate(187.973 -19.527)" fill="url(#linear-gradient-14)"/>
    <g id="Group_7" data-name="Group 7" transform="translate(187.973 -19.527)">
      <path id="Path_27" data-name="Path 27" d="M721.035,216.885a1.217,1.217,0,0,0,1.611-.563,28.611,28.611,0,0,1,2.357-4,1.212,1.212,0,0,0-1.982-1.394,31,31,0,0,0-2.556,4.343A1.224,1.224,0,0,0,721.035,216.885Z" fill="url(#linear-gradient-15)"/>
    </g>
    <g id="Group_8" data-name="Group 8" transform="translate(187.973 -19.527)">
      <path id="Path_28" data-name="Path 28" d="M774.449,217.382a27.7,27.7,0,0,1,1.491,4.392,1.247,1.247,0,0,0,1.466.885,1.209,1.209,0,0,0,.885-1.462.011.011,0,0,0,0-.005,30.971,30.971,0,0,0-1.611-4.773,1.215,1.215,0,0,0-2.23.963Z" fill="url(#linear-gradient-16)"/>
    </g>
    <path id="Path_29" data-name="Path 29" d="M744.08,200.5a3.738,3.738,0,0,0,.559-.051,24.394,24.394,0,0,1,3.809-.231,2.579,2.579,0,0,0,.862-.077,1.234,1.234,0,0,0,.818-1.124,1.19,1.19,0,0,0-.438-.923,1.675,1.675,0,0,0-1.179-.314,31.943,31.943,0,0,0-4.434.3,1.212,1.212,0,0,0,0,2.423Z" transform="translate(187.973 -19.527)" fill="url(#linear-gradient-17)"/>
    <path id="Path_30" data-name="Path 30" d="M762.218,203.831a28.633,28.633,0,0,1,3.848,2.587,1.233,1.233,0,0,0,1.7-.188,1.214,1.214,0,0,0-.193-1.7,30.93,30.93,0,0,0-4.181-2.816,1.239,1.239,0,0,0-1.647.467A1.226,1.226,0,0,0,762.218,203.831Z" transform="translate(187.973 -19.527)" fill="url(#linear-gradient-18)"/>
    <g id="Group_9" data-name="Group 9" transform="translate(187.973 -19.527)">
      <path id="Path_31" data-name="Path 31" d="M718.7,226.258a1.226,1.226,0,0,0,1.351-1.056,28.939,28.939,0,0,1,.933-4.55,1.211,1.211,0,0,0-.822-1.5,1.234,1.234,0,0,0-1.5.824,30.265,30.265,0,0,0-1.012,4.93A1.279,1.279,0,0,0,718.7,226.258Z" fill="url(#linear-gradient-19)"/>
    </g>
    <path id="Path_32" data-name="Path 32" d="M753.513,200.682a28.762,28.762,0,0,1,4.476,1.211,1.212,1.212,0,0,0,1.553-.727,1.234,1.234,0,0,0-.728-1.551,30.548,30.548,0,0,0-4.864-1.315,1.255,1.255,0,0,0-1.431,1.189A1.212,1.212,0,0,0,753.513,200.682Z" transform="translate(187.973 -19.527)" fill="url(#linear-gradient-20)"/>
    <g id="Group_10" data-name="Group 10" transform="translate(187.973 -19.527)">
      <path id="Path_33" data-name="Path 33" d="M720.158,238.207a1.228,1.228,0,0,0-.7,1.563,30.978,30.978,0,0,0,2.192,4.538,1.222,1.222,0,0,0,1.653.43,1.239,1.239,0,0,0,.438-1.66,28.557,28.557,0,0,1-2.019-4.174A1.234,1.234,0,0,0,720.158,238.207Z" fill="url(#linear-gradient-21)"/>
    </g>
    <g id="Group_11" data-name="Group 11" transform="translate(187.973 -19.527)">
      <path id="Path_34" data-name="Path 34" d="M776.824,237.051a1.232,1.232,0,0,0-1.538.757,28.379,28.379,0,0,1-1.843,4.265,1.2,1.2,0,0,0-.091.921,1.224,1.224,0,0,0,2.225.217c.43-.822.841-1.656,1.21-2.509q.282-.646.525-1.307a3.537,3.537,0,0,0,.336-1.2A1.216,1.216,0,0,0,776.824,237.051Z" fill="url(#linear-gradient-14)"/>
    </g>
    <g id="Group_12" data-name="Group 12" transform="translate(187.973 -19.527)">
      <path id="Path_35" data-name="Path 35" d="M772.268,213.287a1.229,1.229,0,0,0,1.672.363,1.206,1.206,0,0,0,.368-1.666s0,0,0-.006a30.817,30.817,0,0,0-3.06-4,1.253,1.253,0,0,0-1.715-.092,1.234,1.234,0,0,0-.078,1.721A29.118,29.118,0,0,1,772.268,213.287Z" fill="url(#linear-gradient-20)"/>
    </g>
    <g id="Group_13" data-name="Group 13" transform="translate(187.973 -19.527)">
      <path id="Path_36" data-name="Path 36" d="M770.929,245.973a29.14,29.14,0,0,1-3.112,3.447,1.21,1.21,0,1,0,1.65,1.77l.01-.007a30.817,30.817,0,0,0,3.374-3.737,1.154,1.154,0,0,0,.248-.721,1.187,1.187,0,0,0-.473-.976A1.239,1.239,0,0,0,770.929,245.973Z" fill="url(#linear-gradient-24)"/>
    </g>
    <g id="Group_14" data-name="Group 14" transform="translate(187.973 -19.527)">
      <path id="Path_37" data-name="Path 37" d="M776.685,226.262a.928.928,0,0,0,.006.1c.061.775.091,1.557.091,2.314a28.679,28.679,0,0,1-.375,4.627,1.23,1.23,0,0,0,1.042,1.393,1.177,1.177,0,0,0,1.349-1,31.324,31.324,0,0,0,.407-5.016c0-.844-.036-1.69-.1-2.521a1.21,1.21,0,0,0-2.417.1Z" fill="url(#linear-gradient-25)"/>
    </g>
    <path id="Path_38" data-name="Path 38" d="M724.549,248.427a31.042,31.042,0,0,0,3.525,3.6,1.212,1.212,0,0,0,1.591-1.828l-.009-.008a28.47,28.47,0,0,1-3.248-3.313,1.243,1.243,0,0,0-1.7-.158,1.209,1.209,0,0,0-.16,1.7S724.549,248.426,724.549,248.427Z" transform="translate(187.973 -19.527)" fill="url(#linear-gradient-26)"/>
    <g id="Group_15" data-name="Group 15" transform="translate(187.973 -19.527)">
      <path id="Path_39" data-name="Path 39" d="M719.23,235.906a1.238,1.238,0,0,0,1.187-.941,1.443,1.443,0,0,0,.007-.52,27.621,27.621,0,0,1-.563-4.6,1.2,1.2,0,0,0-1.245-1.163H718.6a1.223,1.223,0,0,0-1.162,1.26,30.63,30.63,0,0,0,.611,5A1.21,1.21,0,0,0,719.23,235.906Z" fill="url(#linear-gradient-24)"/>
    </g>
    <path id="Path_40" data-name="Path 40" d="M736.308,257.15a17.29,17.29,0,0,0-.335-2.813,28.182,28.182,0,0,1-2.567-1.4,1.238,1.238,0,0,0-1.665.4,1.213,1.213,0,0,0,.4,1.666A30.355,30.355,0,0,0,736.308,257.15Z" transform="translate(187.973 -19.527)" fill="url(#linear-gradient-28)"/>
    <path id="Path_41" data-name="Path 41" d="M764.187,252.315a28.721,28.721,0,0,1-3.544,2.023,18.94,18.94,0,0,0-.313,2.513,1.291,1.291,0,0,0,.313.044,1.181,1.181,0,0,0,.5-.11,30.675,30.675,0,0,0,4.392-2.458,1.212,1.212,0,0,0-1.351-2.012Z" transform="translate(187.973 -19.527)" fill="url(#linear-gradient-29)"/>
    <g id="Group_16" data-name="Group 16" transform="translate(187.973 -19.527)">
      <path id="Path_42" data-name="Path 42" d="M742.383,239.747a13.177,13.177,0,0,0,1.861.772v.275a2.422,2.422,0,0,0,2.424,2.422h3.283a2.422,2.422,0,0,0,2.423-2.422h0v-.275a13.251,13.251,0,0,0,1.86-.772l.2.2a2.427,2.427,0,0,0,3.428,0l2.322-2.322a2.426,2.426,0,0,0,0-3.427h0l-.2-.194a13.053,13.053,0,0,0,.772-1.861h.274a2.424,2.424,0,0,0,2.424-2.424h0v-3.283a2.423,2.423,0,0,0-2.424-2.422h-.274a13.053,13.053,0,0,0-.772-1.861l.2-.2a2.426,2.426,0,0,0,0-3.427h0l-2.322-2.32a2.423,2.423,0,0,0-3.428,0l-.2.2a13.117,13.117,0,0,0-1.86-.772v-.275a2.423,2.423,0,0,0-2.423-2.423h-3.283a2.422,2.422,0,0,0-2.424,2.423h0v.275a13.319,13.319,0,0,0-1.861.772l-.2-.2a2.423,2.423,0,0,0-3.428,0l-2.32,2.32a2.422,2.422,0,0,0,0,3.427h0l.2.2a12.913,12.913,0,0,0-.771,1.861h-.275a2.423,2.423,0,0,0-2.425,2.422h0v3.283a2.425,2.425,0,0,0,2.425,2.424h.275a13.071,13.071,0,0,0,.771,1.861l-.2.194a2.422,2.422,0,0,0,0,3.427h0l2.32,2.322a2.427,2.427,0,0,0,3.428,0Zm-1.91-1.518-2.32-2.32,1.541-1.542a10.629,10.629,0,0,1-1.929-4.651h-2.177v-3.283h2.177a10.62,10.62,0,0,1,1.929-4.65l-1.541-1.542,2.32-2.321,1.543,1.541a10.612,10.612,0,0,1,4.652-1.929v-2.178h3.283v2.178a10.618,10.618,0,0,1,4.651,1.929l1.542-1.541,2.321,2.321-1.542,1.542a10.59,10.59,0,0,1,1.929,4.65h2.178v3.283h-2.178a10.589,10.589,0,0,1-1.929,4.651l1.542,1.542-2.321,2.32-1.542-1.541a10.624,10.624,0,0,1-4.651,1.93V240.8h-3.283v-2.178a10.608,10.608,0,0,1-4.652-1.93Z" fill="url(#linear-gradient-14)"/>
    </g>
    <g id="Group_17" data-name="Group 17" transform="translate(187.973 -19.527)">
      <path id="Path_43" data-name="Path 43" d="M754.973,228.073a6.664,6.664,0,1,0-6.665,6.663h0A6.671,6.671,0,0,0,754.973,228.073Zm-10.905,0a4.24,4.24,0,1,1,4.241,4.24h0a4.24,4.24,0,0,1-4.241-4.24Z" fill="url(#linear-gradient-14)"/>
    </g>
    <g id="Group_18" data-name="Group 18" transform="translate(187.973 -19.527)">
      <path id="Path_44" data-name="Path 44" d="M759.819,260.784a3.635,3.635,0,0,0-1.939-3.212A20.413,20.413,0,0,1,763.7,243.5a21.808,21.808,0,1,0-31.055-.278,20.966,20.966,0,0,1,6.1,14.35,3.632,3.632,0,0,0,1.308,6.827,3.62,3.62,0,0,0,2.156,4.642,3.683,3.683,0,0,0,.652.172v.66a5.452,5.452,0,0,0,10.9,0v-.66a3.621,3.621,0,0,0,2.81-4.813A3.639,3.639,0,0,0,759.819,260.784Zm-25.434-19.251a19.186,19.186,0,0,1-5.428-14.645,19.38,19.38,0,0,1,17.962-18.15q.707-.05,1.4-.049a19.2,19.2,0,0,1,13.211,5.207,19.429,19.429,0,0,1,6.159,14.164,19.215,19.215,0,0,1-5.7,13.719,22.821,22.821,0,0,0-6.521,15.371H749.52v-7l.309.176a1.21,1.21,0,0,0,1.2,0l2.119-1.211a1.211,1.211,0,1,0-1.2-2.1l-1.519.868-1.52-.868a1.212,1.212,0,0,0-1.2,0l-1.519.868-1.52-.868a1.211,1.211,0,0,0-1.2,2.1l2.121,1.211a1.21,1.21,0,0,0,1.2,0l.308-.176v7h-5.943A23.419,23.419,0,0,0,734.385,241.533Zm16.954,28.338a3.029,3.029,0,0,1-6.058,0v-.605h6.059v.605Zm1.817-3.029h-9.693a1.212,1.212,0,0,1,0-2.424h9.693a1.212,1.212,0,0,1,0,2.424ZM740.434,262a1.212,1.212,0,0,1,0-2.424h15.752a1.212,1.212,0,0,1,0,2.424H740.434Z" fill="url(#linear-gradient-14)"/>
    </g>
    <path id="Path_185" data-name="Path 185" d="M726.65,349.813" transform="translate(187.973 -19.527)" fill="#fff"/>
  </g>
</svg>
