<svg xmlns="http://www.w3.org/2000/svg" xmlns:xlink="http://www.w3.org/1999/xlink" width="548.014" height="548.013" viewBox="0 0 548.014 548.013">
  <defs>
    <linearGradient id="linear-gradient" y1="0.5" x2="1" y2="0.5" gradientUnits="objectBoundingBox">
      <stop offset="0.015" stop-color="#5f1df2"/>
      <stop offset="1" stop-color="#2393ff"/>
    </linearGradient>
    <linearGradient id="linear-gradient-2" x1="0" y1="0.5" x2="1" y2="0.5" xlink:href="#linear-gradient"/>
    <linearGradient id="linear-gradient-3" x1="0" y1="0.5" x2="1" y2="0.5" xlink:href="#linear-gradient"/>
    <linearGradient id="linear-gradient-4" x1="0" y1="0.5" x2="1" y2="0.5" xlink:href="#linear-gradient"/>
    <linearGradient id="linear-gradient-5" x1="0" y1="0.5" x2="1" y2="0.5" xlink:href="#linear-gradient"/>
    <linearGradient id="linear-gradient-6" x1="0" y1="0.5" x2="1" y2="0.5" xlink:href="#linear-gradient"/>
    <linearGradient id="linear-gradient-8" x1="0" y1="0.5" x2="1" y2="0.5" xlink:href="#linear-gradient"/>
    <linearGradient id="linear-gradient-14" x1="0" y1="0.5" x2="1" y2="0.5" xlink:href="#linear-gradient"/>
    <linearGradient id="linear-gradient-15" x1="0" y1="0.499" x2="1" y2="0.499" xlink:href="#linear-gradient"/>
    <linearGradient id="linear-gradient-16" x1="0" y1="0.499" x2="1" y2="0.499" xlink:href="#linear-gradient"/>
    <linearGradient id="linear-gradient-19" x1="0" y1="0.5" x2="1" y2="0.5" xlink:href="#linear-gradient"/>
    <linearGradient id="linear-gradient-21" x1="0" y1="0.5" x2="1" y2="0.5" xlink:href="#linear-gradient"/>
    <linearGradient id="linear-gradient-22" x1="0" y1="0.5" x2="1" y2="0.5" xlink:href="#linear-gradient"/>
    <linearGradient id="linear-gradient-23" x1="0" y1="0.5" x2="1" y2="0.5" xlink:href="#linear-gradient"/>
    <linearGradient id="linear-gradient-24" x1="0" y1="0.5" x2="1" y2="0.5" xlink:href="#linear-gradient"/>
    <linearGradient id="linear-gradient-26" x1="0" y1="0.5" x2="1" y2="0.5" xlink:href="#linear-gradient"/>
    <linearGradient id="linear-gradient-28" x1="0" y1="0.5" x2="1" y2="0.5" xlink:href="#linear-gradient"/>
    <linearGradient id="linear-gradient-31" x1="-37.832" y1="0.5" x2="-15.368" y2="0.5" xlink:href="#linear-gradient"/>
    <linearGradient id="linear-gradient-32" x1="-9.358" y1="0.5" x2="-3.168" y2="0.5" xlink:href="#linear-gradient"/>
    <linearGradient id="linear-gradient-33" x1="-13.362" y1="0.5" x2="-3.795" y2="0.5" xlink:href="#linear-gradient"/>
    <linearGradient id="linear-gradient-34" x1="-14.997" y1="0.5" x2="-3.44" y2="0.5" xlink:href="#linear-gradient"/>
    <linearGradient id="linear-gradient-35" x1="-12.909" y1="0.5" x2="-2.166" y2="0.5" xlink:href="#linear-gradient"/>
    <linearGradient id="linear-gradient-36" x1="-6.386" y1="0.5" x2="-0.196" y2="0.5" xlink:href="#linear-gradient"/>
    <linearGradient id="linear-gradient-37" x1="-9.97" y1="0.5" x2="0.773" y2="0.5" xlink:href="#linear-gradient"/>
    <linearGradient id="linear-gradient-38" x1="-6.062" y1="0.5" x2="1.616" y2="0.5" xlink:href="#linear-gradient"/>
    <linearGradient id="linear-gradient-39" x1="-6.539" y1="0.5" x2="3.055" y2="0.5" xlink:href="#linear-gradient"/>
    <linearGradient id="linear-gradient-40" x1="-14.003" y1="0.5" x2="8.459" y2="0.5" xlink:href="#linear-gradient"/>
    <linearGradient id="linear-gradient-41" x1="-5.58" y1="0.5" x2="5.162" y2="0.5" xlink:href="#linear-gradient"/>
    <linearGradient id="linear-gradient-42" x1="-3.415" y1="0.5" x2="5.223" y2="0.5" xlink:href="#linear-gradient"/>
    <linearGradient id="linear-gradient-43" x1="-3.177" y1="0.5" x2="7.564" y2="0.5" xlink:href="#linear-gradient"/>
    <linearGradient id="linear-gradient-44" x1="-1.207" y1="0.5" x2="6.472" y2="0.5" xlink:href="#linear-gradient"/>
  </defs>
  <g id="Implementieren" transform="translate(-834.464 -475.464)">
    <g id="Group_4" data-name="Group 4" transform="translate(187.973 -19.527)">
      <g id="Group_3" data-name="Group 3">
        <path id="Path_17" data-name="Path 17" d="M924.743,1035.23l-4.243,4.24-4.243-4.24" fill="none" stroke="#999" stroke-miterlimit="10" stroke-width="5"/>
        <line id="Line_5" data-name="Line 5" x1="249.31" y1="249.311" transform="translate(658.496 777.469)" fill="none" stroke="#999" stroke-miterlimit="10" stroke-width="5" stroke-dasharray="11.952 11.952"/>
        <path id="Path_18" data-name="Path 18" d="M654.27,773.242,650.027,769l4.243-4.242" fill="none" stroke="#999" stroke-miterlimit="10" stroke-width="5"/>
        <line id="Line_6" data-name="Line 6" y1="249.311" x2="249.311" transform="translate(662.721 506.996)" fill="none" stroke="#999" stroke-miterlimit="10" stroke-width="5" stroke-dasharray="11.952 11.952"/>
        <path id="Path_19" data-name="Path 19" d="M916.257,502.77l4.243-4.243,4.243,4.243" fill="none" stroke="#999" stroke-miterlimit="10" stroke-width="5"/>
        <line id="Line_7" data-name="Line 7" x2="249.306" y2="249.31" transform="translate(933.194 511.221)" fill="none" stroke="#999" stroke-miterlimit="10" stroke-width="5" stroke-dasharray="11.952 11.952"/>
        <path id="Path_20" data-name="Path 20" d="M1186.73,764.758l4.24,4.242-4.24,4.242" fill="none" stroke="#999" stroke-miterlimit="10" stroke-width="5"/>
        <line id="Line_8" data-name="Line 8" x1="249.312" y2="249.307" transform="translate(928.968 781.693)" fill="none" stroke="#999" stroke-miterlimit="10" stroke-width="5" stroke-dasharray="11.952 11.952"/>
      </g>
    </g>
    <path id="Path_45" data-name="Path 45" d="M892.828,711.527a1.223,1.223,0,1,0,1.729-1.73l-2.969-2.971,2.969-2.971a1.223,1.223,0,0,0-1.729-1.729l-3.836,3.835a1.224,1.224,0,0,0,0,1.73Z" transform="translate(187.973 -19.527)" fill="url(#linear-gradient)"/>
    <path id="Path_46" data-name="Path 46" d="M904.97,706.826,902,709.8a1.223,1.223,0,1,0,1.729,1.73l3.837-3.836a1.223,1.223,0,0,0,0-1.73l-3.837-3.836a1.223,1.223,0,0,0-1.729,1.73Z" transform="translate(187.973 -19.527)" fill="url(#linear-gradient-2)"/>
    <path id="Path_47" data-name="Path 47" d="M896.455,711.8a1.21,1.21,0,0,0,.447.085,1.225,1.225,0,0,0,1.139-.776l3.014-7.672a1.223,1.223,0,1,0-2.277-.9l-3.014,7.672A1.221,1.221,0,0,0,896.455,711.8Z" transform="translate(187.973 -19.527)" fill="url(#linear-gradient-3)"/>
    <path id="Path_48" data-name="Path 48" d="M890.549,719.064h8.243a1.224,1.224,0,1,0,0-2.448h-8.243a1.224,1.224,0,0,0,0,2.448Z" transform="translate(187.973 -19.527)" fill="url(#linear-gradient-4)"/>
    <path id="Path_49" data-name="Path 49" d="M917.775,716.617H903.284a1.224,1.224,0,1,0,0,2.448h14.491a1.224,1.224,0,1,0,0-2.448Z" transform="translate(187.973 -19.527)" fill="url(#linear-gradient-5)"/>
    <path id="Path_50" data-name="Path 50" d="M890.549,724.225h3.513a1.224,1.224,0,0,0,0-2.448h-3.513a1.224,1.224,0,0,0,0,2.448Z" transform="translate(187.973 -19.527)" fill="url(#linear-gradient-6)"/>
    <path id="Path_51" data-name="Path 51" d="M913.3,721.777a1.224,1.224,0,1,0,0,2.448h2.137a1.224,1.224,0,1,0,0-2.448Z" transform="translate(187.973 -19.527)" fill="url(#linear-gradient-6)"/>
    <path id="Path_52" data-name="Path 52" d="M910.079,723a1.223,1.223,0,0,0-1.224-1.223h-10.5a1.224,1.224,0,0,0,0,2.448h10.5A1.224,1.224,0,0,0,910.079,723Z" transform="translate(187.973 -19.527)" fill="url(#linear-gradient-8)"/>
    <path id="Path_53" data-name="Path 53" d="M918.094,723a1.225,1.225,0,0,0,1.224,1.225h4a1.224,1.224,0,1,0,0-2.448h-4A1.223,1.223,0,0,0,918.094,723Z" transform="translate(187.973 -19.527)" fill="url(#linear-gradient-6)"/>
    <path id="Path_54" data-name="Path 54" d="M911.431,707.809h4.225a1.224,1.224,0,1,0,0-2.448h-4.225a1.224,1.224,0,1,0,0,2.448Z" transform="translate(187.973 -19.527)" fill="url(#linear-gradient-6)"/>
    <path id="Path_55" data-name="Path 55" d="M920.386,707.809H946.16a1.224,1.224,0,0,0,0-2.448H920.386a1.224,1.224,0,1,0,0,2.448Z" transform="translate(187.973 -19.527)" fill="url(#linear-gradient-5)"/>
    <path id="Path_56" data-name="Path 56" d="M942.245,710.744H931.8a1.224,1.224,0,0,0,0,2.448h10.44a1.224,1.224,0,0,0,0-2.448Z" transform="translate(187.973 -19.527)" fill="url(#linear-gradient-5)"/>
    <path id="Path_57" data-name="Path 57" d="M927.89,710.744H924.3a1.224,1.224,0,0,0,0,2.448h3.588a1.224,1.224,0,0,0,0-2.448Z" transform="translate(187.973 -19.527)" fill="url(#linear-gradient-6)"/>
    <path id="Path_58" data-name="Path 58" d="M911.431,713.191h8.793a1.224,1.224,0,0,0,0-2.448h-8.793a1.224,1.224,0,1,0,0,2.448Z" transform="translate(187.973 -19.527)" fill="url(#linear-gradient-14)"/>
    <path id="Path_59" data-name="Path 59" d="M908.872,726.9H900.63a1.224,1.224,0,1,0,0,2.447h8.242a1.224,1.224,0,1,0,0-2.447Z" transform="translate(187.973 -19.527)" fill="url(#linear-gradient-15)"/>
    <path id="Path_60" data-name="Path 60" d="M896.882,726.9h-6.333a1.224,1.224,0,0,0,0,2.447h6.333a1.224,1.224,0,1,0,0-2.447Z" transform="translate(187.973 -19.527)" fill="url(#linear-gradient-16)"/>
    <path id="Path_61" data-name="Path 61" d="M923.812,726.9H913.046a1.224,1.224,0,1,0,0,2.447h10.766a1.224,1.224,0,1,0,0-2.447Z" transform="translate(187.973 -19.527)" fill="url(#linear-gradient-16)"/>
    <path id="Path_62" data-name="Path 62" d="M938.372,720.609h-5.887a1.224,1.224,0,1,0,0,2.448h5.887a1.224,1.224,0,0,0,0-2.448Z" transform="translate(187.973 -19.527)" fill="url(#linear-gradient-8)"/>
    <path id="Path_63" data-name="Path 63" d="M948.587,723.057H956.9a1.224,1.224,0,1,0,0-2.448h-8.313a1.224,1.224,0,0,0,0,2.448Z" transform="translate(187.973 -19.527)" fill="url(#linear-gradient-19)"/>
    <path id="Path_64" data-name="Path 64" d="M944.433,720.609h-1.905a1.224,1.224,0,1,0,0,2.448h1.905a1.224,1.224,0,0,0,0-2.448Z" transform="translate(187.973 -19.527)" fill="url(#linear-gradient-6)"/>
    <path id="Path_65" data-name="Path 65" d="M932.485,736.389h5.887a1.224,1.224,0,0,0,0-2.447h-5.887a1.224,1.224,0,1,0,0,2.447Z" transform="translate(187.973 -19.527)" fill="url(#linear-gradient-21)"/>
    <path id="Path_66" data-name="Path 66" d="M948.587,736.389H956.9a1.224,1.224,0,1,0,0-2.447h-8.313a1.224,1.224,0,0,0,0,2.447Z" transform="translate(187.973 -19.527)" fill="url(#linear-gradient-22)"/>
    <path id="Path_67" data-name="Path 67" d="M942.527,736.389h1.905a1.224,1.224,0,1,0,0-2.447h-1.905a1.224,1.224,0,1,0,0,2.447Z" transform="translate(187.973 -19.527)" fill="url(#linear-gradient-23)"/>
    <path id="Path_68" data-name="Path 68" d="M938.372,747.275h-5.887a1.224,1.224,0,1,0,0,2.447h5.887a1.224,1.224,0,0,0,0-2.447Z" transform="translate(187.973 -19.527)" fill="url(#linear-gradient-24)"/>
    <path id="Path_69" data-name="Path 69" d="M956.9,747.275h-8.313a1.224,1.224,0,0,0,0,2.447H956.9a1.224,1.224,0,1,0,0-2.447Z" transform="translate(187.973 -19.527)" fill="url(#linear-gradient-24)"/>
    <path id="Path_70" data-name="Path 70" d="M944.433,747.275h-1.905a1.224,1.224,0,1,0,0,2.447h1.905a1.224,1.224,0,0,0,0-2.447Z" transform="translate(187.973 -19.527)" fill="url(#linear-gradient-26)"/>
    <g id="Group_19" data-name="Group 19" transform="translate(187.973 -19.527)">
      <path id="Path_71" data-name="Path 71" d="M961.413,681.068H888.586a5.392,5.392,0,0,0-5.385,5.386v59.2a5.392,5.392,0,0,0,5.385,5.385h4.6a1.224,1.224,0,1,0,0-2.448h-4.6a2.941,2.941,0,0,1-2.937-2.938v-4.642h44.573v2.108h-.97a2.411,2.411,0,0,0-2.408,2.407v3.063H900.628a1.224,1.224,0,1,0,0,2.448h11.764v4.387h-3.7a4.475,4.475,0,0,0-4.468,4.47v2.643a2.041,2.041,0,0,0,2.038,2.04h37.371a2.041,2.041,0,0,0,2.038-2.04v-2.643a4.475,4.475,0,0,0-4.468-4.47h-3.7v-1.547h22.618a2.407,2.407,0,0,0,2.406-2.405v-.576a5.392,5.392,0,0,0,4.168-5.243l.092-59.2A5.387,5.387,0,0,0,961.413,681.068Zm-32.12,57.03v-5.864h30.8V738.1Zm3.375-8.312v-2.575h24.048v2.575Zm24.048,10.759v2.574H932.668v-2.574Zm-41.877,10.492h12.006v.436a2.409,2.409,0,0,0,2.408,2.4h5.814v1.547H914.838v-4.387Zm26.37,6.834a2.024,2.024,0,0,1,2.021,2.022v2.235H906.675v-2.235a2.025,2.025,0,0,1,2.021-2.022Zm18.883-6.44h-30.8v-5.864h30.8Zm4.167-5.779a2.936,2.936,0,0,1-1.721,2.67v-2.8a2.409,2.409,0,0,0-2.406-2.406h-.97v-2.108h5.1Zm0-7.088H962.5c.025-.139.04-6.372.04-6.372a2.408,2.408,0,0,0-2.406-2.406h-.97v-2.575h.97a2.407,2.407,0,0,0,2.406-2.405V718.86a2.409,2.409,0,0,0-2.406-2.406h-6.91a1.224,1.224,0,0,0,0,2.448h6.87v5.865h-30.8V718.9h16.316a1.224,1.224,0,0,0,0-2.448H929.253a2.411,2.411,0,0,0-2.408,2.406V724.8a2.409,2.409,0,0,0,2.408,2.405h.97v2.575h-.97a2.411,2.411,0,0,0-2.408,2.406s.017,6.233.042,6.372H885.65V697.709h78.609v40.855Zm0-43.3H885.738v-8.811a2.943,2.943,0,0,1,2.938-2.938h72.646a2.941,2.941,0,0,1,2.938,2.938v8.811Z" fill="url(#linear-gradient-5)"/>
    </g>
    <path id="Path_72" data-name="Path 72" d="M892.224,685.765a3.591,3.591,0,1,0,3.591,3.591A3.594,3.594,0,0,0,892.224,685.765Zm0,4.733a1.144,1.144,0,1,1,1.145-1.143A1.144,1.144,0,0,1,892.224,690.5Z" transform="translate(187.973 -19.527)" fill="url(#linear-gradient-28)"/>
    <path id="Path_73" data-name="Path 73" d="M901.365,685.765a3.591,3.591,0,1,0,3.591,3.591A3.595,3.595,0,0,0,901.365,685.765Zm0,4.733a1.144,1.144,0,1,1,1.144-1.143A1.144,1.144,0,0,1,901.365,690.5Z" transform="translate(187.973 -19.527)" fill="url(#linear-gradient-28)"/>
    <path id="Path_74" data-name="Path 74" d="M910.508,685.765a3.591,3.591,0,1,0,3.59,3.591A3.595,3.595,0,0,0,910.508,685.765Zm0,4.733a1.144,1.144,0,1,1,1.143-1.143A1.146,1.146,0,0,1,910.508,690.5Z" transform="translate(187.973 -19.527)" fill="url(#linear-gradient-28)"/>
    <path id="Path_75" data-name="Path 75" d="M835.975,798.243V814.9h-4.058V798.243Z" transform="translate(187.973 -19.527)" fill="url(#linear-gradient-31)"/>
    <path id="Path_76" data-name="Path 76" d="M857.788,798.243V814.9h-4.061v-9.99L850,814.9h-3.275l-3.751-10.017V814.9h-4.059V798.243h4.794l4.677,11.535,4.628-11.535Z" transform="translate(187.973 -19.527)" fill="url(#linear-gradient-32)"/>
    <path id="Path_77" data-name="Path 77" d="M872.739,806.256a4.889,4.889,0,0,1-2.041,1.935,7.2,7.2,0,0,1-3.416.735h-2.518V814.9H860.7V798.243h6.576a7.484,7.484,0,0,1,3.369.689,4.739,4.739,0,0,1,2.065,1.9,5.508,5.508,0,0,1,.687,2.773A5.376,5.376,0,0,1,872.739,806.256ZM868.7,805.15a2.375,2.375,0,0,0,0-3.087,2.426,2.426,0,0,0-1.732-.546h-2.207V805.7h2.207A2.422,2.422,0,0,0,868.7,805.15Z" transform="translate(187.973 -19.527)" fill="url(#linear-gradient-33)"/>
    <path id="Path_78" data-name="Path 78" d="M879.575,811.772h5.316V814.9h-9.376V798.243h4.06Z" transform="translate(187.973 -19.527)" fill="url(#linear-gradient-34)"/>
    <path id="Path_79" data-name="Path 79" d="M890.9,801.494v3.371h5.434V808H890.9v3.655h6.146v3.252H886.836V798.243h10.207v3.251Z" transform="translate(187.973 -19.527)" fill="url(#linear-gradient-35)"/>
    <path id="Path_80" data-name="Path 80" d="M918.548,798.243V814.9h-4.06v-9.99l-3.726,9.99h-3.276l-3.749-10.017V814.9h-4.061V798.243h4.8l4.675,11.535,4.63-11.535Z" transform="translate(187.973 -19.527)" fill="url(#linear-gradient-36)"/>
    <path id="Path_81" data-name="Path 81" d="M925.524,801.494v3.371h5.434V808h-5.434v3.655h6.147v3.252H921.465V798.243h10.206v3.251Z" transform="translate(187.973 -19.527)" fill="url(#linear-gradient-37)"/>
    <path id="Path_82" data-name="Path 82" d="M949.213,814.905h-4.059l-6.788-10.275v10.275h-4.06V798.243h4.06l6.788,10.323V798.243h4.059Z" transform="translate(187.973 -19.527)" fill="url(#linear-gradient-38)"/>
    <path id="Path_83" data-name="Path 83" d="M966.443,798.243v3.251h-4.412V814.9H957.97V801.494h-4.414v-3.251Z" transform="translate(187.973 -19.527)" fill="url(#linear-gradient-39)"/>
    <path id="Path_84" data-name="Path 84" d="M970.242,798.243V814.9h-4.059V798.243Z" transform="translate(187.973 -19.527)" fill="url(#linear-gradient-40)"/>
    <path id="Path_85" data-name="Path 85" d="M977.242,801.494v3.371h5.435V808h-5.435v3.655h6.148v3.252H973.183V798.243H983.39v3.251Z" transform="translate(187.973 -19.527)" fill="url(#linear-gradient-41)"/>
    <path id="Path_86" data-name="Path 86" d="M994.521,814.905l-3.465-6.288h-.972v6.288h-4.061V798.243h6.813a7.5,7.5,0,0,1,3.359.689,4.743,4.743,0,0,1,2.075,1.887,5.254,5.254,0,0,1,.689,2.668,4.947,4.947,0,0,1-.939,2.968,5.054,5.054,0,0,1-2.765,1.854l3.847,6.6h-4.581Zm-4.437-9.162H992.6a2.309,2.309,0,0,0,1.673-.543,2.069,2.069,0,0,0,.556-1.544,2.005,2.005,0,0,0-.556-1.5,2.31,2.31,0,0,0-1.673-.546h-2.516Z" transform="translate(187.973 -19.527)" fill="url(#linear-gradient-42)"/>
    <path id="Path_87" data-name="Path 87" d="M1005.56,801.494v3.371h5.435V808h-5.435v3.655h6.148v3.252H1001.5V798.243h10.207v3.251Z" transform="translate(187.973 -19.527)" fill="url(#linear-gradient-43)"/>
    <path id="Path_88" data-name="Path 88" d="M1029.24,814.905h-4.061l-6.787-10.275v10.275h-4.059V798.243h4.059l6.787,10.323V798.243h4.061Z" transform="translate(187.973 -19.527)" fill="url(#linear-gradient-44)"/>
  </g>
</svg>
