<svg xmlns="http://www.w3.org/2000/svg" xmlns:xlink="http://www.w3.org/1999/xlink" width="548.018" height="548.017" viewBox="0 0 548.018 548.017">
  <defs>
    <linearGradient id="linear-gradient" y1="0.5" x2="1" y2="0.5" gradientUnits="objectBoundingBox">
   <stop offset="0.015" stop-color="rgba(0, 130, 255, 1)"/>
      <stop offset="1" stop-color="rgba(79, 5, 245, 1)"/>
    </linearGradient>
    <linearGradient id="linear-gradient-3" x1="0" y1="0.5" x2="1" y2="0.5" xlink:href="#linear-gradient"/>
    <linearGradient id="linear-gradient-4" x1="0" y1="0.5" x2="1" y2="0.5" xlink:href="#linear-gradient"/>
    <linearGradient id="linear-gradient-7" x1="0" y1="0.5" x2="1" y2="0.5" xlink:href="#linear-gradient"/>
    <linearGradient id="linear-gradient-10" x1="0" y1="0.5" x2="1" y2="0.5" xlink:href="#linear-gradient"/>
    <linearGradient id="linear-gradient-12" x1="0" y1="0.5" x2="1" y2="0.5" xlink:href="#linear-gradient"/>
    <linearGradient id="linear-gradient-14" x1="0" y1="0.5" x2="1" y2="0.5" xlink:href="#linear-gradient"/>
    <linearGradient id="linear-gradient-16" x1="0" y1="0.5" x2="1" y2="0.5" xlink:href="#linear-gradient"/>
    <linearGradient id="linear-gradient-18" x1="0" y1="0.5" x2="1" y2="0.5" xlink:href="#linear-gradient"/>
    <linearGradient id="linear-gradient-19" x1="0" y1="0.5" x2="1" y2="0.5" xlink:href="#linear-gradient"/>
    <linearGradient id="linear-gradient-20" x1="0" y1="0.5" x2="1" y2="0.5" xlink:href="#linear-gradient"/>
    <linearGradient id="linear-gradient-26" x1="0" y1="0.5" x2="1" y2="0.5" xlink:href="#linear-gradient"/>
    <linearGradient id="linear-gradient-28" x1="0" y1="0.5" x2="1" y2="0.5" xlink:href="#linear-gradient"/>
    <linearGradient id="linear-gradient-29" x1="0" y1="0.5" x2="1" y2="0.5" xlink:href="#linear-gradient"/>
    <linearGradient id="linear-gradient-30" x1="0" y1="0.5" x2="1" y2="0.5" xlink:href="#linear-gradient"/>
    <linearGradient id="linear-gradient-31" x1="0" y1="0.5" x2="1" y2="0.5" xlink:href="#linear-gradient"/>
    <linearGradient id="linear-gradient-32" x1="0" y1="0.5" x2="1" y2="0.5" xlink:href="#linear-gradient"/>
    <linearGradient id="linear-gradient-35" x1="0" y1="0.5" x2="1" y2="0.5" xlink:href="#linear-gradient"/>
    <linearGradient id="linear-gradient-38" x1="0" y1="0.5" x2="1" y2="0.5" xlink:href="#linear-gradient"/>
    <linearGradient id="linear-gradient-39" x1="0" y1="0.5" x2="1" y2="0.5" xlink:href="#linear-gradient"/>
    <linearGradient id="linear-gradient-40" x1="0" y1="0.5" x2="1" y2="0.5" xlink:href="#linear-gradient"/>
    <linearGradient id="linear-gradient-44" x1="0" y1="0.5" x2="1" y2="0.5" xlink:href="#linear-gradient"/>
    <linearGradient id="linear-gradient-45" x1="0" y1="0.5" x2="1" y2="0.5" xlink:href="#linear-gradient"/>
    <linearGradient id="linear-gradient-46" x1="0" y1="0.5" x2="1" y2="0.5" xlink:href="#linear-gradient"/>
    <linearGradient id="linear-gradient-47" x1="0" y1="0.5" x2="1.001" y2="0.5" xlink:href="#linear-gradient"/>
    <linearGradient id="linear-gradient-49" x1="0" y1="0.5" x2="1" y2="0.5" xlink:href="#linear-gradient"/>
    <linearGradient id="linear-gradient-50" x1="0" y1="0.5" x2="1" y2="0.5" xlink:href="#linear-gradient"/>
    <linearGradient id="linear-gradient-51" x1="0" y1="0.5" x2="1" y2="0.5" xlink:href="#linear-gradient"/>
    <linearGradient id="linear-gradient-53" x1="-3.175" y1="1.907" x2="6.994" y2="-2.383" xlink:href="#linear-gradient"/>
    <linearGradient id="linear-gradient-54" x1="-3.869" y1="2.398" x2="6.006" y2="-1.892" xlink:href="#linear-gradient"/>
    <linearGradient id="linear-gradient-55" x1="-3.596" y1="2.772" x2="3.96" y2="-1.418" xlink:href="#linear-gradient"/>
    <linearGradient id="linear-gradient-56" x1="-5.801" y1="3.225" x2="3.914" y2="-1.066" xlink:href="#linear-gradient"/>
    <linearGradient id="linear-gradient-57" x1="-9.507" y1="3.617" x2="4.266" y2="-0.673" xlink:href="#linear-gradient"/>
    <linearGradient id="linear-gradient-58" x1="-9.572" y1="3.916" x2="3.08" y2="-0.375" xlink:href="#linear-gradient"/>
    <linearGradient id="linear-gradient-59" x1="-5.644" y1="4.352" x2="1.199" y2="0.062" xlink:href="#linear-gradient"/>
    <linearGradient id="linear-gradient-60" x1="-1.009" y1="1.249" x2="6.631" y2="-3.041" xlink:href="#linear-gradient"/>
    <linearGradient id="linear-gradient-61" x1="-3.074" y1="1.712" x2="9.578" y2="-2.579" xlink:href="#linear-gradient"/>
    <linearGradient id="linear-gradient-62" x1="-3.125" y1="2.075" x2="6.75" y2="-2.215" xlink:href="#linear-gradient"/>
    <linearGradient id="linear-gradient-63" x1="-4.169" y1="2.404" x2="6.098" y2="-1.785" xlink:href="#linear-gradient"/>
    <linearGradient id="linear-gradient-64" x1="-4.945" y1="2.758" x2="5.074" y2="-1.532" xlink:href="#linear-gradient"/>
    <linearGradient id="linear-gradient-65" x1="-7.344" y1="3.16" x2="5.308" y2="-1.13" xlink:href="#linear-gradient"/>
    <linearGradient id="linear-gradient-66" x1="-5.84" y1="3.54" x2="3.107" y2="-0.75" xlink:href="#linear-gradient"/>
    <linearGradient id="linear-gradient-67" x1="-9.608" y1="3.928" x2="3.044" y2="-0.363" xlink:href="#linear-gradient"/>
    <linearGradient id="linear-gradient-68" x1="-7.201" y1="4.314" x2="1.462" y2="0.024" xlink:href="#linear-gradient"/>
  </defs>
  <g id="Problem" transform="translate(-72.491 -307.991)">
    <g id="Group_21" data-name="Group 21">
      <g id="Group_20" data-name="Group 20">
        <path id="Path_105" data-name="Path 105" d="M350.743,848.23l-4.243,4.243-4.243-4.243" fill="none" stroke="#999" stroke-miterlimit="10" stroke-width="5"/>
        <line id="Line_13" data-name="Line 13" x1="249.31" y1="249.31" transform="translate(84.496 590.469)" fill="none" stroke="#999" stroke-miterlimit="10" stroke-width="5" stroke-dasharray="11.952 11.952"/>
        <path id="Path_106" data-name="Path 106" d="M80.27,586.242,76.027,582l4.243-4.242" fill="none" stroke="#999" stroke-miterlimit="10" stroke-width="5"/>
        <line id="Line_14" data-name="Line 14" y1="249.311" x2="249.311" transform="translate(88.721 319.996)" fill="none" stroke="#999" stroke-miterlimit="10" stroke-width="5" stroke-dasharray="11.952 11.952"/>
        <path id="Path_107" data-name="Path 107" d="M342.257,315.77l4.243-4.243,4.243,4.243" fill="none" stroke="#999" stroke-miterlimit="10" stroke-width="5"/>
        <line id="Line_15" data-name="Line 15" x2="249.31" y2="249.31" transform="translate(359.194 324.221)" fill="none" stroke="#999" stroke-miterlimit="10" stroke-width="5" stroke-dasharray="11.952 11.952"/>
        <path id="Path_108" data-name="Path 108" d="M612.73,577.758,616.973,582l-4.243,4.242" fill="none" stroke="#999" stroke-miterlimit="10" stroke-width="5"/>
        <line id="Line_16" data-name="Line 16" x1="249.311" y2="249.311" transform="translate(354.968 594.693)" fill="none" stroke="#999" stroke-miterlimit="10" stroke-width="5" stroke-dasharray="11.952 11.952"/>
      </g>
    </g>
    <path id="Path_109" data-name="Path 109" d="M333.667,537.337a4.219,4.219,0,0,0-3.03,1.283,4.219,4.219,0,0,0-6.06,0,4.174,4.174,0,0,0-4.848-.857v-3.928a9.091,9.091,0,1,0-8.485,0v13.909l-3.281,3.281a1.207,1.207,0,0,0-.354.857V564a1.206,1.206,0,0,0,.354.857l3.281,3.281v3.135a1.212,1.212,0,0,0,1.212,1.212h21.816a1.212,1.212,0,0,0,1.213-1.212v-.709l2.068-2.071a1.2,1.2,0,0,0,.355-.856V541.58A4.247,4.247,0,0,0,333.667,537.337ZM308.82,525.823a6.666,6.666,0,1,1,10.909,5.143v-3.931a4.243,4.243,0,0,0-8.485,0v3.931A6.641,6.641,0,0,1,308.82,525.823Zm26.665,41.314-2.069,2.069a1.208,1.208,0,0,0-.355.858H313.668v-2.426a1.2,1.2,0,0,0-.355-.855l-3.281-3.281V552.385l3.281-3.281a1.209,1.209,0,0,0,.355-.857V527.036a1.818,1.818,0,0,1,3.636,0v21.211h2.424v-6.666a1.817,1.817,0,1,1,3.635,0v6.666h2.424v-6.666a1.817,1.817,0,1,1,3.635,0v6.666h2.424v-6.666a1.818,1.818,0,0,1,3.636,0v25.556Z" fill="url(#linear-gradient)"/>
    <path id="Path_110" data-name="Path 110" d="M307.607,511.884h12.121a1.214,1.214,0,0,0,1.029-1.856l-6.06-9.7a1.262,1.262,0,0,0-2.056,0l-6.06,9.7a1.214,1.214,0,0,0-.031,1.231A1.2,1.2,0,0,0,307.607,511.884Zm6.06-8.621,3.874,6.2h-7.748Z" fill="url(#linear-gradient)"/>
    <path id="Path_111" data-name="Path 111" d="M343.886,540.864l-2.419.153c.05.773.073,1.559.076,2.354l2.424-.016C343.963,542.516,343.938,541.682,343.886,540.864Z" fill="url(#linear-gradient-3)"/>
    <path id="Path_112" data-name="Path 112" d="M341.428,548.16l2.422.1c.032-.812.064-1.628.087-2.438l-2.423-.068C341.491,546.554,341.459,547.359,341.428,548.16Z" fill="url(#linear-gradient-4)"/>
    <path id="Path_113" data-name="Path 113" d="M346.289,526.2l1.047-2.186,2.187,1.046-1.046,2.186Z" fill="url(#linear-gradient)"/>
    <path id="Path_114" data-name="Path 114" d="M345.163,522.962q-1.1-.54-2.152-1.074l-1.1,2.159q1.064.542,2.189,1.093Z" fill="url(#linear-gradient)"/>
    <path id="Path_115" data-name="Path 115" d="M337.935,502.085l-1.228-2.091a12.324,12.324,0,0,0-2.153,1.6l1.654,1.774A9.921,9.921,0,0,1,337.935,502.085Z" fill="url(#linear-gradient-7)"/>
    <path id="Path_116" data-name="Path 116" d="M334.4,526.536c-.728-.363-1.507-.708-2.312-1.026l-.89,2.254c.741.293,1.457.61,2.123.942Z" fill="url(#linear-gradient-7)"/>
    <path id="Path_117" data-name="Path 117" d="M373.064,545.26c.433.653.837,1.32,1.2,1.984l2.125-1.166c-.4-.725-.837-1.45-1.308-2.16Z" fill="url(#linear-gradient)"/>
    <path id="Path_118" data-name="Path 118" d="M342.03,500.746l-.274-2.407a13.163,13.163,0,0,0-2.6.561l.75,2.3A10.728,10.728,0,0,1,342.03,500.746Z" fill="url(#linear-gradient-10)"/>
    <path id="Path_119" data-name="Path 119" d="M346.98,498.671a16.932,16.932,0,0,0-2.583-.388l-.166,2.419a14.343,14.343,0,0,1,2.2.331Z" fill="url(#linear-gradient)"/>
    <path id="Path_120" data-name="Path 120" d="M378.39,550.756a23.363,23.363,0,0,0-.884-2.4l-2.227.958a21.279,21.279,0,0,1,.792,2.148Z" fill="url(#linear-gradient-12)"/>
    <path id="Path_121" data-name="Path 121" d="M372.164,526.469a10.107,10.107,0,0,1-1.957-.909l-1.247,2.08a12.688,12.688,0,0,0,2.419,1.124Z" fill="url(#linear-gradient-12)"/>
    <path id="Path_122" data-name="Path 122" d="M350.61,502.629l1.211-2.1a14.322,14.322,0,0,0-1.3-.664q-.537-.236-1.066-.438l-.861,2.265c.314.12.63.25.945.391A11.345,11.345,0,0,1,350.61,502.629Z" fill="url(#linear-gradient-14)"/>
    <path id="Path_123" data-name="Path 123" d="M366.915,522.631l-1.873,1.54a17.537,17.537,0,0,0,1.792,1.888l1.622-1.8A15.059,15.059,0,0,1,366.915,522.631Z" fill="url(#linear-gradient-7)"/>
    <path id="Path_124" data-name="Path 124" d="M364.532,533.391l-1.4,1.979c.244.173.485.345.724.521q.6.442,1.175.89l1.493-1.907q-.6-.474-1.233-.935C365.041,533.752,364.787,533.572,364.532,533.391Z" fill="url(#linear-gradient-16)"/>
    <path id="Path_125" data-name="Path 125" d="M370.2,541.574c.527.586,1.033,1.189,1.5,1.794l1.912-1.491c-.505-.646-1.046-1.294-1.609-1.923Z" fill="url(#linear-gradient)"/>
    <path id="Path_126" data-name="Path 126" d="M333.118,513.343l-2.374.5a8.028,8.028,0,0,0,1.073,2.612l2.056-1.285A5.563,5.563,0,0,1,333.118,513.343Z" fill="url(#linear-gradient-18)"/>
    <path id="Path_127" data-name="Path 127" d="M366.846,538.283q.9.79,1.727,1.6l1.7-1.731c-.582-.57-1.192-1.137-1.83-1.693Z" fill="url(#linear-gradient-19)"/>
    <path id="Path_128" data-name="Path 128" d="M356.7,509.215l2.084-1.238c-.459-.774-.906-1.466-1.364-2.117l-1.981,1.4C355.855,507.857,356.267,508.495,356.7,509.215Z" fill="url(#linear-gradient-20)"/>
    <path id="Path_129" data-name="Path 129" d="M354.018,505.463l1.813-1.61a17.689,17.689,0,0,0-1.858-1.816l-1.556,1.859A15.367,15.367,0,0,1,354.018,505.463Z" fill="url(#linear-gradient)"/>
    <path id="Path_130" data-name="Path 130" d="M350.658,528.3q1.074.522,2.161,1.067l1.087-2.166c-.732-.369-1.464-.727-2.188-1.082Z" fill="url(#linear-gradient)"/>
    <path id="Path_131" data-name="Path 131" d="M362.238,519.965c.445.793.869,1.5,1.3,2.149l2.024-1.333c-.4-.6-.792-1.26-1.209-2Z" fill="url(#linear-gradient-19)"/>
    <path id="Path_132" data-name="Path 132" d="M358.928,513.415l2.175-1.073c-.364-.739-.733-1.472-1.114-2.194l-2.145,1.131C358.215,511.98,358.574,512.7,358.928,513.415Z" fill="url(#linear-gradient-14)"/>
    <path id="Path_133" data-name="Path 133" d="M354.958,530.464q1.057.554,2.11,1.135l1.178-2.117c-.717-.4-1.44-.788-2.162-1.167Z" fill="url(#linear-gradient-19)"/>
    <path id="Path_134" data-name="Path 134" d="M339.731,522.891l1.172-2.122c-.714-.4-1.4-.79-2.04-1.191l-1.28,2.059C338.262,522.059,338.98,522.477,339.731,522.891Z" fill="url(#linear-gradient-26)"/>
    <path id="Path_135" data-name="Path 135" d="M361.075,517.776l2.162-1.095c-.36-.711-.714-1.433-1.068-2.157l-2.179,1.062C360.35,516.324,360.709,517.056,361.075,517.776Z" fill="url(#linear-gradient)"/>
    <path id="Path_136" data-name="Path 136" d="M363.14,570.084q-.387.074-.773.127l.356,2.4c.285-.041.572-.089.863-.144.555-.1,1.1-.223,1.622-.35l-.575-2.355C364.149,569.879,363.65,569.988,363.14,570.084Z" fill="url(#linear-gradient-28)"/>
    <path id="Path_137" data-name="Path 137" d="M360.381,530.708l-1.239,2.084q1.025.608,2.025,1.251l1.313-2.035Q361.442,531.339,360.381,530.708Z" fill="url(#linear-gradient-29)"/>
    <path id="Path_138" data-name="Path 138" d="M352.572,571.537a19.189,19.189,0,0,0,2.47.771l.563-2.357a16.57,16.57,0,0,1-2.154-.672Z" fill="url(#linear-gradient-30)"/>
    <path id="Path_139" data-name="Path 139" d="M336.941,518.273a16.429,16.429,0,0,1-1.719-1.458l-1.7,1.725a18.935,18.935,0,0,0,1.973,1.676Z" fill="url(#linear-gradient-31)"/>
    <path id="Path_140" data-name="Path 140" d="M359.625,570.415a13.163,13.163,0,0,1-1.791-.089l-.246,2.412a19.773,19.773,0,0,0,2,.1c.183,0,.38,0,.573-.008l-.067-2.423C359.94,570.414,359.784,570.415,359.625,570.415Z" fill="url(#linear-gradient-32)"/>
    <path id="Path_141" data-name="Path 141" d="M376.606,553.675a16.261,16.261,0,0,1,.236,2.241l2.423-.081a18.56,18.56,0,0,0-.271-2.579Z" fill="url(#linear-gradient)"/>
    <path id="Path_142" data-name="Path 142" d="M366.846,569.111l.8,2.289a23,23,0,0,0,2.364-.971l-1.046-2.188A20.773,20.773,0,0,1,366.846,569.111Z" fill="url(#linear-gradient-30)"/>
    <path id="Path_143" data-name="Path 143" d="M376.274,560.295l2.313.723a15.1,15.1,0,0,0,.558-2.573l-2.4-.3A12.625,12.625,0,0,1,376.274,560.295Z" fill="url(#linear-gradient-35)"/>
    <path id="Path_144" data-name="Path 144" d="M374.228,564.164l1.9,1.5a14.445,14.445,0,0,0,1.444-2.211l-2.145-1.133A11.753,11.753,0,0,1,374.228,564.164Z" fill="url(#linear-gradient)"/>
    <path id="Path_145" data-name="Path 145" d="M370.933,567.134l1.327,2.028a16.951,16.951,0,0,0,2.068-1.583l-1.618-1.8A15.019,15.019,0,0,1,370.933,567.134Z" fill="url(#linear-gradient-14)"/>
    <path id="Path_146" data-name="Path 146" d="M348.062,569a18.248,18.248,0,0,0,2.167,1.428l1.187-2.113a15.9,15.9,0,0,1-1.876-1.236Z" fill="url(#linear-gradient-38)"/>
    <path id="Path_147" data-name="Path 147" d="M335.328,529.829a18.181,18.181,0,0,1,1.848,1.324l1.537-1.875a20.526,20.526,0,0,0-2.094-1.5Z" fill="url(#linear-gradient-39)"/>
    <path id="Path_148" data-name="Path 148" d="M329.708,524.676a25.164,25.164,0,0,0-2.478-.648l-.458,2.38c.008,0,.9.177,2.221.584Z" fill="url(#linear-gradient-40)"/>
    <path id="Path_149" data-name="Path 149" d="M334.806,505l-2-1.368a12.715,12.715,0,0,0-1.267,2.354l2.244.919A10.223,10.223,0,0,1,334.806,505Z" fill="url(#linear-gradient-14)"/>
    <path id="Path_150" data-name="Path 150" d="M340.614,531.113l-1.854,1.563a9.26,9.26,0,0,1,1.177,1.789l2.162-1.1A11.749,11.749,0,0,0,340.614,531.113Z" fill="url(#linear-gradient)"/>
    <path id="Path_151" data-name="Path 151" d="M333.162,509l-2.38-.46a14.557,14.557,0,0,0-.26,2.627l2.424.022A12.432,12.432,0,0,1,333.162,509Z" fill="url(#linear-gradient-3)"/>
    <path id="Path_152" data-name="Path 152" d="M343.744,555.422l-2.422.117c.045.921.119,1.746.229,2.526l2.4-.339C343.851,557.021,343.784,556.27,343.744,555.422Z" fill="url(#linear-gradient-44)"/>
    <path id="Path_153" data-name="Path 153" d="M344.438,559.892l-2.312.728a16.38,16.38,0,0,0,.982,2.424l2.167-1.086A14.288,14.288,0,0,1,344.438,559.892Z" fill="url(#linear-gradient-45)"/>
    <path id="Path_154" data-name="Path 154" d="M344.455,565.275a17.565,17.565,0,0,0,1.667,2l1.74-1.689a14.881,14.881,0,0,1-1.433-1.718Z" fill="url(#linear-gradient-46)"/>
    <path id="Path_155" data-name="Path 155" d="M343.063,535.823l-2.326.684a17.178,17.178,0,0,1,.483,2.209l2.4-.372A19.66,19.66,0,0,0,343.063,535.823Z" fill="url(#linear-gradient-47)"/>
    <path id="Path_156" data-name="Path 156" d="M343.754,550.675l-2.423-.085c-.027.83-.051,1.65-.054,2.461l2.424.014C343.706,552.279,343.727,551.481,343.754,550.675Z" fill="url(#linear-gradient-3)"/>
    <path id="Path_157" data-name="Path 157" d="M379.118,531.277v-30.3a1.21,1.21,0,0,0-1.626-1.137l-13.333,4.848a1.21,1.21,0,0,0,0,2.276l12.534,4.559v19.756h-4.848V533.7h9.7v-2.425Zm-2.424-28.57v6.236l-8.574-3.119Z" fill="url(#linear-gradient-49)"/>
    <path id="Path_158" data-name="Path 158" d="M344.679,513.1l-2.78,2.78,1.715,1.714,2.779-2.779,2.779,2.779,1.714-1.714-2.78-2.78,2.78-2.778-1.714-1.715-2.779,2.779-2.779-2.779-1.715,1.715Z" fill="url(#linear-gradient-50)"/>
    <path id="Path_159" data-name="Path 159" d="M368.565,544.965l-2.779,2.779-2.78-2.779-1.714,1.713,2.78,2.779-2.78,2.781,1.714,1.713,2.78-2.779,2.779,2.779,1.714-1.713-2.779-2.781,2.779-2.779Z" fill="url(#linear-gradient-51)"/>
    <path id="Path_160" data-name="Path 160" d="M354.877,553.094a6.061,6.061,0,1,0,6.061,6.062A6.068,6.068,0,0,0,354.877,553.094Zm0,9.7a3.636,3.636,0,1,1,3.637-3.636A3.641,3.641,0,0,1,354.877,562.791Z" fill="url(#linear-gradient)"/>
    <path id="Path_161" data-name="Path 161" d="M297.112,610.933a4.887,4.887,0,0,1-2.041,1.934,7.177,7.177,0,0,1-3.417.735h-2.516v5.983h-4.059V602.923h6.574a7.48,7.48,0,0,1,3.37.688,4.73,4.73,0,0,1,2.066,1.9,5.526,5.526,0,0,1,.688,2.777A5.373,5.373,0,0,1,297.112,610.933Zm-4.034-1.1a2.374,2.374,0,0,0,0-3.086,2.423,2.423,0,0,0-1.733-.547h-2.207v4.18h2.207A2.423,2.423,0,0,0,293.078,609.829Z" fill="url(#linear-gradient-53)"/>
    <path id="Path_162" data-name="Path 162" d="M308.386,619.585l-3.465-6.291h-.973v6.291h-4.059V602.923H306.7a7.5,7.5,0,0,1,3.358.688,4.73,4.73,0,0,1,2.077,1.887,5.254,5.254,0,0,1,.688,2.669,4.957,4.957,0,0,1-.938,2.967,5.046,5.046,0,0,1-2.765,1.852l3.845,6.6h-4.58Zm-4.438-9.163h2.515a2.3,2.3,0,0,0,1.674-.545,2.064,2.064,0,0,0,.558-1.543,2,2,0,0,0-.558-1.495,2.3,2.3,0,0,0-1.674-.547h-2.515Z" fill="url(#linear-gradient-54)"/>
    <path id="Path_163" data-name="Path 163" d="M318.936,618.659a8.179,8.179,0,0,1-3.109-3.05,8.971,8.971,0,0,1,0-8.8,8.2,8.2,0,0,1,3.109-3.037,9.051,9.051,0,0,1,8.616,0,8.036,8.036,0,0,1,3.085,3.037,9.1,9.1,0,0,1-.012,8.8,8.126,8.126,0,0,1-3.086,3.05,9.032,9.032,0,0,1-8.6,0Zm7.5-3.941a5.762,5.762,0,0,0,0-7.037,4.107,4.107,0,0,0-3.192-1.317,4.157,4.157,0,0,0-3.216,1.3,5.8,5.8,0,0,0,0,7.062,4.132,4.132,0,0,0,3.216,1.317A4.089,4.089,0,0,0,326.436,614.718Z" fill="url(#linear-gradient-55)"/>
    <path id="Path_164" data-name="Path 164" d="M346.433,612.475a4.368,4.368,0,0,1-.582,5.887,6.163,6.163,0,0,1-4.071,1.224h-7.761V602.924h7.5a6.139,6.139,0,0,1,3.976,1.164,4.213,4.213,0,0,1,.664,5.6,4,4,0,0,1-2.052,1.354A3.866,3.866,0,0,1,346.433,612.475Zm-8.355-2.811h2.659a2.343,2.343,0,0,0,1.53-.441,1.574,1.574,0,0,0,.534-1.293,1.614,1.614,0,0,0-.534-1.3,2.31,2.31,0,0,0-1.53-.452h-2.659Zm4.569,6.181a1.639,1.639,0,0,0,.558-1.341,1.716,1.716,0,0,0-.582-1.376,2.376,2.376,0,0,0-1.6-.5h-2.943v3.68h2.991A2.416,2.416,0,0,0,342.647,615.845Z" fill="url(#linear-gradient-56)"/>
    <path id="Path_165" data-name="Path 165" d="M353.719,616.451h5.317v3.134h-9.375V602.923h4.059v13.528Z" fill="url(#linear-gradient-57)"/>
    <path id="Path_166" data-name="Path 166" d="M365.041,606.173v3.372h5.435v3.131h-5.435v3.656h6.147v3.253H360.982V602.923h10.206v3.25Z" fill="url(#linear-gradient-58)"/>
    <path id="Path_167" data-name="Path 167" d="M392.691,602.923v16.662h-4.059v-9.992l-3.728,9.992h-3.275l-3.75-10.018v10.018H373.82V602.923h4.794l4.677,11.533,4.628-11.533Z" fill="url(#linear-gradient-59)"/>
    <path id="Path_168" data-name="Path 168" d="M288.415,631.4,282.5,648.065h-5.079l-5.91-16.662h4.32l4.13,12.578,4.154-12.578Z" fill="url(#linear-gradient-60)"/>
    <path id="Path_169" data-name="Path 169" d="M294.157,634.655v3.37h5.435v3.133h-5.435v3.655h6.148v3.252H290.1V631.4h10.207v3.252h-6.148Z" fill="url(#linear-gradient-61)"/>
    <path id="Path_170" data-name="Path 170" d="M311.437,648.065l-3.465-6.289H307v6.289H302.94V631.4h6.813a7.511,7.511,0,0,1,3.358.688,4.745,4.745,0,0,1,2.076,1.887,5.262,5.262,0,0,1,.688,2.669,4.962,4.962,0,0,1-.938,2.968,5.042,5.042,0,0,1-2.765,1.853l3.845,6.6h-4.58ZM307,638.9h2.515a2.3,2.3,0,0,0,1.673-.545,2.064,2.064,0,0,0,.558-1.544,2,2,0,0,0-.558-1.493,2.3,2.3,0,0,0-1.673-.547H307Z" fill="url(#linear-gradient-62)"/>
    <path id="Path_171" data-name="Path 171" d="M321.168,647.638a5.339,5.339,0,0,1-2.315-1.757,4.792,4.792,0,0,1-.914-2.8h4.32a2.089,2.089,0,0,0,.641,1.411,2.062,2.062,0,0,0,1.424.486,2.21,2.21,0,0,0,1.423-.415,1.383,1.383,0,0,0,.522-1.149,1.358,1.358,0,0,0-.416-1.021,3.326,3.326,0,0,0-1.021-.666,16.326,16.326,0,0,0-1.72-.593,18.859,18.859,0,0,1-2.635-1,4.886,4.886,0,0,1-1.757-1.473,4.1,4.1,0,0,1-.735-2.54,4.37,4.37,0,0,1,1.685-3.644,6.931,6.931,0,0,1,4.392-1.316,7.013,7.013,0,0,1,4.438,1.316,4.719,4.719,0,0,1,1.8,3.667h-4.391a1.724,1.724,0,0,0-.593-1.27,2.089,2.089,0,0,0-1.4-.461,1.755,1.755,0,0,0-1.188.39,1.417,1.417,0,0,0-.451,1.127,1.4,1.4,0,0,0,.76,1.259,12.263,12.263,0,0,0,2.373.974,21.63,21.63,0,0,1,2.623,1.045,4.975,4.975,0,0,1,1.745,1.447,3.879,3.879,0,0,1,.735,2.445,4.787,4.787,0,0,1-.724,2.585,5.064,5.064,0,0,1-2.1,1.854,7.2,7.2,0,0,1-3.252.687A8.556,8.556,0,0,1,321.168,647.638Z" fill="url(#linear-gradient-63)"/>
    <path id="Path_172" data-name="Path 172" d="M345,631.4v3.252h-4.414v13.41h-4.059v-13.41h-4.415V631.4Z" fill="url(#linear-gradient-64)"/>
    <path id="Path_173" data-name="Path 173" d="M351.1,634.655v3.37h5.435v3.133H351.1v3.655h6.147v3.252H347.038V631.4h10.206v3.252H351.1Z" fill="url(#linear-gradient-65)"/>
    <path id="Path_174" data-name="Path 174" d="M374.308,631.4v16.662h-4.059v-6.859h-6.313v6.859h-4.059V631.4h4.059v6.527h6.313V631.4Z" fill="url(#linear-gradient-66)"/>
    <path id="Path_175" data-name="Path 175" d="M381.286,634.655v3.37h5.435v3.133h-5.435v3.655h6.148v3.252H377.227V631.4h10.207v3.252h-6.148Z" fill="url(#linear-gradient-67)"/>
    <path id="Path_176" data-name="Path 176" d="M404.973,648.065h-4.059l-6.788-10.277v10.277h-4.059V631.4h4.059l6.788,10.324V631.4h4.059Z" fill="url(#linear-gradient-68)"/>
    <path id="Path_177" data-name="Path 177" d="M387.434,611.254" fill="#fff" stroke="#707070" stroke-miterlimit="10" stroke-width="1"/>
    <path id="Path_178" data-name="Path 178" d="M335.485,570.566" fill="#fff" stroke="#707070" stroke-miterlimit="10" stroke-width="1"/>
  </g>
</svg>
