<svg xmlns="http://www.w3.org/2000/svg" xmlns:xlink="http://www.w3.org/1999/xlink" width="548.009" height="548.016" viewBox="0 0 548.009 548.016">
  <defs>
    <linearGradient id="linear-gradient" x1="-2.289" y1="1.595" x2="3.827" y2="-0.966" gradientUnits="objectBoundingBox">
      <stop offset="0.015" stop-color="#5f1df2"/>
      <stop offset="1" stop-color="#2393ff"/>
    </linearGradient>
    <linearGradient id="linear-gradient-2" x1="-13.567" y1="1.915" x2="11.895" y2="-0.646" xlink:href="#linear-gradient"/>
    <linearGradient id="linear-gradient-3" x1="-4.773" y1="2.104" x2="3.442" y2="-0.396" xlink:href="#linear-gradient"/>
    <linearGradient id="linear-gradient-4" x1="-18.117" y1="2.372" x2="7.35" y2="-0.189" xlink:href="#linear-gradient"/>
    <linearGradient id="linear-gradient-5" x1="-4.563" y1="2.594" x2="1.485" y2="0.093" xlink:href="#linear-gradient"/>
    <linearGradient id="linear-gradient-6" x1="-6.35" y1="3.03" x2="0.583" y2="0.469" xlink:href="#linear-gradient"/>
    <linearGradient id="linear-gradient-7" x1="0.051" y1="0.614" x2="10.177" y2="-1.947" xlink:href="#linear-gradient"/>
    <linearGradient id="linear-gradient-8" x1="-0.678" y1="0.935" x2="6.256" y2="-1.626" xlink:href="#linear-gradient"/>
    <linearGradient id="linear-gradient-9" x1="-1.944" y1="1.226" x2="6.075" y2="-1.335" xlink:href="#linear-gradient"/>
    <linearGradient id="linear-gradient-10" x1="-1.523" y1="1.64" x2="2.818" y2="-0.921" xlink:href="#linear-gradient"/>
    <linearGradient id="linear-gradient-11" x1="-14.648" y1="2.024" x2="10.813" y2="-0.537" xlink:href="#linear-gradient"/>
    <linearGradient id="linear-gradient-12" x1="-3.927" y1="2.26" x2="2.42" y2="-0.254" xlink:href="#linear-gradient"/>
    <linearGradient id="linear-gradient-13" x1="-5.481" y1="2.667" x2="1.588" y2="0.106" xlink:href="#linear-gradient"/>
    <linearGradient id="linear-gradient-14" x1="-9.268" y1="2.97" x2="0.859" y2="0.409" xlink:href="#linear-gradient"/>
    <linearGradient id="linear-gradient-15" x1="-11.267" y1="3.233" x2="-0.243" y2="0.672" xlink:href="#linear-gradient"/>
    <linearGradient id="linear-gradient-16" x1="-7.709" y1="3.531" x2="-0.775" y2="0.971" xlink:href="#linear-gradient"/>
    <linearGradient id="linear-gradient-17" x1="0" y1="0.5" x2="1" y2="0.5" xlink:href="#linear-gradient"/>
    <linearGradient id="linear-gradient-19" x1="0" y1="0.5" x2="1" y2="0.5" xlink:href="#linear-gradient"/>
    <linearGradient id="linear-gradient-20" x1="0" y1="0.5" x2="1" y2="0.5" xlink:href="#linear-gradient"/>
    <linearGradient id="linear-gradient-21" x1="0" y1="0.5" x2="1" y2="0.5" xlink:href="#linear-gradient"/>
    <linearGradient id="linear-gradient-22" x1="0" y1="0.5" x2="1.001" y2="0.5" xlink:href="#linear-gradient"/>
  </defs>
  <g id="Vision" transform="translate(-1277.599 -173.465)">
    <g id="Group_5" data-name="Group 5" transform="translate(187.973 -19.527)">
      <path id="Path_21" data-name="Path 21" d="M1367.88,733.23l-4.25,4.243-4.24-4.243" fill="none" stroke="#999" stroke-miterlimit="10" stroke-width="5"/>
      <line id="Line_9" data-name="Line 9" x1="249.31" y1="249.311" transform="translate(1101.63 475.468)" fill="none" stroke="#999" stroke-miterlimit="10" stroke-width="5" stroke-dasharray="11.952 11.952"/>
      <path id="Path_22" data-name="Path 22" d="M1097.4,471.243,1093.16,467l4.24-4.243" fill="none" stroke="#999" stroke-miterlimit="10" stroke-width="5"/>
      <line id="Line_10" data-name="Line 10" y1="249.31" x2="249.31" transform="translate(1105.85 204.996)" fill="none" stroke="#999" stroke-miterlimit="10" stroke-width="5" stroke-dasharray="11.952 11.952"/>
      <path id="Path_23" data-name="Path 23" d="M1359.39,200.77l4.24-4.243,4.25,4.243" fill="none" stroke="#999" stroke-miterlimit="10" stroke-width="5"/>
      <line id="Line_11" data-name="Line 11" x2="249.31" y2="249.311" transform="translate(1376.33 209.221)" fill="none" stroke="#999" stroke-miterlimit="10" stroke-width="5" stroke-dasharray="11.952 11.952"/>
      <path id="Path_24" data-name="Path 24" d="M1629.86,462.757,1634.1,467l-4.24,4.243" fill="none" stroke="#999" stroke-miterlimit="10" stroke-width="5"/>
      <line id="Line_12" data-name="Line 12" x1="249.31" y2="249.31" transform="translate(1372.1 479.694)" fill="none" stroke="#999" stroke-miterlimit="10" stroke-width="5" stroke-dasharray="11.952 11.952"/>
    </g>
    <path id="Path_89" data-name="Path 89" d="M1338.21,478.379l-6.232,17.573h-5.357l-6.233-17.573h4.556l4.356,13.268,4.381-13.268Z" transform="translate(187.973 -19.527)" fill="url(#linear-gradient)"/>
    <path id="Path_90" data-name="Path 90" d="M1344.27,478.379v17.573h-4.281V478.379Z" transform="translate(187.973 -19.527)" fill="url(#linear-gradient-2)"/>
    <path id="Path_91" data-name="Path 91" d="M1350.28,495.5a5.629,5.629,0,0,1-2.441-1.853,5.061,5.061,0,0,1-.963-2.954h4.556a2.207,2.207,0,0,0,.676,1.489,2.169,2.169,0,0,0,1.5.514,2.349,2.349,0,0,0,1.5-.438,1.465,1.465,0,0,0,.551-1.214,1.439,1.439,0,0,0-.438-1.077,3.515,3.515,0,0,0-1.076-.7,17.334,17.334,0,0,0-1.814-.626,19.725,19.725,0,0,1-2.779-1.052,5.133,5.133,0,0,1-1.852-1.552,4.323,4.323,0,0,1-.776-2.679,4.611,4.611,0,0,1,1.777-3.843,7.306,7.306,0,0,1,4.631-1.389,7.387,7.387,0,0,1,4.681,1.389,4.974,4.974,0,0,1,1.9,3.868h-4.632a1.815,1.815,0,0,0-.625-1.34,2.21,2.21,0,0,0-1.477-.488,1.84,1.84,0,0,0-1.252.413,1.492,1.492,0,0,0-.477,1.189,1.476,1.476,0,0,0,.8,1.327,13.188,13.188,0,0,0,2.5,1.026,23.136,23.136,0,0,1,2.767,1.1,5.272,5.272,0,0,1,1.84,1.526,4.091,4.091,0,0,1,.776,2.579,5.063,5.063,0,0,1-.764,2.729,5.353,5.353,0,0,1-2.216,1.952,7.583,7.583,0,0,1-3.429.726A9.037,9.037,0,0,1,1350.28,495.5Z" transform="translate(187.973 -19.527)" fill="url(#linear-gradient-3)"/>
    <path id="Path_92" data-name="Path 92" d="M1367.05,478.379v17.573h-4.28V478.379Z" transform="translate(187.973 -19.527)" fill="url(#linear-gradient-4)"/>
    <path id="Path_93" data-name="Path 93" d="M1373.92,494.976a8.619,8.619,0,0,1-3.279-3.217,9.471,9.471,0,0,1,0-9.275,8.649,8.649,0,0,1,3.279-3.2,9.545,9.545,0,0,1,9.088,0,8.453,8.453,0,0,1,3.254,3.2,9.6,9.6,0,0,1-.012,9.275,8.556,8.556,0,0,1-3.255,3.217,9.519,9.519,0,0,1-9.075,0Zm7.91-4.156a6.076,6.076,0,0,0,0-7.422,4.329,4.329,0,0,0-3.366-1.39,4.379,4.379,0,0,0-3.393,1.377,6.116,6.116,0,0,0,0,7.447,4.361,4.361,0,0,0,3.393,1.39A4.3,4.3,0,0,0,1381.83,490.82Z" transform="translate(187.973 -19.527)" fill="url(#linear-gradient-5)"/>
    <path id="Path_94" data-name="Path 94" d="M1405.55,495.952h-4.281l-7.16-10.839v10.839h-4.279V478.379h4.279l7.16,10.89v-10.89h4.281Z" transform="translate(187.973 -19.527)" fill="url(#linear-gradient-6)"/>
    <path id="Path_95" data-name="Path 95" d="M1288.61,511.849V515.4h5.732v3.3h-5.732v3.854h6.483v3.43h-10.765V508.42h10.765v3.43h-6.483Z" transform="translate(187.973 -19.527)" fill="url(#linear-gradient-7)"/>
    <path id="Path_96" data-name="Path 96" d="M1313.59,525.992h-4.281l-7.159-10.839v10.839h-4.28V508.419h4.28l7.159,10.89v-10.89h4.281Z" transform="translate(187.973 -19.527)" fill="url(#linear-gradient-8)"/>
    <path id="Path_97" data-name="Path 97" d="M1329.34,508.419v3.43h-4.656v14.144H1320.4V511.849h-4.656v-3.43h13.593Z" transform="translate(187.973 -19.527)" fill="url(#linear-gradient-9)"/>
    <path id="Path_98" data-name="Path 98" d="M1355.67,508.419l-4.581,17.573h-5.182l-2.8-11.565-2.9,11.565h-5.182l-4.455-17.573h4.58l2.529,12.792,3.129-12.792h4.706l3,12.792,2.554-12.792Z" transform="translate(187.973 -19.527)" fill="url(#linear-gradient-10)"/>
    <path id="Path_99" data-name="Path 99" d="M1362.1,508.419v17.573h-4.281V508.419Z" transform="translate(187.973 -19.527)" fill="url(#linear-gradient-11)"/>
    <path id="Path_100" data-name="Path 100" d="M1365.61,512.537a8.064,8.064,0,0,1,3.143-3.18,9.119,9.119,0,0,1,4.568-1.139,8.746,8.746,0,0,1,5.357,1.652,7.946,7.946,0,0,1,2.979,4.506h-4.707a3.814,3.814,0,0,0-1.488-1.678,4.189,4.189,0,0,0-2.191-.575,4.084,4.084,0,0,0-3.2,1.377,6.128,6.128,0,0,0,0,7.36,4.084,4.084,0,0,0,3.2,1.377,4.178,4.178,0,0,0,2.191-.576,3.789,3.789,0,0,0,1.488-1.677h4.707a7.88,7.88,0,0,1-2.979,4.493,8.783,8.783,0,0,1-5.357,1.64,9.107,9.107,0,0,1-4.568-1.139,8.083,8.083,0,0,1-3.143-3.167,10.111,10.111,0,0,1,0-9.274Z" transform="translate(187.973 -19.527)" fill="url(#linear-gradient-12)"/>
    <path id="Path_101" data-name="Path 101" d="M1394.47,525.992l-5.908-7.761v7.761h-4.279V508.419h4.279v7.71l5.858-7.71h5.032l-6.81,8.611,7.06,8.962Z" transform="translate(187.973 -19.527)" fill="url(#linear-gradient-13)"/>
    <path id="Path_102" data-name="Path 102" d="M1406.01,511.849V515.4h5.733v3.3h-5.733v3.854h6.483v3.43h-10.764V508.42h10.764v3.43h-6.483Z" transform="translate(187.973 -19.527)" fill="url(#linear-gradient-14)"/>
    <path id="Path_103" data-name="Path 103" d="M1419.56,522.688h5.607v3.3h-9.887V508.42h4.279v14.268Z" transform="translate(187.973 -19.527)" fill="url(#linear-gradient-15)"/>
    <path id="Path_104" data-name="Path 104" d="M1442.94,525.992h-4.28l-7.159-10.839v10.839h-4.281V508.419h4.281l7.159,10.89v-10.89h4.28Z" transform="translate(187.973 -19.527)" fill="url(#linear-gradient-16)"/>
    <path id="Path_179" data-name="Path 179" d="M1371.81,430.846a30.965,30.965,0,1,1,21.907-9.058A30.875,30.875,0,0,1,1371.81,430.846Zm0-58.67a27.706,27.706,0,1,0,19.6,8.105A27.628,27.628,0,0,0,1371.81,372.176Z" transform="translate(187.973 -19.527)" fill="url(#linear-gradient-17)"/>
    <path id="Path_180" data-name="Path 180" d="M1371.82,424.339a24.459,24.459,0,1,1,17.3-7.163,24.3,24.3,0,0,1-17.3,7.163Zm0-45.654a21.2,21.2,0,1,0,14.987,6.207,21.063,21.063,0,0,0-14.987-6.207Z" transform="translate(187.973 -19.527)" fill="url(#linear-gradient-17)"/>
    <path id="Path_181" data-name="Path 181" d="M1345.16,428.725a1.631,1.631,0,0,1-1.152-2.784l6.19-6.191a1.631,1.631,0,0,1,2.307,2.3l-6.192,6.192a1.627,1.627,0,0,1-1.153.478Z" transform="translate(187.973 -19.527)" fill="url(#linear-gradient-19)"/>
    <path id="Path_182" data-name="Path 182" d="M1333.39,447.772a4.778,4.778,0,0,1-3.37-1.395l-4.145-4.146a4.761,4.761,0,0,1,.215-6.94l13.57-11.776a3.2,3.2,0,0,1,4.364.144l4.566,4.567a3.2,3.2,0,0,1,.136,4.375l-11.76,13.548a4.783,4.783,0,0,1-3.432,1.62c-.044,0-.094,0-.144,0Zm-1.06-3.7a1.367,1.367,0,0,0,1.109.438,1.483,1.483,0,0,0,1.079-.509l11.76-13.55-4.554-4.487-13.482,11.78a1.5,1.5,0,0,0-.058,2.181Z" transform="translate(187.973 -19.527)" fill="url(#linear-gradient-20)"/>
    <path id="Path_183" data-name="Path 183" d="M1371.81,410.481c-6.685,0-12.938-3.416-17.609-9.618a1.629,1.629,0,0,1,0-1.962c4.672-6.2,10.925-9.618,17.609-9.618s12.937,3.416,17.608,9.618a1.632,1.632,0,0,1,0,1.962C1384.75,407.066,1378.5,410.481,1371.81,410.481Zm-14.22-10.6c3.934,4.742,8.947,7.339,14.229,7.339s10.293-2.6,14.228-7.339c-3.935-4.742-8.947-7.337-14.228-7.337S1361.52,395.141,1357.59,399.881Z" transform="translate(187.973 -19.527)" fill="url(#linear-gradient-21)"/>
    <path id="Path_184" data-name="Path 184" d="M1371.81,404.844a4.964,4.964,0,1,1,4.963-4.963A4.968,4.968,0,0,1,1371.81,404.844Zm0-6.665a1.7,1.7,0,1,0,1.7,1.7A1.706,1.706,0,0,0,1371.81,398.179Z" transform="translate(187.973 -19.527)" fill="url(#linear-gradient-22)"/>
  </g>
</svg>
