<?xml version="1.0" encoding="utf-8"?>
<!-- Generator: Adobe Illustrator 16.0.0, SVG Export Plug-In . SVG Version: 6.00 Build 0)  -->
<!DOCTYPE svg PUBLIC "-//W3C//DTD SVG 1.1//EN" "http://www.w3.org/Graphics/SVG/1.1/DTD/svg11.dtd">
<svg version="1.1" id="Ebene_4" xmlns="http://www.w3.org/2000/svg" xmlns:xlink="http://www.w3.org/1999/xlink" x="0px" y="0px"
	 width="1920px" height="1080px" viewBox="0 0 1920 1080" enable-background="new 0 0 1920 1080" xml:space="preserve">
<g id="Kreis">
	<linearGradient id="SVGID_1_" gradientUnits="userSpaceOnUse" x1="746.5537" y1="539.6626" x2="829.3467" y2="539.6626">
		<stop  offset="0.0146" style="stop-color:#9900FF"/>
		<stop  offset="1" style="stop-color:#2393FF"/>
	</linearGradient>
	<circle fill="url(#SVGID_1_)" cx="787.95" cy="539.663" r="41.396"/>
</g>
<g id="Mehrwerterlebnis">
	<path fill="#FBFF0D" d="M1732.934,454.684c1.215,1.216,3.188,1.216,4.401,0l16.496-16.497c5.472-5.466,5.476-14.334,0.009-19.807
		c-5.063-5.067-13.132-5.499-18.707-1c-6.012-4.867-14.832-3.938-19.697,2.074c-4.514,5.575-4.087,13.661,0.992,18.728
		L1732.934,454.684z M1720.816,422.771c3.038-3.038,7.966-3.038,11.005,0l1.097,1.104c1.236,1.168,3.172,1.168,4.408,0l1.098-1.1
		c3.078-2.941,7.925-2.941,11.003,0c3.041,3.038,3.041,7.964,0.002,11.003c0,0,0,0.001-0.002,0.001l-14.318,14.318l-14.317-14.318
		c-3.033-3.044-3.023-7.97,0.021-11.004C1720.814,422.774,1720.815,422.773,1720.816,422.771z"/>
	<path fill="#26FF9B" d="M1742.915,474.963c0,5.676,5.402,6.941,8.626,7.694c2.967,0.694,3.825,1.06,3.825,1.644
		c0,0.582-1.183,1.557-3.112,1.557c-1.932,0-3.114-1.009-3.114-1.557h-6.225c0.417,4.714,4.577,8.202,9.293,7.785
		c0.015-0.001,0.03-0.002,0.046-0.004c4.714,0.442,8.892-3.022,9.334-7.735c0.001-0.015,0.004-0.03,0.004-0.046
		c0-5.688-5.405-6.951-8.633-7.704c-2.965-0.7-3.819-1.059-3.819-1.634c0-0.576,1.183-1.557,3.114-1.557
		c1.93,0,3.112,1.009,3.112,1.557h6.226c-0.417-4.717-4.577-8.202-9.293-7.785c-0.015,0.002-0.03,0.003-0.045,0.005
		c-4.715-0.443-8.894,3.02-9.336,7.734C1742.916,474.932,1742.915,474.947,1742.915,474.963z"/>
	<path fill="#26FF9B" d="M1730.466,479.632c0,12.033,9.754,21.788,21.788,21.788c12.032,0,21.786-9.755,21.786-21.788
		c0-12.034-9.754-21.788-21.786-21.788C1740.226,457.857,1730.48,467.604,1730.466,479.632z M1767.815,479.632
		c0,8.594-6.969,15.562-15.562,15.562c-8.595,0-15.561-6.968-15.561-15.562c0-8.596,6.966-15.563,15.561-15.563
		C1760.843,464.079,1767.806,471.041,1767.815,479.632z"/>
	<path fill="#FF4A33" d="M1772.632,441.622l-3.771,12.176c-0.52,1.639,0.391,3.388,2.025,3.907c0.975,0.309,2.035,0.121,2.843-0.502
		l9.648-7.373l9.651,7.373c1.36,1.05,3.315,0.798,4.365-0.563c0.621-0.807,0.809-1.87,0.499-2.842l-3.768-12.191l9.816-7.501
		c1.36-1.055,1.604-3.009,0.553-4.367c-0.588-0.754-1.485-1.199-2.44-1.206h-11.97l-3.738-12.069
		c-0.506-1.644-2.242-2.567-3.886-2.064c-0.987,0.304-1.762,1.076-2.064,2.064l-3.732,12.069h-11.96
		c-1.719-0.013-3.122,1.373-3.134,3.091c-0.007,0.988,0.452,1.921,1.244,2.513L1772.632,441.622z M1778.967,434.773
		c1.362,0.003,2.569-0.88,2.978-2.178l1.434-4.672l1.436,4.644c0.409,1.298,1.614,2.182,2.976,2.179h5.065l-4.23,3.234
		c-1.038,0.792-1.471,2.146-1.087,3.392l1.534,4.962l-3.802-2.905c-1.117-0.85-2.663-0.85-3.778,0l-3.805,2.905l1.534-4.962
		c0.386-1.247-0.049-2.601-1.085-3.392l-4.233-3.234L1778.967,434.773z"/>
	<linearGradient id="SVGID_2_" gradientUnits="userSpaceOnUse" x1="1680.123" y1="544.8018" x2="1837.3398" y2="544.8018">
		<stop  offset="0.0146" style="stop-color:#9900FF"/>
		<stop  offset="1" style="stop-color:#2393FF"/>
	</linearGradient>
	
		<path fill-rule="evenodd" clip-rule="evenodd" fill="none" stroke="url(#SVGID_2_)" stroke-width="6" stroke-linecap="round" stroke-linejoin="round" stroke-miterlimit="10" d="
		M1683.123,560.234c0,0.626,0.508,1.137,1.14,1.137h38.759c1.977,0,3.943,0.285,5.838,0.846l39.806,11.729
		c4.069,2.044,8.479,3.059,12.869,3.059c5.747,0,11.463-1.731,16.357-5.142l33.301-23.175c1.428-0.998,2.554-2.434,2.957-4.129
		c0.812-3.419-1.035-6.834-4.354-8.023c-1.65-0.594-3.48-0.427-5.103,0.248l-5.662,2.349c0.247-0.796,0.347-1.646,0.282-2.5
		c-0.225-2.955-2.336-5.49-5.416-6.151c-1.544-0.333-3.16-0.034-4.569,0.68l-6.673,3.377c-0.168-2.228-1.412-4.223-3.342-5.354
		c-1.963-1.146-4.355-1.237-6.398-0.241l-6.643,3.089c1.599-1.681,2.362-3.631,2.267-5.803c-0.144-3.223-0.914-5.345-2.428-6.673
		c-2.506-2.203-6.479-1.866-12.496-1.359c-7.921,0.668-19.887,1.679-35.824-3.027c-7.318-2.161-13.945-2.968-19.696-2.395
		c-4.667,0.464-8.77,1.83-12.204,4.058c-4.249,2.76-6.393,6.14-7.285,7.891l-11.281-5.741c-0.561-0.285-1.244-0.062-1.529,0.5
		c-0.287,0.561-0.063,1.248,0.495,1.532l0.441,0.224l13.061,6.65l0.436-1.223c0.016-0.044,1.711-4.599,7.025-7.997
		c7.094-4.537,17.433-4.99,29.891-1.312c16.35,4.828,28.572,3.795,36.66,3.114c5.242-0.441,9.025-0.763,10.803,0.799
		c1.017,0.893,1.539,2.503,1.653,5.064c0.072,1.639-0.531,3.06-1.847,4.347c-3.72,3.631-12.875,5.91-26.48,6.587
		c-10.438,0.522-19.839-0.104-19.932-0.111l-8.906-0.604l43.277,14.433c7.241,3.342,15.609,3.506,22.977,0.445l30.324-12.586
		c1.287-0.533,2.774-0.544,3.999,0.119c1.63,0.888,2.527,2.535,2.378,4.38c-0.096,1.194-1.084,2.723-2.064,3.408l-33.391,23.237
		c-7.964,5.548-18.331,6.266-26.987,1.876l-0.092-0.048l-43.183-12.722h-41.994h-0.072
		C1683.636,559.099,1683.127,559.606,1683.123,560.234z M1774.526,537.501l-11.737,5.46c-1.068,0.521-2.142,0.975-3.219,1.355
		l-13.709-4.571C1753.563,539.879,1765.318,539.637,1774.526,537.501z M1800.352,535.713l-20.313,10.283
		c-2.487,1.266-5.143,2.108-7.854,2.529l-9.283-3.097c0.292-0.132,0.58-0.268,0.866-0.408l30.13-14.013
		c0.649-0.316,1.328-0.471,2.005-0.471c0.779,0,1.556,0.206,2.263,0.623c1.323,0.773,2.136,2.094,2.228,3.624
		C1800.413,535.098,1800.396,535.406,1800.352,535.713z M1815.39,540.648l-20.912,8.68c-5.87,2.438-12.433,2.647-18.412,0.67
		c1.716-0.492,3.395-1.146,5.009-1.965l29.435-14.909c0.655-0.33,1.348-0.494,2.04-0.494c0.758,0,1.517,0.195,2.211,0.589
		c1.336,0.752,2.17,2.061,2.285,3.59c0.111,1.472-0.506,2.908-1.648,3.835L1815.39,540.648z"/>
</g>
<linearGradient id="Pfeil_1_" gradientUnits="userSpaceOnUse" x1="477" y1="828.5" x2="1034.3828" y2="828.5">
	<stop  offset="0.0146" style="stop-color:#9900FF"/>
	<stop  offset="1" style="stop-color:#2393FF"/>
</linearGradient>
<polygon id="Pfeil" fill="url(#Pfeil_1_)" points="477,836 943,836 943,849.369 1034.383,828.5 943,807.631 943,821 477,821 "/>
<g id="IconeLampe">
	<linearGradient id="SVGID_3_" gradientUnits="userSpaceOnUse" x1="940.9136" y1="463.3232" x2="946.9736" y2="463.3232">
		<stop  offset="0.0146" style="stop-color:#9900FF"/>
		<stop  offset="1" style="stop-color:#2393FF"/>
	</linearGradient>
	<path fill="url(#SVGID_3_)" d="M942.106,466.113c0.325,0.001,0.639-0.129,0.865-0.364c1.086-1.105,2.259-2.122,3.508-3.041
		c0.539-0.395,0.655-1.151,0.26-1.69c-0.403-0.526-1.149-0.641-1.69-0.261c-1.357,0.994-2.631,2.096-3.81,3.295
		c-0.46,0.498-0.43,1.275,0.068,1.735C941.525,465.989,941.808,466.105,942.106,466.113z"/>
	<linearGradient id="SVGID_4_" gradientUnits="userSpaceOnUse" x1="948.6733" y1="458.2832" x2="955.5796" y2="458.2832">
		<stop  offset="0.0146" style="stop-color:#9900FF"/>
		<stop  offset="1" style="stop-color:#2393FF"/>
	</linearGradient>
	<path fill="url(#SVGID_4_)" d="M949.884,460.408c0.189,0,0.376-0.044,0.546-0.128h0.006c1.381-0.702,2.817-1.29,4.294-1.757
		c0.639-0.202,0.993-0.881,0.794-1.52c-0.21-0.631-0.883-0.982-1.521-0.794c-1.605,0.508-3.166,1.147-4.665,1.909
		c-0.41,0.203-0.668,0.622-0.666,1.078c-0.001,0.192,0.044,0.381,0.133,0.551C949.011,460.153,949.428,460.409,949.884,460.408z"/>
	<g>
		<linearGradient id="SVGID_5_" gradientUnits="userSpaceOnUse" x1="935.3496" y1="470.7075" x2="940.2227" y2="470.7075">
			<stop  offset="0.0146" style="stop-color:#9900FF"/>
			<stop  offset="1" style="stop-color:#2393FF"/>
		</linearGradient>
		<path fill="url(#SVGID_5_)" d="M936.035,473.885c0.602,0.283,1.318,0.033,1.611-0.563c0.676-1.396,1.464-2.736,2.357-4.003
			c0.384-0.549,0.249-1.304-0.299-1.688c-0.546-0.38-1.297-0.25-1.682,0.294c-0.968,1.376-1.823,2.828-2.556,4.342
			C935.182,472.872,935.435,473.592,936.035,473.885z"/>
	</g>
	<g>
		<linearGradient id="SVGID_6_" gradientUnits="userSpaceOnUse" x1="989.3613" y1="476.1914" x2="993.3262" y2="476.1914">
			<stop  offset="0.0146" style="stop-color:#9900FF"/>
			<stop  offset="1" style="stop-color:#2393FF"/>
		</linearGradient>
		<path fill="url(#SVGID_6_)" d="M989.449,474.382c0.619,1.419,1.117,2.888,1.491,4.392c0.177,0.636,0.819,1.024,1.466,0.884
			c0.647-0.159,1.044-0.813,0.885-1.461c0-0.001,0-0.003-0.001-0.004c-0.407-1.632-0.945-3.229-1.611-4.773
			c-0.275-0.603-0.979-0.88-1.594-0.63C989.486,473.067,989.206,473.766,989.449,474.382z"/>
	</g>
	<linearGradient id="SVGID_7_" gradientUnits="userSpaceOnUse" x1="957.8867" y1="456.1343" x2="965.1279" y2="456.1343">
		<stop  offset="0.0146" style="stop-color:#9900FF"/>
		<stop  offset="1" style="stop-color:#2393FF"/>
	</linearGradient>
	<path fill="url(#SVGID_7_)" d="M959.081,457.5c0.188-0.002,0.374-0.019,0.558-0.05c1.262-0.176,2.536-0.253,3.809-0.231
		c0.29,0.023,0.582-0.003,0.862-0.078c0.479-0.171,0.802-0.617,0.818-1.124c0-0.358-0.16-0.696-0.438-0.923
		c-0.339-0.249-0.759-0.361-1.179-0.314c-1.482-0.004-2.964,0.095-4.433,0.297c-0.69,0.032-1.222,0.617-1.19,1.307
		c0.004,0.101,0.021,0.203,0.05,0.299C958.112,457.167,958.566,457.492,959.081,457.5z"/>
	<linearGradient id="SVGID_8_" gradientUnits="userSpaceOnUse" x1="976.5967" y1="461.1216" x2="983.0303" y2="461.1216">
		<stop  offset="0.0146" style="stop-color:#9900FF"/>
		<stop  offset="1" style="stop-color:#2393FF"/>
	</linearGradient>
	<path fill="url(#SVGID_8_)" d="M977.218,460.831c1.35,0.757,2.638,1.622,3.848,2.587c0.525,0.406,1.278,0.323,1.702-0.188
		c0.415-0.523,0.329-1.285-0.193-1.702c-1.314-1.051-2.713-1.993-4.181-2.817c-0.586-0.308-1.311-0.103-1.647,0.467
		C976.427,459.765,976.637,460.5,977.218,460.831z"/>
	<g>
		<linearGradient id="SVGID_9_" gradientUnits="userSpaceOnUse" x1="932.6392" y1="479.686" x2="936.0298" y2="479.686">
			<stop  offset="0.0146" style="stop-color:#9900FF"/>
			<stop  offset="1" style="stop-color:#2393FF"/>
		</linearGradient>
		<path fill="url(#SVGID_9_)" d="M933.697,483.258c0.663,0.074,1.263-0.395,1.351-1.056c0.189-1.539,0.501-3.06,0.933-4.549
			c0.188-0.642-0.181-1.315-0.823-1.502c-0.642-0.175-1.305,0.19-1.503,0.824c-0.473,1.613-0.812,3.262-1.012,4.93
			C932.595,482.56,933.05,483.144,933.697,483.258z"/>
	</g>
	<linearGradient id="SVGID_10_" gradientUnits="userSpaceOnUse" x1="967.5186" y1="457.126" x2="974.6074" y2="457.126">
		<stop  offset="0.0146" style="stop-color:#9900FF"/>
		<stop  offset="1" style="stop-color:#2393FF"/>
	</linearGradient>
	<path fill="url(#SVGID_10_)" d="M968.513,457.682c1.522,0.282,3.019,0.688,4.476,1.211c0.63,0.228,1.324-0.099,1.553-0.727
		c0.214-0.629-0.107-1.314-0.728-1.551c-1.583-0.571-3.209-1.011-4.864-1.315c-0.682-0.102-1.315,0.367-1.417,1.047
		c-0.007,0.046-0.012,0.093-0.014,0.141C967.518,457.074,967.937,457.577,968.513,457.682z"/>
	<g>
		<linearGradient id="SVGID_11_" gradientUnits="userSpaceOnUse" x1="934.3857" y1="498.5161" x2="938.9009" y2="498.5161">
			<stop  offset="0.0146" style="stop-color:#9900FF"/>
			<stop  offset="1" style="stop-color:#2393FF"/>
		</linearGradient>
		<path fill="url(#SVGID_11_)" d="M935.158,495.207c-0.617,0.248-0.925,0.94-0.697,1.563c0.606,1.569,1.34,3.086,2.192,4.538
			c0.342,0.569,1.077,0.76,1.654,0.43c0.568-0.347,0.761-1.08,0.437-1.66c-0.785-1.334-1.459-2.73-2.018-4.174
			C936.476,495.288,935.782,494.979,935.158,495.207z"/>
	</g>
	<g>
		<linearGradient id="SVGID_12_" gradientUnits="userSpaceOnUse" x1="988.2998" y1="497.4097" x2="992.6484" y2="497.4097">
			<stop  offset="0.0146" style="stop-color:#9900FF"/>
			<stop  offset="1" style="stop-color:#2393FF"/>
		</linearGradient>
		<path fill="url(#SVGID_12_)" d="M991.824,494.05c-0.633-0.204-1.313,0.131-1.538,0.757c-0.497,1.469-1.113,2.896-1.843,4.265
			c-0.152,0.282-0.186,0.614-0.091,0.921c0.215,0.641,0.908,0.986,1.55,0.772c0.284-0.096,0.524-0.293,0.675-0.555
			c0.43-0.822,0.841-1.656,1.21-2.509c0.188-0.431,0.362-0.867,0.525-1.307c0.183-0.376,0.295-0.784,0.336-1.2
			C992.646,494.678,992.314,494.218,991.824,494.05z"/>
	</g>
	<g>
		<linearGradient id="SVGID_13_" gradientUnits="userSpaceOnUse" x1="984.1396" y1="467.7139" x2="989.4971" y2="467.7139">
			<stop  offset="0.0146" style="stop-color:#9900FF"/>
			<stop  offset="1" style="stop-color:#2393FF"/>
		</linearGradient>
		<path fill="url(#SVGID_13_)" d="M987.268,470.287c0.368,0.553,1.109,0.714,1.672,0.364c0.562-0.359,0.727-1.105,0.368-1.667
			c-0.002-0.001-0.002-0.004-0.003-0.005c-0.909-1.414-1.933-2.751-3.06-3.998c-0.457-0.48-1.209-0.52-1.715-0.092
			c-0.488,0.458-0.523,1.22-0.078,1.721C985.487,467.758,986.428,468.988,987.268,470.287z"/>
	</g>
	<g>
		<linearGradient id="SVGID_14_" gradientUnits="userSpaceOnUse" x1="982.4316" y1="505.5127" x2="988.0986" y2="505.5127">
			<stop  offset="0.0146" style="stop-color:#9900FF"/>
			<stop  offset="1" style="stop-color:#2393FF"/>
		</linearGradient>
		<path fill="url(#SVGID_14_)" d="M985.929,502.973c-0.944,1.229-1.985,2.382-3.112,3.447c-0.489,0.456-0.516,1.223-0.06,1.711
			s1.223,0.515,1.71,0.058c0.003-0.002,0.006-0.004,0.01-0.007c1.224-1.151,2.353-2.401,3.374-3.737
			c0.162-0.205,0.249-0.459,0.248-0.721c0.009-0.382-0.167-0.745-0.473-0.976C987.091,502.358,986.344,502.457,985.929,502.973z"/>
	</g>
	<g>
		<linearGradient id="SVGID_15_" gradientUnits="userSpaceOnUse" x1="991.3936" y1="486.8799" x2="994.2051" y2="486.8799">
			<stop  offset="0.0146" style="stop-color:#9900FF"/>
			<stop  offset="1" style="stop-color:#2393FF"/>
		</linearGradient>
		<path fill="url(#SVGID_15_)" d="M991.685,483.262c0,0.034,0.002,0.069,0.006,0.103c0.061,0.775,0.091,1.557,0.091,2.314
			c0,1.55-0.125,3.098-0.375,4.628c-0.097,0.672,0.37,1.296,1.042,1.393c0.054,0.008,0.104,0.012,0.158,0.013
			c0.593,0.001,1.102-0.431,1.191-1.018c0.27-1.659,0.406-3.336,0.407-5.016c0-0.843-0.036-1.69-0.103-2.52
			c-0.055-0.667-0.639-1.163-1.306-1.108C992.167,482.103,991.683,482.63,991.685,483.262z"/>
	</g>
	<linearGradient id="SVGID_16_" gradientUnits="userSpaceOnUse" x1="939.2686" y1="506.3877" x2="945.0815" y2="506.3877">
		<stop  offset="0.0146" style="stop-color:#9900FF"/>
		<stop  offset="1" style="stop-color:#2393FF"/>
	</linearGradient>
	<path fill="url(#SVGID_16_)" d="M939.549,505.427c1.076,1.293,2.254,2.497,3.525,3.598c0.505,0.439,1.27,0.386,1.708-0.119
		c0.44-0.505,0.387-1.271-0.118-1.709c-0.003-0.002-0.006-0.005-0.009-0.008c-1.171-1.014-2.256-2.122-3.247-3.313
		c-0.436-0.496-1.183-0.565-1.702-0.157c-0.514,0.426-0.586,1.189-0.16,1.704C939.547,505.424,939.548,505.425,939.549,505.427z"/>
	<g>
		<linearGradient id="SVGID_17_" gradientUnits="userSpaceOnUse" x1="932.4365" y1="489.292" x2="935.4443" y2="489.292">
			<stop  offset="0.0146" style="stop-color:#9900FF"/>
			<stop  offset="1" style="stop-color:#2393FF"/>
		</linearGradient>
		<path fill="url(#SVGID_17_)" d="M934.23,492.906c0.564-0.006,1.052-0.394,1.187-0.941c0.035-0.171,0.036-0.347,0.007-0.519
			c-0.316-1.516-0.505-3.056-0.563-4.604c-0.023-0.665-0.58-1.187-1.246-1.164c-0.004,0-0.01,0-0.015,0
			c-0.666,0.034-1.182,0.593-1.163,1.26c0.067,1.68,0.272,3.352,0.612,4.998C933.163,492.499,933.657,492.903,934.23,492.906z"/>
	</g>
	<linearGradient id="SVGID_18_" gradientUnits="userSpaceOnUse" x1="946.561" y1="511.9604" x2="951.3076" y2="511.9604">
		<stop  offset="0.0146" style="stop-color:#9900FF"/>
		<stop  offset="1" style="stop-color:#2393FF"/>
	</linearGradient>
	<path fill="url(#SVGID_18_)" d="M951.308,514.15c-0.035-0.945-0.147-1.885-0.334-2.812c-0.879-0.421-1.737-0.888-2.568-1.399
		c-0.572-0.333-1.307-0.157-1.666,0.4c-0.348,0.569-0.173,1.313,0.395,1.666C948.467,512.826,949.862,513.542,951.308,514.15z"/>
	<linearGradient id="SVGID_19_" gradientUnits="userSpaceOnUse" x1="975.3291" y1="511.5039" x2="981.0693" y2="511.5039">
		<stop  offset="0.0146" style="stop-color:#9900FF"/>
		<stop  offset="1" style="stop-color:#2393FF"/>
	</linearGradient>
	<path fill="url(#SVGID_19_)" d="M979.187,509.315c-1.132,0.757-2.316,1.434-3.544,2.023c-0.16,0.83-0.265,1.668-0.313,2.512
		c0.104,0.028,0.208,0.043,0.313,0.044c0.174,0.001,0.345-0.037,0.503-0.11c1.529-0.698,2.997-1.521,4.392-2.458
		c0.555-0.375,0.699-1.129,0.324-1.683C980.487,509.094,979.74,508.947,979.187,509.315L979.187,509.315z"/>
	<g>
		<linearGradient id="SVGID_20_" gradientUnits="userSpaceOnUse" x1="948.1631" y1="485.0732" x2="978.4541" y2="485.0732">
			<stop  offset="0.0146" style="stop-color:#9900FF"/>
			<stop  offset="1" style="stop-color:#2393FF"/>
		</linearGradient>
		<path fill="url(#SVGID_20_)" d="M957.383,496.747c0.601,0.305,1.222,0.563,1.861,0.772v0.275c0,1.338,1.085,2.423,2.424,2.423l0,0
			h3.283c1.338,0,2.423-1.084,2.423-2.423l0,0v-0.275c0.638-0.209,1.262-0.467,1.86-0.772l0.195,0.196
			c0.947,0.946,2.481,0.946,3.428,0l2.322-2.322c0.945-0.946,0.945-2.48,0-3.427l0,0L974.983,491c0.306-0.6,0.563-1.222,0.772-1.861
			h0.274c1.339,0,2.424-1.085,2.424-2.423l0,0v-3.283c0-1.338-1.085-2.423-2.424-2.423h-0.274c-0.21-0.64-0.467-1.261-0.772-1.861
			l0.196-0.195c0.945-0.946,0.945-2.48,0-3.426c0-0.001,0-0.001,0-0.001l-2.322-2.321c-0.946-0.946-2.48-0.946-3.428,0l-0.195,0.195
			c-0.599-0.304-1.223-0.563-1.86-0.772v-0.275c0-1.338-1.085-2.423-2.423-2.423l0,0h-3.283c-1.339,0-2.424,1.084-2.424,2.423l0,0
			v0.275c-0.639,0.209-1.26,0.468-1.861,0.772l-0.195-0.195c-0.946-0.946-2.48-0.946-3.427,0l-2.321,2.321
			c-0.947,0.947-0.947,2.481,0,3.427v0l0.195,0.195c-0.304,0.6-0.563,1.222-0.771,1.861h-0.275c-1.339,0-2.424,1.084-2.424,2.423
			l0,0v3.283c0,1.338,1.085,2.423,2.424,2.423l0,0h0.275c0.208,0.639,0.467,1.261,0.771,1.861l-0.195,0.195
			c-0.947,0.947-0.947,2.48,0,3.427l0,0l2.321,2.322c0.947,0.946,2.481,0.946,3.427,0L957.383,496.747z M955.473,495.229
			l-2.321-2.321l1.542-1.542c-1.006-1.373-1.669-2.969-1.929-4.651h-2.177v-3.283h2.177c0.26-1.683,0.923-3.278,1.929-4.651
			l-1.542-1.542l2.321-2.321l1.542,1.541c1.374-1.007,2.968-1.668,4.653-1.929v-2.178h3.283v2.178
			c1.683,0.261,3.277,0.922,4.651,1.929l1.542-1.541l2.321,2.321l-1.542,1.542c1.008,1.373,1.669,2.968,1.929,4.651h2.178v3.283
			h-2.178c-0.26,1.683-0.921,3.278-1.929,4.651l1.542,1.542l-2.321,2.321l-1.542-1.542c-1.374,1.007-2.969,1.669-4.651,1.929v2.178
			h-3.283v-2.178c-1.685-0.26-3.279-0.922-4.653-1.929L955.473,495.229z"/>
	</g>
	<g>
		<linearGradient id="SVGID_21_" gradientUnits="userSpaceOnUse" x1="956.6455" y1="485.0728" x2="969.9727" y2="485.0728">
			<stop  offset="0.0146" style="stop-color:#9900FF"/>
			<stop  offset="1" style="stop-color:#2393FF"/>
		</linearGradient>
		<path fill="url(#SVGID_21_)" d="M969.973,485.073c0-3.68-2.983-6.664-6.663-6.665c-3.68,0-6.664,2.983-6.664,6.664
			c-0.001,3.68,2.982,6.664,6.662,6.665c0,0,0,0,0.002,0C966.987,491.732,969.969,488.751,969.973,485.073z M959.068,485.073
			c0-2.341,1.899-4.24,4.239-4.24c2.343-0.001,4.241,1.898,4.241,4.239c0,2.343-1.897,4.241-4.239,4.241l0,0
			C960.967,489.313,959.068,487.416,959.068,485.073L959.068,485.073z"/>
	</g>
	<g>
		<linearGradient id="SVGID_22_" gradientUnits="userSpaceOnUse" x1="941.4946" y1="497.7939" x2="985.1182" y2="497.7939">
			<stop  offset="0.0146" style="stop-color:#9900FF"/>
			<stop  offset="1" style="stop-color:#2393FF"/>
		</linearGradient>
		<path fill="url(#SVGID_22_)" d="M974.819,517.784c-0.001-1.347-0.747-2.583-1.939-3.212c0.052-5.266,2.137-10.31,5.819-14.074
			c4.122-4.078,6.434-9.64,6.419-15.437c-0.008-12.045-9.778-21.804-21.824-21.796c-11.523,0.007-21.054,8.979-21.755,20.482
			c-0.394,6.108,1.826,12.097,6.105,16.473c3.801,3.822,5.984,8.961,6.096,14.35c-1.775,0.934-2.459,3.13-1.525,4.905
			c0.564,1.073,1.626,1.794,2.833,1.922c-0.687,1.878,0.28,3.955,2.156,4.642c0.212,0.077,0.43,0.134,0.652,0.171v0.661
			c0,3.011,2.442,5.452,5.453,5.452c3.011,0,5.451-2.44,5.451-5.452v-0.661c1.972-0.326,3.307-2.188,2.981-4.161
			c-0.036-0.222-0.094-0.44-0.171-0.652C973.417,521.198,974.816,519.642,974.819,517.784z M949.384,498.533
			c-3.804-3.891-5.777-9.214-5.427-14.644c0.591-9.697,8.271-17.458,17.962-18.151c0.471-0.033,0.939-0.049,1.404-0.049
			c4.908-0.016,9.634,1.848,13.211,5.208c3.922,3.667,6.152,8.794,6.159,14.164c0.016,5.153-2.041,10.096-5.704,13.719
			c-4.037,4.116-6.367,9.606-6.521,15.37h-5.948v-6.999l0.309,0.175c0.373,0.213,0.83,0.213,1.202,0l2.119-1.211
			c0.581-0.332,0.784-1.072,0.451-1.653c-0.331-0.58-1.071-0.782-1.652-0.45l-1.519,0.868l-1.52-0.868
			c-0.372-0.213-0.829-0.213-1.203,0l-1.519,0.868l-1.52-0.868c-0.58-0.332-1.321-0.13-1.652,0.45
			c-0.332,0.581-0.13,1.321,0.451,1.653l2.12,1.211c0.372,0.213,0.83,0.213,1.203,0l0.308-0.175v6.999h-5.944
			C955.936,508.28,953.52,502.706,949.384,498.533z M966.339,526.871c0,1.673-1.357,3.029-3.029,3.029
			c-1.674,0-3.029-1.356-3.029-3.029v-0.606h6.059V526.871z M968.156,523.842h-9.693c-0.67,0-1.212-0.542-1.212-1.211
			c0-0.67,0.542-1.212,1.212-1.212h9.693c0.668,0,1.21,0.542,1.21,1.212C969.366,523.299,968.824,523.842,968.156,523.842z
			 M955.434,518.996c-0.668,0-1.212-0.542-1.212-1.212c0-0.669,0.543-1.211,1.212-1.211l0,0h15.752c0.668,0,1.21,0.542,1.21,1.211
			c0,0.669-0.542,1.212-1.21,1.212l0,0H955.434z"/>
	</g>
</g>
<g id="IconMap">
	<linearGradient id="SVGID_23_" gradientUnits="userSpaceOnUse" x1="539.3955" y1="502.6104" x2="570.9087" y2="502.6104">
		<stop  offset="0.0146" style="stop-color:#9900FF"/>
		<stop  offset="1" style="stop-color:#2393FF"/>
	</linearGradient>
	<path fill="url(#SVGID_23_)" d="M566.667,495.337c-1.188,0-2.26,0.493-3.03,1.283c-0.771-0.79-1.842-1.283-3.03-1.283
		c-1.188,0-2.26,0.493-3.03,1.283c-0.771-0.79-1.842-1.283-3.03-1.283c-0.654,0-1.266,0.161-1.818,0.426v-3.928
		c2.962-1.566,4.848-4.614,4.848-8.012c0-5.012-4.078-9.089-9.091-9.089c-5.013,0-9.09,4.077-9.09,9.089
		c0,3.398,1.886,6.446,4.848,8.012v13.908l-3.281,3.281c-0.228,0.227-0.354,0.536-0.354,0.857v12.12c0,0.323,0.127,0.63,0.354,0.857
		l3.281,3.281v3.135c0,0.67,0.543,1.212,1.212,1.212h21.816c0.67,0,1.213-0.542,1.213-1.212v-0.709l2.068-2.071
		c0.228-0.226,0.355-0.534,0.355-0.856V499.58C570.909,497.241,569.005,495.337,566.667,495.337z M541.82,483.823
		c0-3.675,2.99-6.666,6.666-6.666c3.676,0,6.667,2.991,6.667,6.666c0,2.03-0.912,3.898-2.424,5.143v-3.931
		c0-2.339-1.903-4.241-4.243-4.241c-2.339,0-4.242,1.902-4.242,4.241v3.931C542.73,487.722,541.82,485.853,541.82,483.823z
		 M568.485,525.137l-2.069,2.069c-0.228,0.227-0.355,0.534-0.355,0.858h-19.393v-2.425c0-0.322-0.127-0.63-0.355-0.856l-3.281-3.281
		v-11.118l3.281-3.281c0.228-0.227,0.355-0.536,0.355-0.858v-21.21c0-1.003,0.815-1.818,1.818-1.818s1.818,0.815,1.818,1.818v14.545
		v6.666h2.424v-6.666c0-1.003,0.815-1.818,1.818-1.818c1.001,0,1.817,0.815,1.817,1.818v6.666h2.424v-6.666
		c0-1.003,0.816-1.818,1.818-1.818s1.817,0.815,1.817,1.818v6.666h2.424v-6.666c0-1.003,0.816-1.818,1.818-1.818
		s1.818,0.815,1.818,1.818V525.137z"/>
	<linearGradient id="SVGID_24_" gradientUnits="userSpaceOnUse" x1="539.397" y1="463.8428" x2="553.9404" y2="463.8428">
		<stop  offset="0.0146" style="stop-color:#9900FF"/>
		<stop  offset="1" style="stop-color:#2393FF"/>
	</linearGradient>
	<path fill="url(#SVGID_24_)" d="M540.607,469.884h12.121c0.441,0,0.846-0.239,1.06-0.625c0.214-0.385,0.201-0.856-0.031-1.231
		l-6.06-9.696c-0.443-0.707-1.612-0.707-2.056,0l-6.06,9.696c-0.232,0.375-0.246,0.846-0.031,1.231
		C539.761,469.646,540.166,469.884,540.607,469.884z M546.667,461.263l3.874,6.198h-7.748L546.667,461.263z"/>
	<linearGradient id="SVGID_25_" gradientUnits="userSpaceOnUse" x1="574.4673" y1="500.1177" x2="576.9673" y2="500.1177">
		<stop  offset="0.0146" style="stop-color:#9900FF"/>
		<stop  offset="1" style="stop-color:#2393FF"/>
	</linearGradient>
	<path fill="url(#SVGID_25_)" d="M576.886,498.864l-2.419,0.154c0.05,0.772,0.073,1.558,0.076,2.353l2.424-0.016
		C576.963,500.515,576.938,499.682,576.886,498.864z"/>
	<linearGradient id="SVGID_26_" gradientUnits="userSpaceOnUse" x1="574.4282" y1="505.0054" x2="576.9375" y2="505.0054">
		<stop  offset="0.0146" style="stop-color:#9900FF"/>
		<stop  offset="1" style="stop-color:#2393FF"/>
	</linearGradient>
	<path fill="url(#SVGID_26_)" d="M574.428,506.161l2.422,0.098c0.032-0.812,0.064-1.627,0.087-2.438l-2.423-0.069
		C574.491,504.554,574.459,505.359,574.428,506.161z"/>
	<linearGradient id="SVGID_27_" gradientUnits="userSpaceOnUse" x1="579.2891" y1="483.6309" x2="582.5229" y2="483.6309">
		<stop  offset="0.0146" style="stop-color:#9900FF"/>
		<stop  offset="1" style="stop-color:#2393FF"/>
	</linearGradient>
	<polygon fill="url(#SVGID_27_)" points="579.289,484.201 580.336,482.015 582.523,483.061 581.477,485.247 	"/>
	<linearGradient id="SVGID_28_" gradientUnits="userSpaceOnUse" x1="574.9067" y1="481.5137" x2="578.1631" y2="481.5137">
		<stop  offset="0.0146" style="stop-color:#9900FF"/>
		<stop  offset="1" style="stop-color:#2393FF"/>
	</linearGradient>
	<path fill="url(#SVGID_28_)" d="M578.163,480.962c-0.736-0.36-1.455-0.717-2.152-1.074l-1.104,2.159
		c0.709,0.361,1.44,0.727,2.189,1.093L578.163,480.962z"/>
	<linearGradient id="SVGID_29_" gradientUnits="userSpaceOnUse" x1="567.5547" y1="459.6821" x2="570.9351" y2="459.6821">
		<stop  offset="0.0146" style="stop-color:#9900FF"/>
		<stop  offset="1" style="stop-color:#2393FF"/>
	</linearGradient>
	<path fill="url(#SVGID_29_)" d="M570.935,460.085l-1.228-2.091c-0.776,0.455-1.5,0.995-2.153,1.602l1.654,1.774
		C569.731,460.883,570.313,460.451,570.935,460.085z"/>
	<linearGradient id="SVGID_30_" gradientUnits="userSpaceOnUse" x1="564.1958" y1="485.1079" x2="567.3975" y2="485.1079">
		<stop  offset="0.0146" style="stop-color:#9900FF"/>
		<stop  offset="1" style="stop-color:#2393FF"/>
	</linearGradient>
	<path fill="url(#SVGID_30_)" d="M567.397,484.536c-0.728-0.363-1.507-0.708-2.312-1.026l-0.89,2.254
		c0.741,0.293,1.457,0.61,2.123,0.942L567.397,484.536z"/>
	<linearGradient id="SVGID_31_" gradientUnits="userSpaceOnUse" x1="606.064" y1="503.5815" x2="609.3906" y2="503.5815">
		<stop  offset="0.0146" style="stop-color:#9900FF"/>
		<stop  offset="1" style="stop-color:#2393FF"/>
	</linearGradient>
	<path fill="url(#SVGID_31_)" d="M606.064,503.26c0.433,0.653,0.837,1.32,1.202,1.984l2.125-1.167
		c-0.397-0.724-0.837-1.45-1.308-2.16L606.064,503.26z"/>
	<linearGradient id="SVGID_32_" gradientUnits="userSpaceOnUse" x1="572.1533" y1="457.7715" x2="575.0298" y2="457.7715">
		<stop  offset="0.0146" style="stop-color:#9900FF"/>
		<stop  offset="1" style="stop-color:#2393FF"/>
	</linearGradient>
	<path fill="url(#SVGID_32_)" d="M575.03,458.746l-0.274-2.407c-0.896,0.101-1.771,0.29-2.602,0.561l0.75,2.305
		C573.58,458.983,574.295,458.83,575.03,458.746z"/>
	<linearGradient id="SVGID_33_" gradientUnits="userSpaceOnUse" x1="577.231" y1="457.6582" x2="579.98" y2="457.6582">
		<stop  offset="0.0146" style="stop-color:#9900FF"/>
		<stop  offset="1" style="stop-color:#2393FF"/>
	</linearGradient>
	<path fill="url(#SVGID_33_)" d="M579.98,456.671c-0.867-0.199-1.736-0.328-2.583-0.388l-0.166,2.419
		c0.721,0.048,1.464,0.163,2.205,0.331L579.98,456.671z"/>
	<linearGradient id="SVGID_34_" gradientUnits="userSpaceOnUse" x1="608.2793" y1="507.9102" x2="611.3896" y2="507.9102">
		<stop  offset="0.0146" style="stop-color:#9900FF"/>
		<stop  offset="1" style="stop-color:#2393FF"/>
	</linearGradient>
	<path fill="url(#SVGID_34_)" d="M611.39,508.755c-0.244-0.796-0.541-1.601-0.884-2.398l-2.227,0.958
		c0.307,0.714,0.574,1.438,0.792,2.148L611.39,508.755z"/>
	<linearGradient id="SVGID_35_" gradientUnits="userSpaceOnUse" x1="601.9604" y1="485.1611" x2="605.1636" y2="485.1611">
		<stop  offset="0.0146" style="stop-color:#9900FF"/>
		<stop  offset="1" style="stop-color:#2393FF"/>
	</linearGradient>
	<path fill="url(#SVGID_35_)" d="M605.164,484.469c-0.681-0.231-1.338-0.537-1.957-0.909l-1.247,2.08
		c0.763,0.458,1.577,0.836,2.419,1.124L605.164,484.469z"/>
	<linearGradient id="SVGID_36_" gradientUnits="userSpaceOnUse" x1="581.5918" y1="459.0293" x2="584.8213" y2="459.0293">
		<stop  offset="0.0146" style="stop-color:#9900FF"/>
		<stop  offset="1" style="stop-color:#2393FF"/>
	</linearGradient>
	<path fill="url(#SVGID_36_)" d="M583.61,460.629l1.211-2.099c-0.417-0.241-0.852-0.462-1.302-0.664
		c-0.358-0.157-0.713-0.303-1.066-0.438l-0.861,2.265c0.314,0.12,0.63,0.25,0.945,0.391
		C582.909,460.249,583.267,460.431,583.61,460.629z"/>
	<linearGradient id="SVGID_37_" gradientUnits="userSpaceOnUse" x1="598.0425" y1="482.3447" x2="601.4561" y2="482.3447">
		<stop  offset="0.0146" style="stop-color:#9900FF"/>
		<stop  offset="1" style="stop-color:#2393FF"/>
	</linearGradient>
	<path fill="url(#SVGID_37_)" d="M599.915,480.631l-1.873,1.54c0.574,0.698,1.176,1.333,1.792,1.888l1.622-1.801
		C600.93,481.782,600.411,481.237,599.915,480.631z"/>
	<linearGradient id="SVGID_38_" gradientUnits="userSpaceOnUse" x1="596.1323" y1="493.085" x2="599.5239" y2="493.085">
		<stop  offset="0.0146" style="stop-color:#9900FF"/>
		<stop  offset="1" style="stop-color:#2393FF"/>
	</linearGradient>
	<path fill="url(#SVGID_38_)" d="M597.532,491.391l-1.399,1.979c0.244,0.173,0.485,0.345,0.724,0.521
		c0.401,0.295,0.793,0.591,1.175,0.89l1.493-1.907c-0.401-0.316-0.812-0.628-1.233-0.935
		C598.041,491.752,597.787,491.572,597.532,491.391z"/>
	<linearGradient id="SVGID_39_" gradientUnits="userSpaceOnUse" x1="603.1963" y1="499.6611" x2="606.6108" y2="499.6611">
		<stop  offset="0.0146" style="stop-color:#9900FF"/>
		<stop  offset="1" style="stop-color:#2393FF"/>
	</linearGradient>
	<path fill="url(#SVGID_39_)" d="M603.196,499.574c0.527,0.586,1.033,1.189,1.503,1.794l1.912-1.491
		c-0.505-0.647-1.046-1.294-1.609-1.923L603.196,499.574z"/>
	<linearGradient id="SVGID_40_" gradientUnits="userSpaceOnUse" x1="563.7437" y1="472.8975" x2="566.8726" y2="472.8975">
		<stop  offset="0.0146" style="stop-color:#9900FF"/>
		<stop  offset="1" style="stop-color:#2393FF"/>
	</linearGradient>
	<path fill="url(#SVGID_40_)" d="M566.118,471.343l-2.374,0.496c0.187,0.894,0.548,1.773,1.073,2.612l2.056-1.285
		C566.499,472.571,566.246,471.958,566.118,471.343z"/>
	<linearGradient id="SVGID_41_" gradientUnits="userSpaceOnUse" x1="599.8462" y1="496.1689" x2="603.2715" y2="496.1689">
		<stop  offset="0.0146" style="stop-color:#9900FF"/>
		<stop  offset="1" style="stop-color:#2393FF"/>
	</linearGradient>
	<path fill="url(#SVGID_41_)" d="M599.846,496.283c0.603,0.527,1.178,1.058,1.727,1.598l1.698-1.731
		c-0.582-0.57-1.192-1.137-1.83-1.693L599.846,496.283z"/>
	<linearGradient id="SVGID_42_" gradientUnits="userSpaceOnUse" x1="588.4346" y1="465.5371" x2="591.7798" y2="465.5371">
		<stop  offset="0.0146" style="stop-color:#9900FF"/>
		<stop  offset="1" style="stop-color:#2393FF"/>
	</linearGradient>
	<path fill="url(#SVGID_42_)" d="M589.695,467.215l2.084-1.238c-0.459-0.774-0.906-1.466-1.364-2.117l-1.981,1.399
		C588.855,465.857,589.267,466.495,589.695,467.215z"/>
	<linearGradient id="SVGID_43_" gradientUnits="userSpaceOnUse" x1="585.4165" y1="461.75" x2="588.8311" y2="461.75">
		<stop  offset="0.0146" style="stop-color:#9900FF"/>
		<stop  offset="1" style="stop-color:#2393FF"/>
	</linearGradient>
	<path fill="url(#SVGID_43_)" d="M587.018,463.463l1.813-1.61c-0.595-0.67-1.22-1.282-1.858-1.816l-1.556,1.859
		C585.962,462.354,586.501,462.88,587.018,463.463z"/>
	<linearGradient id="SVGID_44_" gradientUnits="userSpaceOnUse" x1="583.6582" y1="485.7412" x2="586.9063" y2="485.7412">
		<stop  offset="0.0146" style="stop-color:#9900FF"/>
		<stop  offset="1" style="stop-color:#2393FF"/>
	</linearGradient>
	<path fill="url(#SVGID_44_)" d="M583.658,486.298c0.716,0.348,1.437,0.704,2.161,1.067l1.087-2.166
		c-0.732-0.369-1.464-0.727-2.188-1.082L583.658,486.298z"/>
	<linearGradient id="SVGID_45_" gradientUnits="userSpaceOnUse" x1="595.2383" y1="478.4463" x2="598.562" y2="478.4463">
		<stop  offset="0.0146" style="stop-color:#9900FF"/>
		<stop  offset="1" style="stop-color:#2393FF"/>
	</linearGradient>
	<path fill="url(#SVGID_45_)" d="M595.238,477.965c0.445,0.793,0.869,1.496,1.299,2.149l2.024-1.333
		c-0.397-0.604-0.792-1.26-1.209-2.003L595.238,477.965z"/>
	<linearGradient id="SVGID_46_" gradientUnits="userSpaceOnUse" x1="590.8442" y1="469.7817" x2="594.1025" y2="469.7817">
		<stop  offset="0.0146" style="stop-color:#9900FF"/>
		<stop  offset="1" style="stop-color:#2393FF"/>
	</linearGradient>
	<path fill="url(#SVGID_46_)" d="M591.928,471.415l2.175-1.073c-0.364-0.739-0.733-1.472-1.114-2.194l-2.145,1.131
		C591.215,469.98,591.574,470.695,591.928,471.415z"/>
	<linearGradient id="SVGID_47_" gradientUnits="userSpaceOnUse" x1="587.9585" y1="487.957" x2="591.2466" y2="487.957">
		<stop  offset="0.0146" style="stop-color:#9900FF"/>
		<stop  offset="1" style="stop-color:#2393FF"/>
	</linearGradient>
	<path fill="url(#SVGID_47_)" d="M587.958,488.464c0.705,0.369,1.41,0.748,2.11,1.135l1.178-2.117
		c-0.717-0.4-1.44-0.788-2.162-1.167L587.958,488.464z"/>
	<linearGradient id="SVGID_48_" gradientUnits="userSpaceOnUse" x1="570.584" y1="479.2339" x2="573.9038" y2="479.2339">
		<stop  offset="0.0146" style="stop-color:#9900FF"/>
		<stop  offset="1" style="stop-color:#2393FF"/>
	</linearGradient>
	<path fill="url(#SVGID_48_)" d="M572.731,480.891l1.172-2.122c-0.714-0.395-1.397-0.79-2.04-1.191l-1.28,2.059
		C571.262,480.059,571.98,480.477,572.731,480.891z"/>
	<linearGradient id="SVGID_49_" gradientUnits="userSpaceOnUse" x1="592.9897" y1="474.1504" x2="596.2368" y2="474.1504">
		<stop  offset="0.0146" style="stop-color:#9900FF"/>
		<stop  offset="1" style="stop-color:#2393FF"/>
	</linearGradient>
	<path fill="url(#SVGID_49_)" d="M594.075,475.776l2.162-1.095c-0.36-0.711-0.714-1.433-1.068-2.157l-2.179,1.062
		C593.35,474.324,593.709,475.056,594.075,475.776z"/>
	<linearGradient id="SVGID_50_" gradientUnits="userSpaceOnUse" x1="595.3667" y1="529.1865" x2="598.2075" y2="529.1865">
		<stop  offset="0.0146" style="stop-color:#9900FF"/>
		<stop  offset="1" style="stop-color:#2393FF"/>
	</linearGradient>
	<path fill="url(#SVGID_50_)" d="M596.14,528.084c-0.258,0.048-0.516,0.09-0.773,0.127l0.356,2.399
		c0.285-0.041,0.572-0.089,0.863-0.144c0.555-0.104,1.095-0.223,1.622-0.35l-0.575-2.355
		C597.149,527.879,596.65,527.988,596.14,528.084z"/>
	<linearGradient id="SVGID_51_" gradientUnits="userSpaceOnUse" x1="592.1421" y1="490.3755" x2="595.4805" y2="490.3755">
		<stop  offset="0.0146" style="stop-color:#9900FF"/>
		<stop  offset="1" style="stop-color:#2393FF"/>
	</linearGradient>
	<path fill="url(#SVGID_51_)" d="M593.381,488.708l-1.239,2.084c0.683,0.405,1.359,0.822,2.025,1.251l1.313-2.035
		C594.788,489.562,594.088,489.128,593.381,488.708z"/>
	<linearGradient id="SVGID_52_" gradientUnits="userSpaceOnUse" x1="585.5723" y1="528.7939" x2="588.606" y2="528.7939">
		<stop  offset="0.0146" style="stop-color:#9900FF"/>
		<stop  offset="1" style="stop-color:#2393FF"/>
	</linearGradient>
	<path fill="url(#SVGID_52_)" d="M585.572,529.538c0.796,0.309,1.626,0.569,2.47,0.771l0.563-2.357
		c-0.736-0.176-1.461-0.402-2.154-0.672L585.572,529.538z"/>
	<linearGradient id="SVGID_53_" gradientUnits="userSpaceOnUse" x1="566.52" y1="476.5166" x2="569.9414" y2="476.5166">
		<stop  offset="0.0146" style="stop-color:#9900FF"/>
		<stop  offset="1" style="stop-color:#2393FF"/>
	</linearGradient>
	<path fill="url(#SVGID_53_)" d="M569.941,476.273c-0.656-0.489-1.234-0.979-1.719-1.458l-1.703,1.725
		c0.564,0.556,1.228,1.121,1.973,1.676L569.941,476.273z"/>
	<linearGradient id="SVGID_54_" gradientUnits="userSpaceOnUse" x1="590.5889" y1="529.583" x2="593.165" y2="529.583">
		<stop  offset="0.0146" style="stop-color:#9900FF"/>
		<stop  offset="1" style="stop-color:#2393FF"/>
	</linearGradient>
	<path fill="url(#SVGID_54_)" d="M592.625,528.415c-0.586,0.021-1.198-0.028-1.791-0.089l-0.246,2.413
		c0.665,0.067,1.339,0.101,2.003,0.101c0.183-0.003,0.38-0.001,0.573-0.007l-0.067-2.423
		C592.94,528.414,592.784,528.415,592.625,528.415z"/>
	<linearGradient id="SVGID_55_" gradientUnits="userSpaceOnUse" x1="609.606" y1="512.5859" x2="612.2651" y2="512.5859">
		<stop  offset="0.0146" style="stop-color:#9900FF"/>
		<stop  offset="1" style="stop-color:#2393FF"/>
	</linearGradient>
	<path fill="url(#SVGID_55_)" d="M609.606,511.675c0.132,0.755,0.211,1.507,0.236,2.241l2.423-0.081
		c-0.028-0.844-0.119-1.711-0.271-2.579L609.606,511.675z"/>
	<linearGradient id="SVGID_56_" gradientUnits="userSpaceOnUse" x1="599.8462" y1="527.8208" x2="603.0088" y2="527.8208">
		<stop  offset="0.0146" style="stop-color:#9900FF"/>
		<stop  offset="1" style="stop-color:#2393FF"/>
	</linearGradient>
	<path fill="url(#SVGID_56_)" d="M599.846,527.111l0.798,2.289c0.821-0.286,1.617-0.613,2.364-0.97l-1.046-2.188
		C601.294,526.561,600.582,526.854,599.846,527.111z"/>
	<linearGradient id="SVGID_57_" gradientUnits="userSpaceOnUse" x1="609.2739" y1="517.5781" x2="612.145" y2="517.5781">
		<stop  offset="0.0146" style="stop-color:#9900FF"/>
		<stop  offset="1" style="stop-color:#2393FF"/>
	</linearGradient>
	<path fill="url(#SVGID_57_)" d="M609.274,518.295l2.313,0.722c0.258-0.83,0.446-1.693,0.558-2.573l-2.405-0.305
		C609.647,516.877,609.489,517.602,609.274,518.295z"/>
	<linearGradient id="SVGID_58_" gradientUnits="userSpaceOnUse" x1="607.228" y1="521.9956" x2="610.5718" y2="521.9956">
		<stop  offset="0.0146" style="stop-color:#9900FF"/>
		<stop  offset="1" style="stop-color:#2393FF"/>
	</linearGradient>
	<path fill="url(#SVGID_58_)" d="M607.228,522.165l1.9,1.503c0.549-0.693,1.036-1.438,1.444-2.211l-2.145-1.133
		C608.089,520.968,607.686,521.587,607.228,522.165z"/>
	<linearGradient id="SVGID_59_" gradientUnits="userSpaceOnUse" x1="603.9331" y1="525.4688" x2="607.3281" y2="525.4688">
		<stop  offset="0.0146" style="stop-color:#9900FF"/>
		<stop  offset="1" style="stop-color:#2393FF"/>
	</linearGradient>
	<path fill="url(#SVGID_59_)" d="M603.933,525.134l1.327,2.028c0.741-0.483,1.437-1.017,2.068-1.583l-1.618-1.803
		C605.169,524.259,604.572,524.715,603.933,525.134z"/>
	<linearGradient id="SVGID_60_" gradientUnits="userSpaceOnUse" x1="581.062" y1="526.7549" x2="584.4155" y2="526.7549">
		<stop  offset="0.0146" style="stop-color:#9900FF"/>
		<stop  offset="1" style="stop-color:#2393FF"/>
	</linearGradient>
	<path fill="url(#SVGID_60_)" d="M581.062,527.001c0.684,0.525,1.414,1.005,2.167,1.428l1.187-2.113
		c-0.653-0.367-1.285-0.783-1.876-1.236L581.062,527.001z"/>
	<linearGradient id="SVGID_61_" gradientUnits="userSpaceOnUse" x1="568.3281" y1="487.4648" x2="571.7124" y2="487.4648">
		<stop  offset="0.0146" style="stop-color:#9900FF"/>
		<stop  offset="1" style="stop-color:#2393FF"/>
	</linearGradient>
	<path fill="url(#SVGID_61_)" d="M568.328,487.829c0.663,0.417,1.285,0.862,1.848,1.324l1.537-1.875
		c-0.641-0.527-1.346-1.03-2.094-1.501L568.328,487.829z"/>
	<linearGradient id="SVGID_62_" gradientUnits="userSpaceOnUse" x1="559.7715" y1="483.5093" x2="562.7075" y2="483.5093">
		<stop  offset="0.0146" style="stop-color:#9900FF"/>
		<stop  offset="1" style="stop-color:#2393FF"/>
	</linearGradient>
	<path fill="url(#SVGID_62_)" d="M562.708,482.676c-1.46-0.451-2.437-0.641-2.478-0.648l-0.458,2.38
		c0.008,0.003,0.899,0.177,2.221,0.584L562.708,482.676z"/>
	<linearGradient id="SVGID_63_" gradientUnits="userSpaceOnUse" x1="564.5391" y1="463.2715" x2="567.8057" y2="463.2715">
		<stop  offset="0.0146" style="stop-color:#9900FF"/>
		<stop  offset="1" style="stop-color:#2393FF"/>
	</linearGradient>
	<path fill="url(#SVGID_63_)" d="M567.806,463.003l-2-1.368c-0.5,0.73-0.926,1.523-1.267,2.354l2.244,0.919
		C567.058,464.234,567.402,463.594,567.806,463.003z"/>
	<linearGradient id="SVGID_64_" gradientUnits="userSpaceOnUse" x1="571.7603" y1="490.7891" x2="575.0986" y2="490.7891">
		<stop  offset="0.0146" style="stop-color:#9900FF"/>
		<stop  offset="1" style="stop-color:#2393FF"/>
	</linearGradient>
	<path fill="url(#SVGID_64_)" d="M573.614,489.113l-1.854,1.563c0.449,0.531,0.844,1.133,1.177,1.789l2.162-1.099
		C574.682,490.545,574.183,489.788,573.614,489.113z"/>
	<linearGradient id="SVGID_65_" gradientUnits="userSpaceOnUse" x1="563.522" y1="467.8643" x2="566.1621" y2="467.8643">
		<stop  offset="0.0146" style="stop-color:#9900FF"/>
		<stop  offset="1" style="stop-color:#2393FF"/>
	</linearGradient>
	<path fill="url(#SVGID_65_)" d="M566.162,467l-2.38-0.46c-0.165,0.854-0.252,1.736-0.26,2.627l2.424,0.022
		C565.954,468.444,566.027,467.708,566.162,467z"/>
	<linearGradient id="SVGID_66_" gradientUnits="userSpaceOnUse" x1="574.3213" y1="514.7441" x2="576.9497" y2="514.7441">
		<stop  offset="0.0146" style="stop-color:#9900FF"/>
		<stop  offset="1" style="stop-color:#2393FF"/>
	</linearGradient>
	<path fill="url(#SVGID_66_)" d="M576.744,513.422l-2.422,0.117c0.045,0.92,0.119,1.746,0.229,2.526l2.4-0.338
		C576.851,515.022,576.784,514.27,576.744,513.422z"/>
	<linearGradient id="SVGID_67_" gradientUnits="userSpaceOnUse" x1="575.1265" y1="519.4668" x2="578.2759" y2="519.4668">
		<stop  offset="0.0146" style="stop-color:#9900FF"/>
		<stop  offset="1" style="stop-color:#2393FF"/>
	</linearGradient>
	<path fill="url(#SVGID_67_)" d="M577.438,517.892l-2.312,0.728c0.26,0.825,0.589,1.642,0.982,2.423l2.167-1.086
		C577.941,519.289,577.66,518.594,577.438,517.892z"/>
	<linearGradient id="SVGID_68_" gradientUnits="userSpaceOnUse" x1="577.4546" y1="523.5693" x2="580.8613" y2="523.5693">
		<stop  offset="0.0146" style="stop-color:#9900FF"/>
		<stop  offset="1" style="stop-color:#2393FF"/>
	</linearGradient>
	<path fill="url(#SVGID_68_)" d="M577.455,523.275c0.501,0.7,1.061,1.374,1.667,1.998l1.74-1.689
		c-0.521-0.537-1.004-1.116-1.433-1.718L577.455,523.275z"/>
	<linearGradient id="SVGID_69_" gradientUnits="userSpaceOnUse" x1="573.7378" y1="495.2695" x2="576.6177" y2="495.2695">
		<stop  offset="0.0146" style="stop-color:#9900FF"/>
		<stop  offset="1" style="stop-color:#2393FF"/>
	</linearGradient>
	<path fill="url(#SVGID_69_)" d="M576.063,493.823l-2.326,0.684c0.198,0.674,0.361,1.418,0.483,2.209l2.396-0.372
		C576.478,495.449,576.291,494.601,576.063,493.823z"/>
	<linearGradient id="SVGID_70_" gradientUnits="userSpaceOnUse" x1="574.2769" y1="509.8271" x2="576.7544" y2="509.8271">
		<stop  offset="0.0146" style="stop-color:#9900FF"/>
		<stop  offset="1" style="stop-color:#2393FF"/>
	</linearGradient>
	<path fill="url(#SVGID_70_)" d="M576.754,508.675l-2.423-0.085c-0.027,0.83-0.051,1.651-0.054,2.46l2.424,0.014
		C576.706,510.279,576.727,509.481,576.754,508.675z"/>
	<linearGradient id="SVGID_71_" gradientUnits="userSpaceOnUse" x1="596.3613" y1="474.7334" x2="614.542" y2="474.7334">
		<stop  offset="0.0146" style="stop-color:#9900FF"/>
		<stop  offset="1" style="stop-color:#2393FF"/>
	</linearGradient>
	<path fill="url(#SVGID_71_)" d="M612.118,489.277v-30.302c0-0.395-0.192-0.765-0.516-0.992c-0.325-0.227-0.74-0.282-1.11-0.145
		l-13.333,4.848c-0.479,0.173-0.798,0.626-0.798,1.137s0.319,0.964,0.798,1.139l12.534,4.559v19.756h-4.848v2.425h9.696v-2.425
		H612.118z M609.694,460.707v6.236l-8.574-3.119L609.694,460.707z"/>
	<linearGradient id="SVGID_72_" gradientUnits="userSpaceOnUse" x1="574.8994" y1="471.0967" x2="583.8862" y2="471.0967">
		<stop  offset="0.0146" style="stop-color:#9900FF"/>
		<stop  offset="1" style="stop-color:#2393FF"/>
	</linearGradient>
	<polygon fill="url(#SVGID_72_)" points="577.679,471.096 574.899,473.876 576.614,475.59 579.393,472.811 582.172,475.59 
		583.886,473.876 581.106,471.096 583.886,468.318 582.172,466.603 579.393,469.382 576.614,466.603 574.899,468.318 	"/>
	<linearGradient id="SVGID_73_" gradientUnits="userSpaceOnUse" x1="594.2925" y1="507.458" x2="603.2788" y2="507.458">
		<stop  offset="0.0146" style="stop-color:#9900FF"/>
		<stop  offset="1" style="stop-color:#2393FF"/>
	</linearGradient>
	<polygon fill="url(#SVGID_73_)" points="601.565,502.965 598.786,505.744 596.006,502.965 594.292,504.678 597.072,507.458 
		594.292,510.238 596.006,511.952 598.786,509.172 601.565,511.952 603.279,510.238 600.5,507.458 603.279,504.678 	"/>
	<linearGradient id="SVGID_74_" gradientUnits="userSpaceOnUse" x1="581.8169" y1="517.1538" x2="593.938" y2="517.1538">
		<stop  offset="0.0146" style="stop-color:#9900FF"/>
		<stop  offset="1" style="stop-color:#2393FF"/>
	</linearGradient>
	<path fill="url(#SVGID_74_)" d="M587.877,511.094c-3.341,0-6.06,2.719-6.06,6.062c0,3.341,2.719,6.059,6.06,6.059
		c3.342,0,6.061-2.717,6.061-6.059C593.938,513.813,591.219,511.094,587.877,511.094z M587.877,520.791
		c-2.005,0-3.636-1.632-3.636-3.635c0-2.005,1.631-3.636,3.636-3.636s3.637,1.631,3.637,3.636
		C591.514,519.159,589.882,520.791,587.877,520.791z"/>
</g>
<g id="IconCode">
	<linearGradient id="SVGID_75_" gradientUnits="userSpaceOnUse" x1="1300.6338" y1="477.8267" x2="1306.917" y2="477.8267">
		<stop  offset="0.0146" style="stop-color:#9900FF"/>
		<stop  offset="1" style="stop-color:#2393FF"/>
	</linearGradient>
	<path fill="url(#SVGID_75_)" d="M1304.828,482.527c0.238,0.238,0.551,0.358,0.865,0.358c0.313,0,0.625-0.12,0.864-0.358
		c0.479-0.478,0.479-1.253,0-1.73l-2.969-2.971l2.969-2.97c0.479-0.478,0.479-1.252,0-1.73c-0.477-0.478-1.252-0.478-1.729,0
		l-3.836,3.835c-0.229,0.229-0.358,0.541-0.358,0.865c0,0.324,0.129,0.636,0.358,0.866L1304.828,482.527z"/>
	<linearGradient id="SVGID_76_" gradientUnits="userSpaceOnUse" x1="1313.6406" y1="477.8262" x2="1319.9238" y2="477.8262">
		<stop  offset="0.0146" style="stop-color:#9900FF"/>
		<stop  offset="1" style="stop-color:#2393FF"/>
	</linearGradient>
	<path fill="url(#SVGID_76_)" d="M1316.97,477.826l-2.971,2.971c-0.478,0.477-0.478,1.252,0,1.73
		c0.239,0.238,0.552,0.358,0.864,0.358c0.314,0,0.627-0.12,0.865-0.358l3.837-3.836c0.478-0.477,0.478-1.253,0-1.729l-3.837-3.836
		c-0.478-0.478-1.253-0.478-1.729,0c-0.478,0.478-0.478,1.252,0,1.729L1316.97,477.826z"/>
	<linearGradient id="SVGID_77_" gradientUnits="userSpaceOnUse" x1="1307.6777" y1="477.8262" x2="1313.1396" y2="477.8262">
		<stop  offset="0.0146" style="stop-color:#9900FF"/>
		<stop  offset="1" style="stop-color:#2393FF"/>
	</linearGradient>
	<path fill="url(#SVGID_77_)" d="M1308.455,482.801c0.146,0.058,0.298,0.085,0.447,0.085c0.487,0,0.949-0.294,1.139-0.776
		l3.014-7.673c0.247-0.628-0.062-1.338-0.691-1.585c-0.628-0.247-1.339,0.062-1.586,0.692l-3.014,7.671
		C1307.516,481.844,1307.825,482.554,1308.455,482.801z"/>
	<linearGradient id="SVGID_78_" gradientUnits="userSpaceOnUse" x1="1301.3271" y1="488.8403" x2="1312.0156" y2="488.8403">
		<stop  offset="0.0146" style="stop-color:#9900FF"/>
		<stop  offset="1" style="stop-color:#2393FF"/>
	</linearGradient>
	<path fill="url(#SVGID_78_)" d="M1302.549,490.064h8.243c0.676,0,1.224-0.548,1.224-1.224c0-0.675-0.548-1.223-1.224-1.223h-8.243
		c-0.675,0-1.222,0.548-1.222,1.223C1301.327,489.516,1301.874,490.064,1302.549,490.064z"/>
	<linearGradient id="SVGID_79_" gradientUnits="userSpaceOnUse" x1="1314.0605" y1="488.8403" x2="1331" y2="488.8403">
		<stop  offset="0.0146" style="stop-color:#9900FF"/>
		<stop  offset="1" style="stop-color:#2393FF"/>
	</linearGradient>
	<path fill="url(#SVGID_79_)" d="M1329.775,487.617h-14.491c-0.675,0-1.224,0.548-1.224,1.223c0,0.676,0.549,1.224,1.224,1.224
		h14.491c0.677,0,1.225-0.548,1.225-1.224C1331,488.165,1330.452,487.617,1329.775,487.617z"/>
	<linearGradient id="SVGID_80_" gradientUnits="userSpaceOnUse" x1="1301.3271" y1="494.0005" x2="1307.2842" y2="494.0005">
		<stop  offset="0.0146" style="stop-color:#9900FF"/>
		<stop  offset="1" style="stop-color:#2393FF"/>
	</linearGradient>
	<path fill="url(#SVGID_80_)" d="M1302.549,495.224h3.513c0.674,0,1.223-0.548,1.223-1.224c0-0.675-0.549-1.223-1.223-1.223h-3.513
		c-0.675,0-1.222,0.548-1.222,1.223C1301.327,494.676,1301.874,495.224,1302.549,495.224z"/>
	<linearGradient id="SVGID_81_" gradientUnits="userSpaceOnUse" x1="1324.0752" y1="494.0005" x2="1328.6611" y2="494.0005">
		<stop  offset="0.0146" style="stop-color:#9900FF"/>
		<stop  offset="1" style="stop-color:#2393FF"/>
	</linearGradient>
	<path fill="url(#SVGID_81_)" d="M1325.3,492.777c-0.676,0-1.225,0.548-1.225,1.223c0,0.676,0.549,1.224,1.225,1.224h2.137
		c0.677,0,1.225-0.548,1.225-1.224c0-0.675-0.548-1.223-1.225-1.223H1325.3z"/>
	<linearGradient id="SVGID_82_" gradientUnits="userSpaceOnUse" x1="1309.1318" y1="494.0005" x2="1322.0791" y2="494.0005">
		<stop  offset="0.0146" style="stop-color:#9900FF"/>
		<stop  offset="1" style="stop-color:#2393FF"/>
	</linearGradient>
	<path fill="url(#SVGID_82_)" d="M1322.079,494c0-0.675-0.547-1.223-1.224-1.223h-10.502c-0.677,0-1.222,0.548-1.222,1.223
		c0,0.676,0.545,1.224,1.222,1.224h10.502C1321.532,495.224,1322.079,494.676,1322.079,494z"/>
	<linearGradient id="SVGID_83_" gradientUnits="userSpaceOnUse" x1="1330.0938" y1="494.0005" x2="1336.5459" y2="494.0005">
		<stop  offset="0.0146" style="stop-color:#9900FF"/>
		<stop  offset="1" style="stop-color:#2393FF"/>
	</linearGradient>
	<path fill="url(#SVGID_83_)" d="M1330.094,494c0,0.676,0.548,1.224,1.224,1.224h4.004c0.676,0,1.225-0.548,1.225-1.224
		c0-0.675-0.549-1.223-1.225-1.223h-4.004C1330.642,492.777,1330.094,493.325,1330.094,494z"/>
	<linearGradient id="SVGID_84_" gradientUnits="userSpaceOnUse" x1="1322.2061" y1="477.5845" x2="1328.8789" y2="477.5845">
		<stop  offset="0.0146" style="stop-color:#9900FF"/>
		<stop  offset="1" style="stop-color:#2393FF"/>
	</linearGradient>
	<path fill="url(#SVGID_84_)" d="M1323.431,478.808h4.225c0.676,0,1.224-0.548,1.224-1.224s-0.548-1.223-1.224-1.223h-4.225
		c-0.677,0-1.225,0.547-1.225,1.223S1322.754,478.808,1323.431,478.808z"/>
	<linearGradient id="SVGID_85_" gradientUnits="userSpaceOnUse" x1="1331.1621" y1="477.5845" x2="1359.3828" y2="477.5845">
		<stop  offset="0.0146" style="stop-color:#9900FF"/>
		<stop  offset="1" style="stop-color:#2393FF"/>
	</linearGradient>
	<path fill="url(#SVGID_85_)" d="M1332.386,478.808h25.774c0.677,0,1.223-0.548,1.223-1.224s-0.546-1.223-1.223-1.223h-25.774
		c-0.676,0-1.224,0.547-1.224,1.223S1331.71,478.808,1332.386,478.808z"/>
	<linearGradient id="SVGID_86_" gradientUnits="userSpaceOnUse" x1="1342.5811" y1="482.9673" x2="1355.4688" y2="482.9673">
		<stop  offset="0.0146" style="stop-color:#9900FF"/>
		<stop  offset="1" style="stop-color:#2393FF"/>
	</linearGradient>
	<path fill="url(#SVGID_86_)" d="M1354.245,481.744h-10.44c-0.676,0-1.224,0.547-1.224,1.224c0,0.675,0.548,1.223,1.224,1.223h10.44
		c0.677,0,1.224-0.548,1.224-1.223C1355.469,482.291,1354.922,481.744,1354.245,481.744z"/>
	<linearGradient id="SVGID_87_" gradientUnits="userSpaceOnUse" x1="1335.0781" y1="482.9673" x2="1341.1133" y2="482.9673">
		<stop  offset="0.0146" style="stop-color:#9900FF"/>
		<stop  offset="1" style="stop-color:#2393FF"/>
	</linearGradient>
	<path fill="url(#SVGID_87_)" d="M1339.89,481.744h-3.588c-0.677,0-1.224,0.547-1.224,1.224c0,0.675,0.547,1.223,1.224,1.223h3.588
		c0.677,0,1.224-0.548,1.224-1.223C1341.113,482.291,1340.566,481.744,1339.89,481.744z"/>
	<linearGradient id="SVGID_88_" gradientUnits="userSpaceOnUse" x1="1322.2061" y1="482.9673" x2="1333.4453" y2="482.9673">
		<stop  offset="0.0146" style="stop-color:#9900FF"/>
		<stop  offset="1" style="stop-color:#2393FF"/>
	</linearGradient>
	<path fill="url(#SVGID_88_)" d="M1323.431,484.191h8.793c0.675,0,1.222-0.548,1.222-1.223c0-0.677-0.547-1.224-1.222-1.224h-8.793
		c-0.677,0-1.225,0.547-1.225,1.224C1322.206,483.643,1322.754,484.191,1323.431,484.191z"/>
	<linearGradient id="SVGID_89_" gradientUnits="userSpaceOnUse" x1="1311.4053" y1="499.1172" x2="1322.0957" y2="499.1172">
		<stop  offset="0.0146" style="stop-color:#9900FF"/>
		<stop  offset="1" style="stop-color:#2393FF"/>
	</linearGradient>
	<path fill="url(#SVGID_89_)" d="M1320.872,497.894h-8.242c-0.677,0-1.225,0.548-1.225,1.223s0.548,1.224,1.225,1.224h8.242
		c0.676,0,1.224-0.548,1.224-1.224S1321.548,497.894,1320.872,497.894z"/>
	<linearGradient id="SVGID_90_" gradientUnits="userSpaceOnUse" x1="1301.3271" y1="499.1172" x2="1310.1064" y2="499.1172">
		<stop  offset="0.0146" style="stop-color:#9900FF"/>
		<stop  offset="1" style="stop-color:#2393FF"/>
	</linearGradient>
	<path fill="url(#SVGID_90_)" d="M1308.882,497.894h-6.333c-0.675,0-1.222,0.548-1.222,1.223s0.547,1.224,1.222,1.224h6.333
		c0.676,0,1.225-0.548,1.225-1.224S1309.558,497.894,1308.882,497.894z"/>
	<linearGradient id="SVGID_91_" gradientUnits="userSpaceOnUse" x1="1323.8213" y1="499.1172" x2="1337.0352" y2="499.1172">
		<stop  offset="0.0146" style="stop-color:#9900FF"/>
		<stop  offset="1" style="stop-color:#2393FF"/>
	</linearGradient>
	<path fill="url(#SVGID_91_)" d="M1335.812,497.894h-10.766c-0.677,0-1.225,0.548-1.225,1.223s0.548,1.224,1.225,1.224h10.766
		c0.676,0,1.224-0.548,1.224-1.224S1336.487,497.894,1335.812,497.894z"/>
	<linearGradient id="SVGID_92_" gradientUnits="userSpaceOnUse" x1="1343.2617" y1="492.8325" x2="1351.5947" y2="492.8325">
		<stop  offset="0.0146" style="stop-color:#9900FF"/>
		<stop  offset="1" style="stop-color:#2393FF"/>
	</linearGradient>
	<path fill="url(#SVGID_92_)" d="M1350.372,491.609h-5.887c-0.677,0-1.224,0.548-1.224,1.223c0,0.676,0.547,1.224,1.224,1.224h5.887
		c0.675,0,1.223-0.548,1.223-1.224C1351.595,492.157,1351.047,491.609,1350.372,491.609z"/>
	<linearGradient id="SVGID_93_" gradientUnits="userSpaceOnUse" x1="1359.3652" y1="492.8325" x2="1370.124" y2="492.8325">
		<stop  offset="0.0146" style="stop-color:#9900FF"/>
		<stop  offset="1" style="stop-color:#2393FF"/>
	</linearGradient>
	<path fill="url(#SVGID_93_)" d="M1360.587,494.056h8.313c0.677,0,1.225-0.548,1.225-1.224c0-0.675-0.548-1.223-1.225-1.223h-8.313
		c-0.675,0-1.222,0.548-1.222,1.223C1359.365,493.508,1359.913,494.056,1360.587,494.056z"/>
	<linearGradient id="SVGID_94_" gradientUnits="userSpaceOnUse" x1="1353.3037" y1="492.8325" x2="1357.6553" y2="492.8325">
		<stop  offset="0.0146" style="stop-color:#9900FF"/>
		<stop  offset="1" style="stop-color:#2393FF"/>
	</linearGradient>
	<path fill="url(#SVGID_94_)" d="M1356.433,491.609h-1.905c-0.675,0-1.224,0.548-1.224,1.223c0,0.676,0.549,1.224,1.224,1.224h1.905
		c0.676,0,1.223-0.548,1.223-1.224C1357.655,492.157,1357.108,491.609,1356.433,491.609z"/>
	<linearGradient id="SVGID_95_" gradientUnits="userSpaceOnUse" x1="1343.2617" y1="506.1655" x2="1351.5947" y2="506.1655">
		<stop  offset="0.0146" style="stop-color:#9900FF"/>
		<stop  offset="1" style="stop-color:#2393FF"/>
	</linearGradient>
	<path fill="url(#SVGID_95_)" d="M1344.485,507.389h5.887c0.675,0,1.223-0.547,1.223-1.223c0-0.676-0.548-1.223-1.223-1.223h-5.887
		c-0.677,0-1.224,0.547-1.224,1.223C1343.262,506.842,1343.809,507.389,1344.485,507.389z"/>
	<linearGradient id="SVGID_96_" gradientUnits="userSpaceOnUse" x1="1359.3652" y1="506.1655" x2="1370.124" y2="506.1655">
		<stop  offset="0.0146" style="stop-color:#9900FF"/>
		<stop  offset="1" style="stop-color:#2393FF"/>
	</linearGradient>
	<path fill="url(#SVGID_96_)" d="M1360.587,507.389h8.313c0.677,0,1.225-0.547,1.225-1.223c0-0.676-0.548-1.223-1.225-1.223h-8.313
		c-0.675,0-1.222,0.547-1.222,1.223C1359.365,506.842,1359.913,507.389,1360.587,507.389z"/>
	<linearGradient id="SVGID_97_" gradientUnits="userSpaceOnUse" x1="1353.3037" y1="506.1655" x2="1357.6563" y2="506.1655">
		<stop  offset="0.0146" style="stop-color:#9900FF"/>
		<stop  offset="1" style="stop-color:#2393FF"/>
	</linearGradient>
	<path fill="url(#SVGID_97_)" d="M1354.527,507.389h1.905c0.676,0,1.224-0.547,1.224-1.223c0-0.676-0.548-1.223-1.224-1.223h-1.905
		c-0.675,0-1.224,0.547-1.224,1.223C1353.304,506.842,1353.853,507.389,1354.527,507.389z"/>
	<linearGradient id="SVGID_98_" gradientUnits="userSpaceOnUse" x1="1343.2617" y1="519.4985" x2="1351.5947" y2="519.4985">
		<stop  offset="0.0146" style="stop-color:#9900FF"/>
		<stop  offset="1" style="stop-color:#2393FF"/>
	</linearGradient>
	<path fill="url(#SVGID_98_)" d="M1350.372,518.275h-5.887c-0.677,0-1.224,0.548-1.224,1.223s0.547,1.223,1.224,1.223h5.887
		c0.675,0,1.223-0.548,1.223-1.223S1351.047,518.275,1350.372,518.275z"/>
	<linearGradient id="SVGID_99_" gradientUnits="userSpaceOnUse" x1="1359.3652" y1="519.4985" x2="1370.124" y2="519.4985">
		<stop  offset="0.0146" style="stop-color:#9900FF"/>
		<stop  offset="1" style="stop-color:#2393FF"/>
	</linearGradient>
	<path fill="url(#SVGID_99_)" d="M1368.899,518.275h-8.313c-0.675,0-1.222,0.548-1.222,1.223s0.547,1.223,1.222,1.223h8.313
		c0.677,0,1.225-0.548,1.225-1.223S1369.576,518.275,1368.899,518.275z"/>
	<linearGradient id="SVGID_100_" gradientUnits="userSpaceOnUse" x1="1353.3037" y1="519.4985" x2="1357.6553" y2="519.4985">
		<stop  offset="0.0146" style="stop-color:#9900FF"/>
		<stop  offset="1" style="stop-color:#2393FF"/>
	</linearGradient>
	<path fill="url(#SVGID_100_)" d="M1356.433,518.275h-1.905c-0.675,0-1.224,0.548-1.224,1.223s0.549,1.223,1.224,1.223h1.905
		c0.676,0,1.223-0.548,1.223-1.223S1357.108,518.275,1356.433,518.275z"/>
	<g>
		<linearGradient id="SVGID_101_" gradientUnits="userSpaceOnUse" x1="1295.2012" y1="493.8223" x2="1378.7979" y2="493.8223">
			<stop  offset="0.0146" style="stop-color:#9900FF"/>
			<stop  offset="1" style="stop-color:#2393FF"/>
		</linearGradient>
		<path fill="url(#SVGID_101_)" d="M1373.413,452.069h-72.827c-2.969,0-5.385,2.416-5.385,5.385v59.198
			c0,2.969,2.416,5.384,5.385,5.384h4.604c0.677,0,1.225-0.547,1.225-1.224c0-0.675-0.548-1.223-1.225-1.223h-4.604
			c-1.619,0-2.937-1.318-2.937-2.938v-4.642h44.573v2.109h-0.97c-1.327,0-2.408,1.08-2.408,2.407v3.063h-26.216
			c-0.676,0-1.224,0.548-1.224,1.223c0,0.676,0.548,1.224,1.224,1.224h11.764v4.388h-3.695c-2.463,0-4.468,2.005-4.468,4.469v2.643
			c0,1.125,0.914,2.04,2.038,2.04h37.371c1.124,0,2.038-0.915,2.038-2.04v-2.643c0-2.464-2.005-4.469-4.468-4.469h-3.695v-1.547
			h22.618c1.327,0,2.406-1.079,2.406-2.406v-0.576c2.385-0.554,4.168-2.693,4.168-5.243l0.092-59.199
			C1378.799,454.484,1376.385,452.069,1373.413,452.069z M1341.293,509.098v-5.864h30.799v5.864H1341.293z M1344.668,500.786v-2.575
			h24.048v2.575H1344.668z M1368.716,511.544v2.575h-24.048v-2.575H1368.716z M1326.839,522.037h12.006v0.436
			c0,1.327,1.081,2.405,2.408,2.405h5.814v1.547h-20.229V522.037z M1353.209,528.872c1.115,0,2.021,0.907,2.021,2.022v2.235h-36.555
			v-2.235c0-1.115,0.908-2.022,2.021-2.022H1353.209z M1372.092,522.431h-30.799v-5.864h30.799V522.431z M1376.259,516.652
			c0,1.185-0.706,2.206-1.721,2.67v-2.797c0-1.326-1.079-2.406-2.406-2.406h-0.97v-2.109h5.097V516.652z M1376.259,509.564h-1.761
			c0.025-0.139,0.04-6.372,0.04-6.372c0-1.327-1.079-2.406-2.406-2.406h-0.97v-2.575h0.97c1.327,0,2.406-1.079,2.406-2.406v-5.946
			c0-1.327-1.079-2.407-2.406-2.407h-6.91c-0.676,0-1.223,0.548-1.223,1.224c0,0.675,0.547,1.223,1.223,1.223h6.87v5.865h-30.799
			V489.9h16.316c0.677,0,1.223-0.548,1.223-1.223c0-0.676-0.546-1.224-1.223-1.224h-16.356c-1.327,0-2.408,1.08-2.408,2.407v5.946
			c0,1.327,1.081,2.406,2.408,2.406h0.97v2.575h-0.97c-1.327,0-2.408,1.08-2.408,2.406c0,0,0.017,6.233,0.042,6.372h-41.237v-40.853
			h78.609V509.564z M1376.259,466.264h-78.521v-8.811c0-1.62,1.319-2.937,2.938-2.937h72.646c1.62,0,2.938,1.317,2.938,2.938
			V466.264z"/>
	</g>
	<linearGradient id="SVGID_102_" gradientUnits="userSpaceOnUse" x1="1300.6338" y1="460.3555" x2="1307.8145" y2="460.3555">
		<stop  offset="0.0146" style="stop-color:#9900FF"/>
		<stop  offset="1" style="stop-color:#2393FF"/>
	</linearGradient>
	<path fill="url(#SVGID_102_)" d="M1304.224,456.765c-1.98,0-3.59,1.611-3.59,3.59c0,1.98,1.609,3.591,3.59,3.591
		s3.591-1.611,3.591-3.591C1307.814,458.375,1306.204,456.765,1304.224,456.765z M1304.224,461.499c-0.63,0-1.143-0.513-1.143-1.144
		c0-0.63,0.513-1.144,1.143-1.144c0.631,0,1.145,0.513,1.145,1.144C1305.368,460.986,1304.854,461.499,1304.224,461.499z"/>
	<linearGradient id="SVGID_103_" gradientUnits="userSpaceOnUse" x1="1309.7744" y1="460.3555" x2="1316.9561" y2="460.3555">
		<stop  offset="0.0146" style="stop-color:#9900FF"/>
		<stop  offset="1" style="stop-color:#2393FF"/>
	</linearGradient>
	<path fill="url(#SVGID_103_)" d="M1313.365,456.765c-1.98,0-3.591,1.611-3.591,3.59c0,1.98,1.61,3.591,3.591,3.591
		c1.979,0,3.591-1.611,3.591-3.591C1316.956,458.375,1315.345,456.765,1313.365,456.765z M1313.365,461.499
		c-0.632,0-1.144-0.513-1.144-1.144c0-0.63,0.512-1.144,1.144-1.144c0.631,0,1.144,0.513,1.144,1.144
		C1314.509,460.986,1313.996,461.499,1313.365,461.499z"/>
	<linearGradient id="SVGID_104_" gradientUnits="userSpaceOnUse" x1="1318.917" y1="460.3555" x2="1326.0977" y2="460.3555">
		<stop  offset="0.0146" style="stop-color:#9900FF"/>
		<stop  offset="1" style="stop-color:#2393FF"/>
	</linearGradient>
	<path fill="url(#SVGID_104_)" d="M1322.508,456.765c-1.98,0-3.591,1.611-3.591,3.59c0,1.98,1.61,3.591,3.591,3.591
		c1.979,0,3.59-1.611,3.59-3.591C1326.098,458.375,1324.486,456.765,1322.508,456.765z M1322.508,461.499
		c-0.631,0-1.146-0.513-1.146-1.144c0-0.63,0.515-1.144,1.146-1.144c0.63,0,1.143,0.513,1.143,1.144
		C1323.65,460.986,1323.138,461.499,1322.508,461.499z"/>
</g>
<g id="Kunde">
	<linearGradient id="SVGID_105_" gradientUnits="userSpaceOnUse" x1="166.7163" y1="464.1855" x2="288.1338" y2="464.1855">
		<stop  offset="0.0146" style="stop-color:#9900FF"/>
		<stop  offset="1" style="stop-color:#2393FF"/>
	</linearGradient>
	<path fill="url(#SVGID_105_)" d="M169.598,482.9c0,22.354,17.346,40.542,38.67,40.542c6.75-0.008,13.368-1.859,19.145-5.348
		c5.777,3.489,12.397,5.339,19.146,5.348c21.324,0,38.671-18.187,38.671-40.542c0.006-5.518-1.083-10.981-3.203-16.077
		c11.808-19.003,5.976-43.984-13.029-55.793c-12.674-7.874-28.649-8.146-41.584-0.705c-19.409-11.142-44.176-4.44-55.318,14.969
		c-7.417,12.92-7.146,28.868,0.705,41.529C170.68,471.919,169.592,477.382,169.598,482.9z M207.259,411.156
		c6.551,0.003,12.964,1.889,18.473,5.432c1.024,0.657,2.337,0.657,3.362,0c15.954-10.212,37.165-5.556,47.375,10.399
		c7.405,11.568,7.193,26.44-0.54,37.794c-0.617,0.906-0.712,2.068-0.252,3.063c2.196,4.715,3.332,9.854,3.328,15.056
		c0,18.92-14.554,34.315-32.445,34.315c-6.21-0.015-12.274-1.893-17.405-5.391c-1.052-0.708-2.429-0.708-3.48,0
		c-5.132,3.499-11.195,5.376-17.405,5.391c-17.891,0-32.445-15.396-32.445-34.315c-0.005-5.201,1.132-10.34,3.328-15.056
		c0.46-0.995,0.365-2.157-0.253-3.063c-10.667-15.66-6.622-37.003,9.039-47.671C193.633,413.229,200.366,411.155,207.259,411.156z"
		/>
	<path fill="#FBFF0D" d="M203.424,460.909c1.217,1.216,3.187,1.216,4.402,0l16.496-16.497c5.473-5.466,5.477-14.334,0.009-19.807
		c-5.062-5.067-13.132-5.499-18.706-1c-6.011-4.867-14.832-3.938-19.698,2.074c-4.514,5.575-4.086,13.661,0.993,18.728
		L203.424,460.909z M191.308,428.997c3.039-3.038,7.964-3.038,11.003,0l1.097,1.104c1.238,1.168,3.172,1.168,4.408,0l1.099-1.1
		c3.079-2.941,7.923-2.941,11.002,0c3.04,3.038,3.04,7.964,0.001,11.003c-0.001,0-0.001,0.001-0.001,0.001l-14.317,14.318
		l-14.317-14.318c-3.033-3.044-3.024-7.97,0.021-11.004C191.306,429,191.308,428.999,191.308,428.997z"/>
	<path fill="#26FF9B" d="M213.38,482.082c0,5.693,5.417,6.96,8.65,7.716c2.975,0.696,3.837,1.064,3.837,1.648
		c0,0.583-1.187,1.561-3.122,1.561c-1.936,0-3.122-1.011-3.122-1.561h-6.243c0.417,4.729,4.59,8.226,9.319,7.808
		c0.015-0.001,0.03-0.002,0.045-0.004c4.727,0.443,8.917-3.031,9.361-7.758c0-0.016,0.003-0.031,0.003-0.046
		c0-5.703-5.418-6.971-8.655-7.726c-2.972-0.703-3.831-1.062-3.831-1.638c0-0.578,1.186-1.562,3.122-1.562
		c1.935,0,3.122,1.011,3.122,1.562h6.242c-0.417-4.73-4.589-8.226-9.319-7.809c-0.015,0.001-0.03,0.003-0.045,0.004
		c-4.727-0.443-8.917,3.031-9.36,7.758C213.383,482.051,213.381,482.066,213.38,482.082z"/>
	<path fill="#26FF9B" d="M200.957,485.857c0,12.033,9.754,21.788,21.787,21.788s21.787-9.755,21.787-21.788
		c0-12.034-9.754-21.788-21.787-21.788C210.718,464.083,200.971,473.83,200.957,485.857z M238.308,485.857
		c0,8.594-6.968,15.562-15.563,15.562c-8.594,0-15.563-6.968-15.563-15.562c0-8.596,6.968-15.563,15.563-15.563
		C231.335,470.305,238.297,477.266,238.308,485.857z"/>
	<path fill="#FF4A33" d="M241.414,447.661l-3.78,12.211c-0.521,1.644,0.389,3.397,2.033,3.918c0.975,0.309,2.04,0.121,2.85-0.504
		l9.676-7.395l9.677,7.395c1.365,1.053,3.325,0.8,4.378-0.565c0.625-0.809,0.813-1.874,0.504-2.849l-3.78-12.227l9.845-7.523
		c1.362-1.057,1.609-3.018,0.552-4.38c-0.587-0.756-1.489-1.201-2.447-1.208h-12.005l-3.746-12.105
		c-0.506-1.648-2.252-2.574-3.9-2.068c-0.99,0.304-1.765,1.078-2.068,2.068l-3.746,12.105h-11.993
		c-1.725-0.012-3.132,1.376-3.144,3.1c-0.007,0.99,0.456,1.925,1.249,2.519L241.414,447.661z M247.769,440.793
		c1.366,0.003,2.574-0.882,2.984-2.185l1.438-4.685l1.439,4.657c0.409,1.303,1.619,2.188,2.984,2.186h5.078l-4.242,3.243
		c-1.04,0.793-1.475,2.152-1.089,3.402l1.539,4.976l-3.814-2.913c-1.119-0.854-2.671-0.854-3.79,0l-3.814,2.913l1.539-4.976
		c0.385-1.25-0.05-2.609-1.089-3.402l-4.242-3.243L247.769,440.793z"/>
	<linearGradient id="SVGID_106_" gradientUnits="userSpaceOnUse" x1="129.3691" y1="454.7319" x2="148.0444" y2="454.7319">
		<stop  offset="0.0146" style="stop-color:#9900FF"/>
		<stop  offset="1" style="stop-color:#2393FF"/>
	</linearGradient>
	<path fill="url(#SVGID_106_)" d="M138.706,464.07c5.157,0,9.339-4.181,9.339-9.337c0-5.158-4.182-9.338-9.339-9.338
		c-5.157,0-9.336,4.181-9.336,9.338C129.369,459.889,133.548,464.07,138.706,464.07z M138.706,451.62
		c1.72,0,3.113,1.393,3.113,3.113c0,1.718-1.393,3.111-3.113,3.111c-1.719,0-3.113-1.393-3.113-3.111
		C135.592,453.013,136.987,451.62,138.706,451.62z"/>
	<linearGradient id="SVGID_107_" gradientUnits="userSpaceOnUse" x1="138.7056" y1="429.8315" x2="163.6069" y2="429.8315">
		<stop  offset="0.0146" style="stop-color:#9900FF"/>
		<stop  offset="1" style="stop-color:#2393FF"/>
	</linearGradient>
	<path fill="url(#SVGID_107_)" d="M151.156,442.281c6.876,0,12.451-5.573,12.451-12.449c0-6.877-5.575-12.45-12.451-12.45
		c-6.875,0-12.45,5.573-12.45,12.45C138.706,436.708,144.281,442.281,151.156,442.281z M151.156,423.605
		c3.438,0,6.225,2.789,6.225,6.227c0,3.437-2.787,6.225-6.225,6.225c-3.438,0-6.224-2.789-6.224-6.225
		C144.932,426.394,147.718,423.605,151.156,423.605z"/>
	<linearGradient id="SVGID_108_" gradientUnits="userSpaceOnUse" x1="112.6816" y1="564.2314" x2="132.0151" y2="564.2314">
		<stop  offset="0.0146" style="stop-color:#9900FF"/>
		<stop  offset="1" style="stop-color:#2393FF"/>
	</linearGradient>
	<path fill="url(#SVGID_108_)" d="M122.335,566.06L122.335,566.06c3.396,0.017,6.734-0.861,9.68-2.548l-0.83-1.143l0,0
		c-5.487,3.115-12.203,3.13-17.708,0.047l0,0l-0.796,1.144c2.94,1.677,6.27,2.55,9.653,2.534V566.06z"/>
	<linearGradient id="SVGID_109_" gradientUnits="userSpaceOnUse" x1="73.9668" y1="550.0889" x2="172.3096" y2="550.0889">
		<stop  offset="0.0146" style="stop-color:#9900FF"/>
		<stop  offset="1" style="stop-color:#2393FF"/>
	</linearGradient>
	<path fill="url(#SVGID_109_)" d="M145.135,585.394h-13.688v-3.824c11.513-3.924,20.391-14.845,22.371-28.439
		c2.342-0.819,6.502-3.138,7.553-9.367l1.17-8.027c0,0,0.904-10.517-7.839-7.921l0.034-1.498c0.042-1.637-0.013-3.275-0.167-4.905
		c0.273-7.46-0.241-19.12-5.353-24.993c0,0-1.939-6.931-12.229-11.941l-3.693,2.281c0,0-2.488-3.038-9.111-6.824
		c0,0-4.891,2.181-7.359,5.967l-4.014-2.556c0,0-5.567,2.549-8.816,7.105l-5.975,0.856l-3.131,5.686c0,0-6.542,5.271-5.453,26.198
		c-0.047,1.029-0.067,2.074-0.04,3.125v1.525v0.26l-0.054-0.26c-8.79-2.677-7.886,7.907-7.886,7.907l1.164,8.027
		c1.064,6.364,5.352,8.649,7.653,9.429c1.96,13.285,10.503,24.023,21.663,28.13v4.087h-10.751c-13.802,0-25.857,11.673-26.76,26.981
		l-0.455,7.841h98.343l-0.421-7.849C170.992,597.067,158.929,585.394,145.135,585.394z M84.744,545.583
		c-0.435-0.925-1.432-10.939-1.432-10.939c-0.193-5.874,4.576-5.256,6.054-4.937c0,0.188,0,0.368,0,0.555
		c0-0.101-0.046-0.199-0.066-0.3l0.241,3.953v0.862c-3.285-0.941-4.101,1.968-4.101,1.968l0.669,6.991
		c0.195,0.148,0.425,0.245,0.669,0.281c0.254-0.031,0.496-0.129,0.703-0.281c0,0-0.396-4.79-0.469-6.309
		c-0.047-1.03,1.472-0.843,2.522-0.588l0.262,11.432c0,1.016,0.087,2.009,0.187,3.024C86.725,549.958,84.744,545.583,84.744,545.583
		z M154.319,536.885l0.195-0.045c1.044-0.235,2.442-0.369,2.395,0.621c-0.066,1.513-0.462,6.302-0.462,6.302
		c0.392,0.376,1.008,0.376,1.399,0l0.669-6.984c0,0-0.789-2.831-3.981-2.008l0.114-5.037c1.505-0.319,6.254-0.883,6.055,4.937
		c0,0-1.004,10.035-1.438,10.933c0,0-1.935,4.247-5.225,5.646l-0.301,0.128c0.294-4.813,0.395-9.669,0.568-14.511L154.319,536.885z
		 M100.981,559.811c0,0-4.149-1.371-9.468-21.004l-0.239-10.416l0.252,0.074l0,0l-0.252-0.081v-1.572
		c-0.052-1.803,0.017-3.605,0.206-5.399c1.339-5.632,4.303-13.38,10.517-17.875c0,0,6.617,4.502,18.003,4.603l0.114,0.08
		c0.1,0.057,0.222,0.057,0.322,0c0.038-0.026,0.073-0.055,0.106-0.087c7.155-0.106,14.213-1.675,20.739-4.61
		c0,0,8.209,3.74,11.286,18.185c0.176,1.7,0.246,3.408,0.206,5.118l-0.08,1.599l0,0l-0.14,7.036
		c-5.747,22.859-10.356,24.385-10.356,24.385c1.076-8.522-7.673-7.68-7.673-7.68c-4.279,0.754-8.597,1.258-12.933,1.505
		c-4.338-0.246-8.658-0.75-12.938-1.505C108.654,552.165,99.903,551.289,100.981,559.811z M108.34,569.762
		c-4.015-2.13-2.843-7.108-2.843-7.108c0.408-4.968,3.412-4.547,3.412-4.547c4.186,1.278,8.462,2.238,12.791,2.877l0,0
		c4.377-0.63,8.699-1.588,12.933-2.868c0,0,3.023-0.423,3.438,4.585c0,0,1.21,5.02-2.863,7.169l-5.15,5.444
		c0,0-3.526,1.115-3.44-3.159c0,0,0.1-3.825-1.711-3.825h-6.33c-1.953,0-1.706,3.698-1.706,3.698
		c0.086,4.234-3.405,3.125-3.405,3.125L108.34,569.762z M129.989,582.008v6.517c0,4.553-3.69,8.244-8.243,8.244
		c-4.551-0.002-8.241-3.692-8.241-8.244v-6.687c1.809,0.554,3.669,0.932,5.552,1.122c1,0.107,2.005,0.161,3.01,0.161
		c0.475,0,0.943,0,1.412-0.04c2.215-0.102,4.411-0.461,6.543-1.073H129.989z M109.483,586.974h2.49v1.631
		c-0.141,5.377,4.104,9.851,9.481,9.992c5.378,0.141,9.852-4.104,9.993-9.479c0.005-0.17,0.005-0.341,0-0.513v-1.631h2.342
		c0.142,0.751,0.212,1.511,0.212,2.276c0,6.833-5.54,12.373-12.376,12.373s-12.375-5.54-12.375-12.373
		C109.261,588.483,109.338,587.725,109.483,586.974z M75.926,618.362l0.315-5.431c0.857-14.73,12.483-25.958,25.782-25.958h6.021
		c-0.129,0.752-0.194,1.512-0.194,2.276c0,7.614,6.173,13.785,13.789,13.785s13.788-6.171,13.788-13.785
		c0-0.765-0.063-1.524-0.193-2.276h9.145c13.3,0,24.92,11.247,25.783,25.979l0.181,5.431L75.926,618.362z"/>
	<linearGradient id="SVGID_110_" gradientUnits="userSpaceOnUse" x1="120.1572" y1="546.9414" x2="126.1343" y2="546.9414">
		<stop  offset="0.0146" style="stop-color:#9900FF"/>
		<stop  offset="1" style="stop-color:#2393FF"/>
	</linearGradient>
	<path fill="url(#SVGID_110_)" d="M121.166,551.993c0.408-0.123,0.793-0.316,1.136-0.569c1.398-0.672,3.091-0.672,3.625-2.13
		c0.215-0.645,0.264-1.337,0.141-2.005c-0.542-1.854-0.957-4.016-2.006-5.4h-0.496c-0.27,0.152-0.558,0.271-0.856,0.355
		c-0.261,0.67,0.18,1.337,0.428,1.921c0.32,0.872,0.581,1.769,0.783,2.675c0.107,0.382,0.322,1.479,0,1.848
		c-0.262,0.667-2.429,1.042-3.131,1.418c-0.38,0.208-0.877,0.54-0.495,1.069C120.469,551.664,120.85,551.718,121.166,551.993z"/>
	<linearGradient id="SVGID_111_" gradientUnits="userSpaceOnUse" x1="102.7334" y1="533.9424" x2="108.4209" y2="533.9424">
		<stop  offset="0.0146" style="stop-color:#9900FF"/>
		<stop  offset="1" style="stop-color:#2393FF"/>
	</linearGradient>
	<circle fill="url(#SVGID_111_)" cx="105.578" cy="533.942" r="2.844"/>
	<linearGradient id="SVGID_112_" gradientUnits="userSpaceOnUse" x1="135.9902" y1="533.9424" x2="141.6753" y2="533.9424">
		<stop  offset="0.0146" style="stop-color:#9900FF"/>
		<stop  offset="1" style="stop-color:#2393FF"/>
	</linearGradient>
	<path fill="url(#SVGID_112_)" d="M138.833,531.099c-1.57,0-2.842,1.274-2.842,2.843c0,1.57,1.272,2.845,2.842,2.845
		c1.571,0,2.843-1.275,2.843-2.845l0,0c0.004-1.565-1.262-2.839-2.83-2.843C138.842,531.099,138.837,531.099,138.833,531.099z"/>
	<linearGradient id="SVGID_113_" gradientUnits="userSpaceOnUse" x1="129.627" y1="525.7095" x2="148.3589" y2="525.7095">
		<stop  offset="0.0146" style="stop-color:#9900FF"/>
		<stop  offset="1" style="stop-color:#2393FF"/>
	</linearGradient>
	<path fill="url(#SVGID_113_)" d="M130.725,526.764l0.441,0.475c0,0,5.674-3.243,11.066-1.512c1.216,0.55,2.301,1.347,3.191,2.342
		l2.937-0.082c0,0-3.666-8.027-18.732-2.957l1.004,1.451L130.725,526.764z"/>
	<linearGradient id="SVGID_114_" gradientUnits="userSpaceOnUse" x1="95.75" y1="525.7441" x2="114.4087" y2="525.7441">
		<stop  offset="0.0146" style="stop-color:#9900FF"/>
		<stop  offset="1" style="stop-color:#2393FF"/>
	</linearGradient>
	<path fill="url(#SVGID_114_)" d="M112.882,527.258l0.441-0.481l0.08-0.261l1.005-1.452c-15.006-4.99-18.659,2.93-18.659,2.93
		l2.93,0.081c0.885-0.98,1.964-1.763,3.17-2.301C107.202,524.028,112.882,527.258,112.882,527.258z"/>
</g>
</svg>
