<svg xmlns="http://www.w3.org/2000/svg" xmlns:xlink="http://www.w3.org/1999/xlink" width="226.937" height="210.91" viewBox="0 0 226.937 210.91">
  <defs>
    <linearGradient id="linear-gradient" x1="0.5" x2="0.5" y2="1" gradientUnits="objectBoundingBox">
      <stop offset="0" stop-color="rgba(35, 147, 255, 1)"/>
      <stop offset="1" stop-color="rgba(95, 29, 242, 1)"/>
    </linearGradient>
  </defs>
  <g id="close" transform="translate(-261.492 -35.06)">
    <path id="Path_3" data-name="Path 3" d="M479.13,35.06H400.021a9.3,9.3,0,0,0-9.3,9.3v79.949a9.3,9.3,0,0,0,9.3,9.3h29.666c-1.377,37.091-11.342,55.877-29.666,55.877a9.3,9.3,0,0,0-9.3,9.305v37.867a9.3,9.3,0,0,0,9.3,9.3c14.412,0,27.373-3.074,38.521-9.114A80.566,80.566,0,0,0,466.6,211.211c7.33-10.7,12.887-23.61,16.51-38.385,3.527-14.41,5.318-30.729,5.318-48.513V44.363A9.3,9.3,0,0,0,479.13,35.06Z" fill="url(#linear-gradient)"/>
    <path id="Path_4" data-name="Path 4" d="M349.9,35.06H270.79a9.3,9.3,0,0,0-9.3,9.3v79.949a9.3,9.3,0,0,0,9.3,9.3h29.252c-1.364,37.091-11.188,55.877-29.252,55.877a9.3,9.3,0,0,0-9.3,9.305v37.867a9.3,9.3,0,0,0,9.3,9.3c14.41,0,27.378-3.074,38.526-9.114a80.52,80.52,0,0,0,28.058-25.645c7.343-10.7,12.9-23.61,16.521-38.391,3.523-14.4,5.31-30.724,5.31-48.5V44.363A9.307,9.307,0,0,0,349.9,35.06Z" fill="url(#linear-gradient)"/>
  </g>
</svg>
