<svg xmlns="http://www.w3.org/2000/svg" xmlns:xlink="http://www.w3.org/1999/xlink" width="110" height="111" viewBox="0 0 110 111">
  <defs>
    <linearGradient id="linear-gradient" x1="0.5" x2="0.5" y2="1" gradientUnits="objectBoundingBox">
      <stop offset="0" stop-color="#4f8ecb"/>
      <stop offset="1" stop-color="#624596"/>
    </linearGradient>
  </defs>
  <g id="Group_11" data-name="Group 11" transform="translate(0.15 0)">
    <g id="Ellipse_4" data-name="Ellipse 4" transform="translate(-0.15 0)" stroke="#707070" stroke-width="1" fill="url(#linear-gradient)">
      <ellipse cx="55" cy="55.5" rx="55" ry="55.5" stroke="none"/>
      <ellipse cx="55" cy="55.5" rx="54.5" ry="55" fill="none"/>
    </g>
    <g id="circel" transform="translate(34.167 10.47)">
      <path id="Path_25" data-name="Path 25" d="M-52-179.794q-.076-1.741-.151-3.482c-.045-1.085-.045-2.173-.139-3.254-.149-1.716.608-3.239.966-4.845a.746.746,0,0,0-.264-.866,6.114,6.114,0,0,1-2.108-6.594,6.151,6.151,0,0,1,5.126-4.657.7.7,0,0,0,.655-.605c.634-2.426,1.3-4.845,1.947-7.267.027-.1.037-.2.07-.4h-6.158v-1.948h6.707c.359-1.317.713-2.6,1.058-3.884q2.728-10.16,5.458-20.318a.761.761,0,0,0-.235-.93,8.981,8.981,0,0,1,2.618-15.167.933.933,0,0,0,.7-1.055c-.028-3.13-.013-6.261-.011-9.391,0-.934.143-1.077,1.073-1.08,1.043,0,2.085-.005,3.128,0,.786.006.967.191.968.992q0,4.728,0,9.455v.606a27.043,27.043,0,0,1,3.071,1.865,8.942,8.942,0,0,1,.671,13.367.839.839,0,0,0-.291.93q3.21,12.044,6.392,24.095c.038.143.092.283.154.474h6.282v1.95h-5.776c.352,1.358.67,2.606,1,3.851q3.031,11.432,6.065,22.863a2.64,2.64,0,0,1,.129.75c-.1,2.786-.221,5.571-.341,8.5-.171-.259-.279-.4-.365-.555-.659-1.191-1.259-2.418-1.982-3.568a25.439,25.439,0,0,1-2.921-7.361c-2.048-7.965-4.194-15.905-6.283-23.86-.129-.49-.336-.622-.825-.616-2.209.028-4.419.012-6.7.012v5.752H-34v-5.7H-41.3q-.763,2.812-1.53,5.644c-.282,1.047-.54,2.1-.842,3.141a.712.712,0,0,0,.245.872,6.129,6.129,0,0,1,2.043,6.621,6.191,6.191,0,0,1-5.109,4.611c-.21.042-.386.3-.553.476-.063.067-.06.2-.077.3-.466,2.856-1.9,5.3-3.319,7.742-.49.842-.957,1.7-1.434,2.546Zm17.4-56.888-6.146,22.9H-34v-5.276h1.673v5.3h6.845l-6.068-22.916Zm1.39-2.734a6.231,6.231,0,0,0,6.279-6.215,6.234,6.234,0,0,0-6.2-6.226,6.217,6.217,0,0,0-6.267,6.151A6.213,6.213,0,0,0-33.213-239.416ZM-51.94-197.243a4.379,4.379,0,0,0,4.345,4.479,4.4,4.4,0,0,0,4.484-4.348,4.431,4.431,0,0,0-4.353-4.494A4.414,4.414,0,0,0-51.94-197.243Z" transform="translate(53.948 265.536)" fill="#fff" fill-rule="evenodd"/>
      <path id="Path_26" data-name="Path 26" d="M93.741-127.532a2.617,2.617,0,0,1-2.628,2.579,2.589,2.589,0,0,1-2.552-2.644,2.589,2.589,0,0,1,2.618-2.576A2.61,2.61,0,0,1,93.741-127.532Z" transform="translate(-70.315 147.505)" fill="#fff" fill-rule="evenodd"/>
    </g>
  </g>
</svg>
