<svg xmlns="http://www.w3.org/2000/svg" xmlns:xlink="http://www.w3.org/1999/xlink" width="91.635" height="34.975" viewBox="0 0 91.635 34.975">
  <defs>
    <linearGradient id="linear-gradient" x1="1.045" x2="0" y2="1" gradientUnits="objectBoundingBox">
      <stop offset="0" stop-color="#0082ff"/>
      <stop offset="1" stop-color="#8f00ff"/>
    </linearGradient>
    <filter id="Path_622" x="23.59" y="12.174" width="51.115" height="10.627" filterUnits="userSpaceOnUse">
      <feOffset dy="3" input="SourceAlpha"/>
      <feGaussianBlur stdDeviation="3" result="blur"/>
      <feFlood flood-opacity="0.161" result="color"/>
      <feComposite operator="out" in="SourceGraphic" in2="blur"/>
      <feComposite operator="in" in="color"/>
      <feComposite operator="in" in2="SourceGraphic"/>
    </filter>
  </defs>
  <g id="Group_205" data-name="Group 205" transform="translate(-877.437 -500.988)">
    <g data-type="innerShadowGroup">
      <path id="Path_622-2" data-name="Path 622" d="M3.45-26.611H5.289v-3.847l2.766,3.847H10.16l-3.215-4.31,3.2-3.4h-2.2L5.289-31.385V-37H3.45ZM10.3-30.472a4.013,4.013,0,0,0,4.127,4.085,4.013,4.013,0,0,0,4.127-4.085,4.01,4.01,0,0,0-4.127-4.071A4.007,4.007,0,0,0,10.3-30.486Zm1.839,0a2.288,2.288,0,0,1,2.288-2.358A2.276,2.276,0,0,1,16.7-30.472a2.276,2.276,0,0,1-2.274,2.358,2.284,2.284,0,0,1-2.288-2.344Zm7.834,3.861h1.839v-4.254c0-1.081.449-1.951,1.755-1.965s1.671.884,1.671,2.036v4.184h1.839v-4.647c0-1.362-.477-3.285-2.99-3.3a2.512,2.512,0,0,0-2.4,1.263c.014-.365.014-.688.014-1.025H19.973Zm9.406,0h1.839V-32.9h1.32v-1.418h-1.32V-37H29.379v2.681H28.1V-32.9h1.278Zm11.835-7.707H39.375V-33.2a2.878,2.878,0,0,0-2.6-1.362,3.9,3.9,0,0,0-3.917,4.085,3.873,3.873,0,0,0,3.917,4.1,2.868,2.868,0,0,0,2.6-1.348v1.109h1.839ZM34.7-30.444a2.319,2.319,0,0,1,2.33-2.4,2.261,2.261,0,0,1,2.148,1.362,2.4,2.4,0,0,1,.211,1.081,2.644,2.644,0,0,1-.295,1.081,2.182,2.182,0,0,1-2.05,1.235A2.313,2.313,0,0,1,34.7-30.43Zm8.4,3.833h1.839v-3.847L47.7-26.611h2.106l-3.215-4.31,3.2-3.4h-2.2l-2.653,2.934V-37H43.1Zm8.311,0h1.839V-32.9h1.32v-1.418h-1.32V-37H51.406v2.681H50.128V-32.9h1.278Z" transform="translate(897.577 550.161)" fill="url(#linear-gradient)"/>
      <g transform="matrix(1, 0, 0, 1, 877.44, 500.99)" filter="url(#Path_622)">
        <path id="Path_622-3" data-name="Path 622" d="M3.45-26.611H5.289v-3.847l2.766,3.847H10.16l-3.215-4.31,3.2-3.4h-2.2L5.289-31.385V-37H3.45ZM10.3-30.472a4.013,4.013,0,0,0,4.127,4.085,4.013,4.013,0,0,0,4.127-4.085,4.01,4.01,0,0,0-4.127-4.071A4.007,4.007,0,0,0,10.3-30.486Zm1.839,0a2.288,2.288,0,0,1,2.288-2.358A2.276,2.276,0,0,1,16.7-30.472a2.276,2.276,0,0,1-2.274,2.358,2.284,2.284,0,0,1-2.288-2.344Zm7.834,3.861h1.839v-4.254c0-1.081.449-1.951,1.755-1.965s1.671.884,1.671,2.036v4.184h1.839v-4.647c0-1.362-.477-3.285-2.99-3.3a2.512,2.512,0,0,0-2.4,1.263c.014-.365.014-.688.014-1.025H19.973Zm9.406,0h1.839V-32.9h1.32v-1.418h-1.32V-37H29.379v2.681H28.1V-32.9h1.278Zm11.835-7.707H39.375V-33.2a2.878,2.878,0,0,0-2.6-1.362,3.9,3.9,0,0,0-3.917,4.085,3.873,3.873,0,0,0,3.917,4.1,2.868,2.868,0,0,0,2.6-1.348v1.109h1.839ZM34.7-30.444a2.319,2.319,0,0,1,2.33-2.4,2.261,2.261,0,0,1,2.148,1.362,2.4,2.4,0,0,1,.211,1.081,2.644,2.644,0,0,1-.295,1.081,2.182,2.182,0,0,1-2.05,1.235A2.313,2.313,0,0,1,34.7-30.43Zm8.4,3.833h1.839v-3.847L47.7-26.611h2.106l-3.215-4.31,3.2-3.4h-2.2l-2.653,2.934V-37H43.1Zm8.311,0h1.839V-32.9h1.32v-1.418h-1.32V-37H51.406v2.681H50.128V-32.9h1.278Z" transform="translate(20.14 49.17)" fill="#fff"/>
      </g>
    </g>
    <g id="gradient" transform="translate(877.437 500.988)">
      <path id="Path_621" data-name="Path 621" d="M777.147,471h-56.66a17.488,17.488,0,1,0,0,34.975h56.66a17.488,17.488,0,0,0,0-34.975Zm0,31.478h-56.66a13.99,13.99,0,0,1,0-27.98h56.66a13.99,13.99,0,1,1,0,27.98Z" transform="translate(-703 -471)" fill="url(#linear-gradient)"/>
    </g>
  </g>
</svg>
