<?xml version="1.0" encoding="utf-8"?>
<!-- Generator: Adobe Illustrator 16.0.0, SVG Export Plug-In . SVG Version: 6.00 Build 0)  -->
<!DOCTYPE svg PUBLIC "-//W3C//DTD SVG 1.1 Basic//EN" "http://www.w3.org/Graphics/SVG/1.1/DTD/svg11-basic.dtd">
<svg version="1.1" baseProfile="basic" id="Ebene_1"
	 xmlns="http://www.w3.org/2000/svg" xmlns:xlink="http://www.w3.org/1999/xlink" x="0px" y="0px" width="231.188px"
	 height="96.494px" viewBox="29.898 48.367 231.188 96.494" xml:space="preserve">
<g id="Hero_2_" transform="translate(-650.192 -296.123)">
	
		<linearGradient id="Exclusion_1_1_" gradientUnits="userSpaceOnUse" x1="974.3563" y1="45.0512" x2="974.3563" y2="46.0204" gradientTransform="matrix(38.778 0 0 32.872 -36988.7227 -1136.4707)">
		<stop  offset="0" style="stop-color: rgba(0, 130, 255, 1)"/>
		<stop  offset="1" style="stop-color: rgba(79, 5, 245, 1)"/>
	</linearGradient>
	<path id="Exclusion_1_2_" style="fill:url(#Exclusion_1_1_);" d="M814.21,376.363h-38.778l19.392-31.873l19.388,31.873l0,0H814.21z
		 M794.823,352.189l-11.81,19.934h23.619L794.823,352.189z"/>
	<g>
		<path style="fill:#FFFFFF;" d="M687.719,396.574c1.013-1.877,2.392-3.336,4.138-4.377c1.743-1.041,3.674-1.563,5.784-1.563
			c1.906,0,3.57,0.375,4.994,1.123c1.422,0.748,2.56,1.678,3.41,2.793v-3.521h5.062v24.244h-5.062v-3.609
			c-0.852,1.146-2.01,2.099-3.477,2.861c-1.468,0.762-3.14,1.146-5.017,1.146c-2.084,0-3.99-0.535-5.721-1.606
			c-1.73-1.07-3.102-2.566-4.113-4.488c-1.012-1.92-1.518-4.098-1.518-6.533C686.202,400.609,686.707,398.453,687.719,396.574z
			 M705.01,398.775c-0.688-1.232-1.59-2.172-2.705-2.816c-1.114-0.645-2.317-0.969-3.606-0.969c-1.291,0-2.494,0.315-3.609,0.947
			c-1.115,0.631-2.016,1.555-2.705,2.771c-0.688,1.216-1.035,2.661-1.035,4.334c0,1.672,0.347,3.139,1.035,4.399
			c0.689,1.262,1.599,2.222,2.729,2.881c1.129,0.66,2.323,0.99,3.586,0.99c1.289,0,2.492-0.322,3.606-0.967
			c1.115-0.646,2.017-1.592,2.705-2.838c0.689-1.248,1.035-2.707,1.035-4.379S705.7,400.007,705.01,398.775z"/>
		<path style="fill:#FFFFFF;" d="M752.178,391.822c1.513,0.793,2.699,1.967,3.564,3.521c0.864,1.554,1.299,3.433,1.299,5.631v14.302
			h-4.974v-13.554c0-2.17-0.543-3.834-1.629-4.993c-1.086-1.158-2.565-1.738-4.442-1.738s-3.365,0.58-4.468,1.738
			c-1.1,1.159-1.647,2.823-1.647,4.993v13.554h-4.973v-13.554c0-2.17-0.543-3.834-1.63-4.993c-1.084-1.158-2.565-1.738-4.442-1.738
			s-3.365,0.58-4.467,1.738c-1.101,1.159-1.648,2.823-1.648,4.993v13.554h-5.018v-24.244h5.018v2.771
			c0.82-0.996,1.861-1.772,3.123-2.332c1.262-0.558,2.611-0.836,4.049-0.836c1.937,0,3.666,0.412,5.191,1.231
			c1.524,0.82,2.699,2.011,3.52,3.564c0.734-1.467,1.877-2.633,3.433-3.498c1.555-0.865,3.227-1.299,5.018-1.299
			C748.959,390.634,750.666,391.031,752.178,391.822z"/>
		<path style="fill:#FFFFFF;" d="M771.934,391.757c1.48-0.748,3.132-1.123,4.949-1.123c2.142,0,4.078,0.515,5.81,1.541
			c1.729,1.024,3.094,2.483,4.092,4.377c0.996,1.894,1.496,4.058,1.496,6.49c0,2.437-0.5,4.612-1.496,6.532
			c-0.998,1.923-2.369,3.418-4.113,4.488c-1.746,1.072-3.674,1.607-5.787,1.607c-1.877,0-3.541-0.367-4.994-1.102
			c-1.451-0.732-2.604-1.672-3.453-2.814v3.52h-5.016v-32.561h5.016v11.924C769.286,393.466,770.452,392.505,771.934,391.757z
			 M782.141,398.709c-0.688-1.217-1.598-2.141-2.727-2.771c-1.131-0.631-2.34-0.947-3.631-0.947c-1.263,0-2.457,0.324-3.586,0.97
			c-1.13,0.646-2.039,1.584-2.729,2.815c-0.689,1.232-1.033,2.685-1.033,4.355s0.345,3.131,1.033,4.379
			c0.689,1.246,1.6,2.191,2.729,2.838c1.129,0.645,2.323,0.967,3.586,0.967c1.291,0,2.5-0.33,3.631-0.99
			c1.129-0.66,2.037-1.619,2.727-2.881c0.69-1.262,1.035-2.729,1.035-4.399S782.83,399.925,782.141,398.709z"/>
		<path style="fill:#FFFFFF;" d="M801.194,391.668c1.217-0.688,2.66-1.033,4.334-1.033v5.191h-1.275c-1.967,0-3.455,0.5-4.467,1.496
			c-1.014,0.998-1.52,2.729-1.52,5.192v12.761h-5.015v-24.244h5.015v3.52C799.001,393.318,799.977,392.359,801.194,391.668z"/>
		<path style="fill:#FFFFFF;" d="M832.19,405.023h-18.523c0.145,1.936,0.865,3.489,2.156,4.664c1.291,1.174,2.875,1.76,4.752,1.76
			c2.697,0,4.604-1.129,5.721-3.389h5.412c-0.734,2.229-2.063,4.057-3.982,5.479c-1.922,1.424-4.305,2.135-7.15,2.135
			c-2.316,0-4.393-0.521-6.225-1.563c-1.834-1.041-3.271-2.508-4.313-4.4c-1.043-1.893-1.564-4.084-1.564-6.578
			c0-2.492,0.506-4.686,1.518-6.578c1.016-1.893,2.438-3.352,4.271-4.377c1.832-1.027,3.938-1.541,6.313-1.541
			c2.289,0,4.326,0.5,6.117,1.496c1.789,0.998,3.182,2.398,4.18,4.201c0.996,1.805,1.496,3.881,1.496,6.227
			C832.368,403.468,832.309,404.289,832.19,405.023z M827.132,400.974c-0.029-1.848-0.689-3.327-1.98-4.442
			s-2.889-1.672-4.795-1.672c-1.732,0-3.213,0.549-4.445,1.649c-1.23,1.101-1.965,2.588-2.199,4.466L827.132,400.974
			L827.132,400.974z"/>
		<path style="fill:#FFFFFF;" d="M837.581,396.552c1.012-1.894,2.412-3.353,4.203-4.377c1.787-1.026,3.842-1.541,6.156-1.541
			c2.936,0,5.361,0.696,7.283,2.09c1.92,1.396,3.219,3.382,3.896,5.964h-5.412c-0.441-1.203-1.146-2.142-2.113-2.816
			c-0.967-0.674-2.186-1.012-3.652-1.012c-2.053,0-3.688,0.725-4.904,2.178c-1.219,1.451-1.826,3.482-1.826,6.094
			s0.607,4.65,1.826,6.115c1.217,1.469,2.852,2.201,4.904,2.201c2.904,0,4.826-1.275,5.766-3.828h5.412
			c-0.705,2.463-2.025,4.422-3.961,5.873c-1.936,1.453-4.342,2.18-7.217,2.18c-2.316,0-4.371-0.521-6.158-1.563
			c-1.791-1.041-3.191-2.509-4.203-4.4c-1.012-1.893-1.518-4.084-1.518-6.578C836.063,400.638,836.569,398.445,837.581,396.552z"/>
		<path style="fill:#FFFFFF;" d="M881.624,391.822c1.453,0.793,2.598,1.967,3.434,3.521s1.254,3.433,1.254,5.631v14.302h-4.973
			v-13.554c0-2.17-0.543-3.834-1.629-4.993c-1.084-1.158-2.566-1.738-4.443-1.738s-3.365,0.58-4.467,1.738
			c-1.1,1.159-1.648,2.823-1.648,4.993v13.554h-5.018v-32.562h5.018v11.133c0.85-1.026,1.928-1.817,3.232-2.377
			c1.307-0.558,2.736-0.836,4.291-0.836C878.522,390.634,880.173,391.031,881.624,391.822z"/>
		<path style="fill:#FFFFFF;" d="M898.542,395.123v13.42c0,0.91,0.213,1.563,0.639,1.957c0.424,0.396,1.15,0.596,2.178,0.596h3.08
			v4.18h-3.961c-2.258,0-3.988-0.529-5.191-1.584c-1.203-1.057-1.805-2.772-1.805-5.147v-13.421h-2.859v-4.092h2.859v-6.028h5.061
			v6.028h5.896v4.092H898.542L898.542,395.123z"/>
	</g>
	<g>
		<path style="fill:#FFFFFF;" d="M680.668,429.037c0.387-0.73,0.93-1.291,1.631-1.684c0.701-0.392,1.502-0.587,2.402-0.587
			c1.086,0,2.008,0.283,2.762,0.851c0.752,0.565,1.258,1.289,1.516,2.164v-6.398h0.332v12.973h-0.332v-2.91
			c-0.258,0.89-0.764,1.617-1.516,2.185c-0.754,0.565-1.676,0.851-2.762,0.851c-0.9,0-1.701-0.195-2.402-0.589
			c-0.701-0.391-1.244-0.95-1.631-1.682c-0.385-0.729-0.578-1.593-0.578-2.587C680.09,430.63,680.284,429.767,680.668,429.037z
			 M688.426,429.248c-0.367-0.684-0.877-1.217-1.524-1.596c-0.648-0.379-1.382-0.57-2.199-0.57c-0.865,0-1.615,0.182-2.254,0.543
			c-0.638,0.363-1.129,0.887-1.48,1.57c-0.35,0.684-0.525,1.492-0.525,2.428s0.177,1.744,0.525,2.428
			c0.353,0.684,0.844,1.207,1.48,1.568c0.639,0.363,1.389,0.545,2.254,0.545c0.817,0,1.551-0.191,2.199-0.57
			c0.647-0.381,1.157-0.912,1.524-1.596c0.369-0.684,0.553-1.475,0.553-2.375S688.795,429.931,688.426,429.248z"/>
		<path style="fill:#FFFFFF;" d="M692.143,424.339c-0.088-0.088-0.131-0.203-0.131-0.345c0-0.139,0.043-0.254,0.131-0.342
			c0.089-0.086,0.195-0.131,0.324-0.131s0.236,0.045,0.324,0.131c0.088,0.088,0.131,0.203,0.131,0.342
			c0,0.142-0.043,0.257-0.131,0.345c-0.088,0.086-0.195,0.131-0.324,0.131S692.232,424.425,692.143,424.339z M692.643,426.888v9.468
			h-0.352v-9.468H692.643z"/>
		<path style="fill:#FFFFFF;" d="M702.555,427.607c0.754,0.563,1.261,1.274,1.517,2.139v-2.857h0.334v9.818
			c0,0.877-0.193,1.639-0.578,2.287c-0.387,0.648-0.898,1.143-1.535,1.482c-0.637,0.338-1.328,0.508-2.076,0.508
			c-1.146,0-2.096-0.277-2.85-0.834c-0.754-0.555-1.271-1.305-1.552-2.252h0.351c0.27,0.854,0.746,1.525,1.43,2.023
			c0.684,0.496,1.557,0.744,2.621,0.744c0.725,0,1.379-0.164,1.963-0.488c0.584-0.328,1.045-0.789,1.385-1.387
			c0.34-0.596,0.509-1.291,0.509-2.086v-3.227c-0.257,0.877-0.763,1.596-1.517,2.156s-1.674,0.842-2.762,0.842
			c-0.898,0-1.699-0.195-2.4-0.588c-0.701-0.391-1.246-0.951-1.631-1.682c-0.385-0.731-0.578-1.592-0.578-2.586
			s0.193-1.855,0.578-2.586c0.385-0.731,0.931-1.291,1.631-1.685c0.701-0.391,1.502-0.586,2.4-0.586
			C700.881,426.767,701.801,427.047,702.555,427.607z M703.52,429.248c-0.368-0.684-0.877-1.217-1.524-1.596
			c-0.648-0.379-1.383-0.57-2.201-0.57c-0.865,0-1.615,0.182-2.252,0.543c-0.637,0.363-1.131,0.887-1.48,1.57
			c-0.352,0.684-0.526,1.492-0.526,2.428s0.176,1.744,0.526,2.428s0.845,1.207,1.48,1.568c0.637,0.363,1.387,0.545,2.252,0.545
			c0.818,0,1.553-0.191,2.201-0.57c0.647-0.381,1.156-0.912,1.524-1.596c0.367-0.684,0.552-1.475,0.552-2.375
			S703.887,429.931,703.52,429.248z"/>
		<path style="fill:#FFFFFF;" d="M707.411,424.339c-0.086-0.088-0.131-0.203-0.131-0.345c0-0.139,0.045-0.254,0.131-0.342
			c0.088-0.086,0.196-0.131,0.323-0.131c0.13,0,0.238,0.045,0.324,0.131c0.088,0.088,0.133,0.203,0.133,0.342
			c0,0.142-0.045,0.257-0.133,0.345c-0.086,0.086-0.194,0.131-0.324,0.131C707.607,424.47,707.498,424.425,707.411,424.339z
			 M707.911,426.888v9.468h-0.351v-9.468H707.911z"/>
		<path style="fill:#FFFFFF;" d="M712.082,427.24v6.627c0,0.572,0.063,1.01,0.192,1.313c0.13,0.304,0.332,0.519,0.613,0.64
			c0.281,0.123,0.672,0.186,1.174,0.186h1v0.35h-1.035c-0.815,0-1.403-0.186-1.762-0.561c-0.354-0.373-0.533-1.018-0.533-1.928
			v-6.627h-1.543v-0.353h1.543v-2.418h0.351v2.418h2.979v0.353H712.082z"/>
		<path style="fill:#FFFFFF;" d="M717.395,429.037c0.386-0.73,0.931-1.291,1.632-1.684c0.7-0.392,1.502-0.587,2.399-0.587
			c1.088,0,2.008,0.283,2.762,0.851c0.754,0.566,1.261,1.289,1.517,2.164v-2.894h0.334v9.468h-0.334v-2.894
			c-0.256,0.877-0.762,1.6-1.517,2.166c-0.754,0.565-1.674,0.85-2.762,0.85c-0.897,0-1.699-0.194-2.399-0.588
			c-0.701-0.392-1.246-0.95-1.632-1.683c-0.385-0.73-0.577-1.592-0.577-2.586S717.01,429.767,717.395,429.037z M725.153,429.248
			c-0.369-0.684-0.877-1.217-1.525-1.596s-1.383-0.57-2.201-0.57c-0.865,0-1.615,0.182-2.252,0.543
			c-0.637,0.363-1.131,0.887-1.479,1.57c-0.353,0.684-0.527,1.492-0.527,2.428s0.176,1.744,0.527,2.428
			c0.35,0.684,0.844,1.207,1.479,1.568c0.637,0.363,1.387,0.545,2.252,0.545c0.818,0,1.553-0.191,2.201-0.57
			c0.647-0.381,1.156-0.912,1.525-1.596c0.366-0.684,0.551-1.475,0.551-2.375S725.52,429.931,725.153,429.248z"/>
		<path style="fill:#FFFFFF;" d="M729.368,423.382v12.974h-0.351v-12.974H729.368z"/>
		<path style="fill:#FFFFFF;" d="M739.148,435.357c0.726-0.539,1.164-1.273,1.314-2.209h0.352c-0.163,0.991-0.629,1.797-1.395,2.409
			c-0.766,0.613-1.75,0.921-2.953,0.921c-0.877,0-1.66-0.193-2.35-0.578c-0.689-0.388-1.23-0.947-1.621-1.685
			c-0.393-0.735-0.588-1.601-0.588-2.595c0-0.993,0.194-1.858,0.588-2.596c0.391-0.736,0.932-1.297,1.621-1.682
			c0.688-0.387,1.473-0.578,2.35-0.578c0.924,0,1.711,0.195,2.367,0.586c0.654,0.393,1.147,0.898,1.479,1.518
			c0.334,0.619,0.5,1.273,0.5,1.963c0,0.421-0.006,0.736-0.018,0.947h-8.537c0.012,0.969,0.213,1.781,0.604,2.437
			c0.393,0.653,0.903,1.144,1.535,1.465c0.631,0.32,1.319,0.481,2.067,0.481C737.53,436.164,738.424,435.894,739.148,435.357z
			 M734.398,427.564c-0.631,0.321-1.143,0.809-1.534,1.463c-0.392,0.656-0.593,1.467-0.604,2.438h8.238
			c0.059-0.971-0.096-1.781-0.465-2.438c-0.367-0.654-0.869-1.142-1.506-1.463c-0.64-0.32-1.324-0.482-2.062-0.482
			C735.719,427.082,735.03,427.244,734.398,427.564z"/>
		<path style="fill:#FFFFFF;" d="M752.043,427.617c0.754-0.566,1.674-0.85,2.76-0.85c0.9,0,1.701,0.194,2.402,0.586
			c0.701,0.393,1.244,0.952,1.631,1.684c0.385,0.73,0.578,1.592,0.578,2.586s-0.193,1.855-0.578,2.586
			c-0.387,0.73-0.93,1.291-1.631,1.682c-0.701,0.393-1.502,0.588-2.402,0.588c-1.086,0-2.006-0.283-2.76-0.85
			s-1.26-1.289-1.518-2.166v7.346h-0.332v-13.92h0.332v2.893C750.784,428.906,751.289,428.183,752.043,427.617z M758.537,429.195
			c-0.351-0.685-0.844-1.207-1.48-1.57c-0.639-0.361-1.389-0.543-2.254-0.543c-0.817,0-1.551,0.191-2.198,0.57
			c-0.648,0.379-1.158,0.912-1.525,1.596c-0.369,0.684-0.553,1.475-0.553,2.375s0.184,1.691,0.553,2.375
			c0.367,0.684,0.877,1.215,1.525,1.596c0.647,0.379,1.381,0.57,2.198,0.57c0.865,0,1.615-0.182,2.254-0.545
			c0.638-0.361,1.132-0.885,1.48-1.568c0.352-0.684,0.524-1.492,0.524-2.428S758.889,429.879,758.537,429.195z"/>
		<path style="fill:#FFFFFF;" d="M766.039,426.679v0.386h-0.156c-0.994,0-1.838,0.289-2.533,0.866
			c-0.694,0.58-1.043,1.513-1.043,2.798v5.627h-0.352v-9.468h0.352v2.298C762.68,427.515,763.924,426.679,766.039,426.679z"/>
		<path style="fill:#FFFFFF;" d="M769.705,435.89c-0.701-0.391-1.254-0.95-1.658-1.682c-0.401-0.729-0.604-1.593-0.604-2.587
			c0-0.993,0.2-1.854,0.604-2.586c0.404-0.729,0.957-1.291,1.658-1.684c0.701-0.391,1.49-0.586,2.365-0.586
			c0.877,0,1.666,0.195,2.366,0.586c0.701,0.393,1.25,0.953,1.648,1.684c0.396,0.73,0.596,1.593,0.596,2.586
			c0,0.994-0.199,1.855-0.596,2.587c-0.398,0.729-0.947,1.291-1.648,1.682c-0.701,0.394-1.489,0.589-2.366,0.589
			C771.196,436.478,770.407,436.283,769.705,435.89z M774.174,435.664c0.644-0.334,1.164-0.84,1.562-1.518
			c0.397-0.679,0.596-1.519,0.596-2.523c0-1.006-0.197-1.848-0.596-2.525c-0.396-0.678-0.918-1.182-1.562-1.516
			c-0.643-0.334-1.344-0.5-2.104-0.5c-0.761,0-1.464,0.166-2.111,0.5s-1.172,0.842-1.57,1.525c-0.396,0.684-0.596,1.521-0.596,2.516
			c0,0.994,0.199,1.832,0.596,2.516c0.398,0.684,0.923,1.191,1.57,1.525c0.647,0.332,1.353,0.5,2.111,0.5
			S773.532,435.996,774.174,435.664z"/>
		<path style="fill:#FFFFFF;" d="M779.364,429.037c0.385-0.73,0.93-1.291,1.631-1.684c0.701-0.392,1.502-0.587,2.399-0.587
			c1.088,0,2.009,0.283,2.763,0.851c0.754,0.566,1.26,1.289,1.516,2.164v-6.398h0.334v12.973h-0.334v-2.91
			c-0.256,0.89-0.762,1.617-1.516,2.185c-0.755,0.567-1.675,0.851-2.763,0.851c-0.897,0-1.698-0.195-2.399-0.589
			c-0.701-0.391-1.246-0.95-1.631-1.682c-0.386-0.731-0.578-1.593-0.578-2.587C778.786,430.63,778.98,429.767,779.364,429.037z
			 M787.121,429.248c-0.369-0.684-0.877-1.217-1.525-1.596c-0.647-0.379-1.383-0.57-2.201-0.57c-0.864,0-1.614,0.182-2.252,0.543
			c-0.637,0.363-1.131,0.887-1.479,1.57c-0.353,0.684-0.527,1.492-0.527,2.428s0.176,1.744,0.527,2.428
			c0.35,0.684,0.844,1.207,1.479,1.568c0.638,0.363,1.388,0.545,2.252,0.545c0.818,0,1.554-0.191,2.201-0.57
			c0.648-0.381,1.156-0.912,1.525-1.596c0.367-0.684,0.551-1.475,0.551-2.375S787.489,429.931,787.121,429.248z"/>
		<path style="fill:#FFFFFF;" d="M798.77,426.888v9.468h-0.352v-2.576c-0.209,0.899-0.65,1.584-1.322,2.051
			c-0.674,0.467-1.471,0.701-2.395,0.701c-1.109,0-2.021-0.344-2.734-1.035c-0.713-0.689-1.068-1.729-1.068-3.119v-5.488h0.332
			v5.523c0,1.238,0.312,2.182,0.931,2.83s1.467,0.973,2.541,0.973c1.123,0,2.023-0.363,2.701-1.096
			c0.678-0.729,1.016-1.807,1.016-3.234v-4.996L798.77,426.888L798.77,426.888z"/>
		<path style="fill:#FFFFFF;" d="M806.466,436.355l-4.365-4.437v4.437h-0.35v-12.974h0.35v7.836l4.277-4.33h0.51l-4.664,4.699
			l4.732,4.769H806.466L806.466,436.355z"/>
		<path style="fill:#FFFFFF;" d="M809.429,427.24v6.627c0,0.572,0.063,1.01,0.191,1.313c0.127,0.304,0.334,0.519,0.613,0.64
			c0.279,0.123,0.674,0.186,1.176,0.186h0.998v0.35h-1.033c-0.818,0-1.406-0.186-1.762-0.561c-0.357-0.373-0.535-1.018-0.535-1.928
			v-6.627h-1.543v-0.353h1.543v-2.418h0.352v2.418h2.979v0.353H809.429z"/>
		<path style="fill:#FFFFFF;" d="M821.399,435.357c0.727-0.539,1.164-1.273,1.314-2.209h0.352c-0.162,0.991-0.629,1.797-1.395,2.409
			c-0.766,0.613-1.75,0.921-2.953,0.921c-0.877,0-1.66-0.193-2.35-0.578c-0.689-0.388-1.23-0.947-1.621-1.685
			c-0.393-0.735-0.588-1.601-0.588-2.595c0-0.993,0.195-1.858,0.588-2.596c0.391-0.736,0.932-1.297,1.621-1.682
			c0.689-0.387,1.473-0.578,2.35-0.578c0.924,0,1.711,0.195,2.367,0.586c0.654,0.393,1.148,0.898,1.48,1.518
			c0.334,0.619,0.5,1.273,0.5,1.963c0,0.421-0.006,0.736-0.018,0.947h-8.537c0.012,0.969,0.213,1.781,0.604,2.437
			c0.393,0.653,0.904,1.144,1.535,1.465c0.631,0.32,1.32,0.481,2.068,0.481C819.782,436.164,820.677,435.894,821.399,435.357z
			 M816.649,427.564c-0.631,0.321-1.143,0.809-1.533,1.463c-0.393,0.656-0.594,1.467-0.605,2.438h8.238
			c0.059-0.971-0.096-1.781-0.465-2.438c-0.367-0.654-0.869-1.142-1.506-1.463c-0.639-0.32-1.324-0.482-2.061-0.482
			C817.972,427.082,817.282,427.244,816.649,427.564z"/>
		<path style="fill:#FFFFFF;" d="M832.411,427.713c0.713,0.689,1.066,1.73,1.066,3.121v5.521h-0.332v-5.558
			c0-1.237-0.311-2.183-0.93-2.832c-0.619-0.647-1.467-0.974-2.541-0.974c-1.123,0-2.023,0.365-2.701,1.097s-1.016,1.81-1.016,3.233
			v5.031h-0.352v-9.467h0.352v2.49c0.221-0.877,0.666-1.545,1.332-2.008c0.666-0.461,1.461-0.691,2.385-0.691
			C830.786,426.679,831.698,427.023,832.411,427.713z"/>
		<path style="fill:#FFFFFF;" d="M837.126,427.24v6.627c0,0.572,0.063,1.01,0.193,1.313c0.129,0.304,0.332,0.519,0.611,0.64
			c0.281,0.123,0.672,0.186,1.174,0.186h1v0.35h-1.033c-0.816,0-1.404-0.186-1.764-0.561c-0.354-0.373-0.531-1.018-0.531-1.928
			v-6.627h-1.543v-0.353h1.543v-2.418h0.35v2.418h2.979v0.353H837.126z"/>
		<path style="fill:#FFFFFF;" d="M854.534,426.888l-2.98,9.468h-0.264l-3.453-8.816l-3.438,8.816h-0.264l-2.979-9.468h0.367
			l2.771,8.836l3.418-8.836h0.264l3.418,8.836l2.77-8.836H854.534z"/>
		<path style="fill:#FFFFFF;" d="M856.225,424.339c-0.088-0.088-0.131-0.203-0.131-0.345c0-0.139,0.043-0.254,0.131-0.342
			c0.088-0.086,0.195-0.131,0.324-0.131s0.236,0.045,0.324,0.131c0.088,0.088,0.131,0.203,0.131,0.342
			c0,0.142-0.043,0.257-0.131,0.345c-0.088,0.086-0.195,0.131-0.324,0.131S856.313,424.425,856.225,424.339z M856.725,426.888v9.468
			h-0.352v-9.468H856.725z"/>
		<path style="fill:#FFFFFF;" d="M859.852,429.027c0.393-0.736,0.934-1.297,1.623-1.683c0.689-0.388,1.473-0.578,2.348-0.578
			c1.205,0,2.189,0.308,2.955,0.921c0.766,0.612,1.23,1.416,1.393,2.409h-0.35c-0.152-0.937-0.59-1.672-1.314-2.209
			c-0.723-0.537-1.619-0.808-2.684-0.808c-0.76,0-1.457,0.166-2.094,0.5s-1.148,0.839-1.535,1.517
			c-0.385,0.679-0.578,1.521-0.578,2.524c0,1.006,0.193,1.847,0.578,2.523c0.387,0.678,0.898,1.184,1.535,1.518
			c0.637,0.332,1.334,0.5,2.094,0.5c1.064,0,1.959-0.27,2.684-0.807c0.725-0.539,1.162-1.273,1.314-2.209h0.35
			c-0.162,0.992-0.627,1.797-1.393,2.41s-1.75,0.92-2.955,0.92c-0.875,0-1.658-0.193-2.348-0.578
			c-0.689-0.387-1.23-0.947-1.623-1.684c-0.391-0.736-0.586-1.6-0.586-2.594S859.462,429.763,859.852,429.027z"/>
		<path style="fill:#FFFFFF;" d="M875.429,436.355l-4.365-4.437v4.437h-0.35v-12.974h0.35v7.836l4.277-4.33h0.51l-4.664,4.699
			l4.732,4.769H875.429L875.429,436.355z"/>
		<path style="fill:#FFFFFF;" d="M877.989,423.382v12.974h-0.354v-12.974H877.989z"/>
		<path style="fill:#FFFFFF;" d="M888.751,426.888v9.468h-0.35v-2.576c-0.213,0.899-0.652,1.584-1.324,2.051
			s-1.469,0.701-2.395,0.701c-1.109,0-2.02-0.344-2.732-1.035c-0.713-0.689-1.07-1.729-1.07-3.119v-5.488h0.334v5.523
			c0,1.238,0.309,2.182,0.93,2.83c0.619,0.648,1.465,0.973,2.541,0.973c1.121,0,2.021-0.363,2.699-1.096
			c0.678-0.729,1.018-1.807,1.018-3.234v-4.996L888.751,426.888L888.751,426.888z"/>
		<path style="fill:#FFFFFF;" d="M898.534,427.713c0.713,0.689,1.066,1.73,1.066,3.121v5.521h-0.332v-5.558
			c0-1.237-0.311-2.183-0.93-2.832c-0.619-0.647-1.467-0.974-2.541-0.974c-1.123,0-2.023,0.365-2.701,1.097s-1.016,1.81-1.016,3.233
			v5.031h-0.352v-9.467h0.352v2.49c0.221-0.877,0.666-1.545,1.332-2.008c0.666-0.461,1.461-0.691,2.385-0.691
			C896.909,426.679,897.821,427.023,898.534,427.713z"/>
		<path style="fill:#FFFFFF;" d="M909.429,427.607c0.754,0.563,1.26,1.274,1.516,2.139v-2.857h0.334v9.818
			c0,0.877-0.193,1.639-0.578,2.287c-0.387,0.648-0.898,1.143-1.535,1.482c-0.637,0.338-1.328,0.508-2.076,0.508
			c-1.146,0-2.096-0.277-2.85-0.834c-0.754-0.555-1.27-1.305-1.551-2.252h0.35c0.27,0.854,0.746,1.525,1.43,2.023
			c0.684,0.496,1.557,0.744,2.621,0.744c0.725,0,1.379-0.164,1.963-0.488c0.584-0.328,1.045-0.789,1.385-1.387
			c0.34-0.596,0.51-1.291,0.51-2.086v-3.227c-0.258,0.877-0.764,1.596-1.518,2.156s-1.674,0.842-2.762,0.842
			c-0.898,0-1.699-0.195-2.4-0.588c-0.701-0.391-1.246-0.951-1.631-1.682c-0.385-0.731-0.578-1.592-0.578-2.586
			s0.193-1.855,0.578-2.586c0.385-0.731,0.932-1.291,1.631-1.685c0.701-0.391,1.502-0.586,2.4-0.586
			C907.755,426.767,908.675,427.047,909.429,427.607z M910.393,429.248c-0.369-0.684-0.877-1.217-1.525-1.596
			s-1.383-0.57-2.201-0.57c-0.865,0-1.615,0.182-2.252,0.543c-0.637,0.363-1.131,0.887-1.48,1.57
			c-0.352,0.684-0.525,1.492-0.525,2.428s0.176,1.744,0.525,2.428c0.352,0.684,0.846,1.207,1.48,1.568
			c0.637,0.363,1.387,0.545,2.252,0.545c0.818,0,1.553-0.191,2.201-0.57c0.648-0.381,1.156-0.912,1.525-1.596
			c0.367-0.684,0.551-1.475,0.551-2.375S910.761,429.931,910.393,429.248z"/>
	</g>
</g>
</svg>
