<svg xmlns="http://www.w3.org/2000/svg" xmlns:xlink="http://www.w3.org/1999/xlink" width="226.937" height="210.911" viewBox="0 0 226.937 210.911">
  <defs>
    <linearGradient id="linear-gradient" x1="0.5" x2="0.5" y2="1" gradientUnits="objectBoundingBox">
      <stop offset="0" stop-color="rgba(35, 147, 255, 1)"/>
      <stop offset="1" stop-color="rgba(95, 29, 242, 1)"/>
    </linearGradient>
  </defs>
  <g id="open" transform="translate(-14.492 -207.059)">
    <path id="Path_5" data-name="Path 5" d="M23.791,417.97H102.9a9.3,9.3,0,0,0,9.3-9.3V328.716a9.3,9.3,0,0,0-9.3-9.3H73.234c1.377-37.092,11.342-55.877,29.666-55.877a9.3,9.3,0,0,0,9.3-9.3V216.364a9.3,9.3,0,0,0-9.3-9.3c-14.412,0-27.373,3.074-38.521,9.115A80.566,80.566,0,0,0,36.32,241.819c-7.33,10.7-12.887,23.609-16.51,38.385-3.527,14.41-5.318,30.729-5.318,48.512v79.951A9.3,9.3,0,0,0,23.791,417.97Z" fill="url(#linear-gradient)"/>
    <path id="Path_6" data-name="Path 6" d="M153.023,417.97h79.108a9.3,9.3,0,0,0,9.3-9.3V328.716a9.3,9.3,0,0,0-9.3-9.3H202.879c1.364-37.092,11.188-55.877,29.252-55.877a9.3,9.3,0,0,0,9.3-9.3V216.364a9.305,9.305,0,0,0-9.3-9.3c-14.41,0-27.378,3.074-38.526,9.115a80.519,80.519,0,0,0-28.058,25.645c-7.343,10.7-12.9,23.609-16.521,38.391-3.523,14.4-5.31,30.723-5.31,48.5v79.957A9.307,9.307,0,0,0,153.023,417.97Z" fill="url(#linear-gradient)"/>
  </g>
</svg>
